<?xml version="1.0" encoding="utf-8"?>
<!-- Generator: Adobe Illustrator 21.0.2, SVG Export Plug-In . SVG Version: 6.00 Build 0)  -->
<svg version="1.1" id="Layer_1" xmlns="http://www.w3.org/2000/svg" xmlns:xlink="http://www.w3.org/1999/xlink" x="0px" y="0px"
	 viewBox="0 0 65 33" style="enable-background:new 0 0 65 33;" xml:space="preserve">
<style type="text/css">
	.st0{fill:#006F7F;}
</style>
<g>
	<g>
		<path class="st0" d="M9.4,18.9c-5.9,0-9.4-5-9.4-9.4C0,4.8,3.6,0,9.4,0v3.3c-3.5,0-6.1,2.9-6.1,6.1c0,2.8,2.1,6.1,6.1,6.1
			c3.7,0,6-3.1,6-6.1h3.3C18.7,13.9,15.3,18.9,9.4,18.9z M49.6,9.4c0-2.5,2-6.1,6.2-6.1c3.5,0,6,3,6,6.1c0,0.4,0,6.5,0,9.4H65
			c0-6.6,0-8.2,0-9.4C65,4.2,60.8,0,55.7,0c-7.5,0-9.5,6.2-9.5,9.4c0,3.3-2.5,6.1-6.2,6.1c-3.7,0-5.9-3.2-5.9-6.1h-1.6h1.6h-3.3
			c0,4.9,3.9,9.4,9.2,9.4C45.4,18.9,49.6,14.7,49.6,9.4z M26.5,1.6c0-0.9-0.7-1.6-1.6-1.6c-0.9,0-1.6,0.8-1.6,1.6s0.7,1.6,1.6,1.6
			C25.8,3.3,26.5,2.6,26.5,1.6z M20.3,4.8c0-0.9-0.7-1.6-1.6-1.6c-0.9,0-1.6,0.8-1.6,1.6s0.7,1.6,1.6,1.6
			C19.6,6.4,20.3,5.7,20.3,4.8z M32.6,4.8c0-0.9-0.7-1.6-1.6-1.6c-0.9,0-1.6,0.8-1.6,1.6s0.7,1.6,1.6,1.6
			C31.9,6.4,32.6,5.7,32.6,4.8z"/>
		<g>
			<path class="st0" d="M3.6,32.8c-2.3,0-3.6-2-3.6-3.6c0-1.8,1.4-3.6,3.6-3.6v1.3c-1.4,0-2.3,1.1-2.3,2.4c0,1.1,0.8,2.4,2.3,2.4
				c1.5,0,2.3-1.2,2.3-2.4h1.3C7.2,30.8,5.9,32.8,3.6,32.8z"/>
			<path class="st0" d="M23,32.8c-2.3,0-3.6-2-3.6-3.6c0-1.8,1.4-3.6,3.6-3.6v1.3c-1.4,0-2.3,1.1-2.3,2.4c0,1.1,0.8,2.4,2.3,2.4
				c1.5,0,2.3-1.2,2.3-2.4h1.3C26.7,30.8,25.3,32.8,23,32.8z"/>
			<path class="st0" d="M13.5,32.8h-1.4v-3.1H9.5v3.1H8.1v-7.3h1.4v2.9h2.6v-2.9h1.4V32.8z"/>
			<path class="st0" d="M18.7,32.8h-3.9v-7.3h3.9v1.3h-2.6v1.7h2.5v1.3h-2.5v1.7h2.6V32.8z"/>
			<path class="st0" d="M32.8,32.8h-1.6l-2.2-3.2v3.2h-1.4v-7.3h1.4v3.2l2.2-3.2h1.6L30,29.1L32.8,32.8z"/>
			<path class="st0" d="M37.3,32.8H36v-7.3h1.4V32.8z"/>
			<path class="st0" d="M44.6,32.8h-1.4l-3.3-5v5h-1.3v-7.3H40l3.3,5v-5h1.4V32.8z"/>
			<path class="st0" d="M52.4,30.7c0,0.7-0.2,1.2-0.7,1.6c-0.4,0.4-1,0.7-1.7,0.7c-0.6,0-1.1-0.2-1.6-0.5c-0.5-0.4-0.7-1-0.7-1.7
				h1.4c0,0.3,0.1,0.5,0.3,0.7s0.4,0.3,0.7,0.3c0.3,0,0.5-0.1,0.7-0.3c0.2-0.2,0.3-0.4,0.3-0.7c0-0.3-0.1-0.6-0.4-0.8
				c-0.2-0.1-0.4-0.3-0.7-0.4c-0.6-0.2-1.1-0.4-1.3-0.6c-0.5-0.4-0.7-0.9-0.7-1.5c0-0.5,0.2-1,0.5-1.4c0.4-0.4,1-0.7,1.6-0.7
				s1.2,0.2,1.6,0.7c0.4,0.4,0.5,0.9,0.5,1.4h-1.4c0-0.2,0-0.4-0.2-0.5c-0.1-0.2-0.4-0.3-0.6-0.3c-0.3,0-0.4,0.1-0.6,0.2
				s-0.2,0.3-0.2,0.5c0,0.3,0.1,0.4,0.3,0.6c0.1,0.1,0.4,0.2,0.6,0.3c0.6,0.2,1.1,0.4,1.4,0.6C52.2,29.4,52.4,29.9,52.4,30.7z"/>
			<path class="st0" d="M57.3,32.8h-3.9v-7.3h3.9v1.3h-2.6v1.7h2.5v1.3h-2.5v1.7h2.6V32.8z"/>
			<path class="st0" d="M65,32.8h-1.5l-0.7-1.9h-2.7l-0.7,1.9h-1.5l3-7.3H62L65,32.8z M62.2,29.6l-0.8-2.1l-0.8,2.1H62.2z"/>
		</g>
	</g>
</g>
</svg>
