<?xml version="1.0" encoding="utf-8"?>
<!-- Generator: Adobe Illustrator 21.0.2, SVG Export Plug-In . SVG Version: 6.00 Build 0)  -->
<svg version="1.1" id="Layer_1" xmlns="http://www.w3.org/2000/svg" xmlns:xlink="http://www.w3.org/1999/xlink" x="0px" y="0px"
	 viewBox="0 0 126 82.5" style="enable-background:new 0 0 126 82.5;" xml:space="preserve">
<style type="text/css">
	.st0{fill:#006F7F;}
	.st1{fill:#CCEFF0;}
</style>
<g id="Layer_2">
	<g id="Layer_1-2">
		<g>
			<path class="st0" d="M17.1,23.4H8.1V5.1l63,0c4.6,0.2,8.2,4.1,8,8.7l0,0.5h-62V23.4z M9.1,22.4h7.1v-9.2h62
				c-0.1-3.8-3.2-7-7.1-7.2h-62V22.4z"/>
		</g>
		<g>
			<path class="st0" d="M98.8,82.5H25.2c-5.6,0-10.1-4.6-10.1-10.2V13.3h73.6c5.6,0,10.1,4.6,10.1,10.2V82.5z M17.1,15.3v57.1
				c0,4.5,3.6,8.2,8.1,8.2h71.6V23.4c0-4.5-3.6-8.2-8.1-8.2H17.1z"/>
		</g>
		<g>
			<path class="st0" d="M88.7,73.3h-61c-1.9,0-3.5-1.6-3.5-3.6V23.4h59.5v1H25.2v45.3c0,1.4,1.1,2.6,2.5,2.6h60V28.5h1V73.3z"/>
		</g>
		<g>
			<path class="st0" d="M3.5,28.5H0V0h3.5c3.1,0,5.5,2.5,5.5,5.6v17.3C9.1,26,6.6,28.5,3.5,28.5z M1,27.5h2.5c2.5,0,4.5-2.1,4.5-4.6
				V5.6C8.1,3.1,6,1,3.5,1H1V27.5z"/>
		</g>
		<g>
			<path class="st0" d="M88.2,29c-2.8,0-5-2.3-5-5.1c0-2.8,2.3-5.1,5-5.1s5,2.3,5,5.1C93.2,26.7,91,29,88.2,29z M88.2,20.9
				c-1.7,0-3,1.4-3,3.1s1.4,3.1,3,3.1s3-1.4,3-3.1S89.9,20.9,88.2,20.9z"/>
		</g>
		<g>
			<path class="st0" d="M107.9,62.1H97.8V33.6h10.1V62.1z M98.8,61.1h8.1V34.6h-8.1V61.1z"/>
		</g>
		<g>
			<rect x="47.4" y="34.6" class="st1" width="7.1" height="27.5"/>
			<path class="st0" d="M55.4,63.1h-9.1V33.6h9.1V63.1z M48.4,61.1h5.1V35.6h-5.1V61.1z"/>
		</g>
		<g>
			<rect x="35.3" y="34.6" class="st1" width="7.1" height="27.5"/>
			<path class="st0" d="M43.3,63.1h-9.1V33.6h9.1V63.1z M36.3,61.1h5.1V35.6h-5.1V61.1z"/>
		</g>
		<g>
			<path class="st0" d="M126,68.2h-9.7l-9.4-6.3v-28l9.4-6.3h9.7V68.2z M116.6,67.2h8.4V28.5h-8.4l-8.7,5.9v27L116.6,67.2z"/>
		</g>
		<g>
			<polygon class="st1" points="80.6,47.9 59.5,62.4 59.5,33.3 			"/>
			<path class="st0" d="M58.5,64.3V31.4l23.9,16.5L58.5,64.3z M60.5,35.2v25.3l18.4-12.7L60.5,35.2z"/>
		</g>
		<g>
			<rect x="115.9" y="28" class="st0" width="1" height="39.7"/>
		</g>
	</g>
</g>
</svg>
