<?xml version="1.0" encoding="utf-8"?>
<!-- Generator: Adobe Illustrator 21.0.2, SVG Export Plug-In . SVG Version: 6.00 Build 0)  -->
<svg version="1.1" id="Layer_1" xmlns="http://www.w3.org/2000/svg" xmlns:xlink="http://www.w3.org/1999/xlink" x="0px" y="0px"
	 viewBox="0 0 24 18" style="enable-background:new 0 0 24 18;" xml:space="preserve">
<style type="text/css">
	.st0{fill:#006F7F;}
</style>
<g>
	<path class="st0" d="M19,18H5c-2.8,0-5-2.2-5-5V5c0-2.8,2.2-5,5-5h14c2.8,0,5,2.2,5,5v8C24,15.8,21.8,18,19,18z M5,2
		C3.3,2,2,3.3,2,5v8c0,1.7,1.3,3,3,3h14c1.7,0,3-1.3,3-3V5c0-1.7-1.3-3-3-3H5z"/>
</g>
<g>
	<rect x="9.6" y="5" class="st0" width="1.6" height="8.1"/>
	<rect x="12.8" y="5" class="st0" width="1.6" height="8.1"/>
</g>
</svg>
