<?xml version="1.0" encoding="utf-8"?>
<!-- Generator: Adobe Illustrator 21.0.2, SVG Export Plug-In . SVG Version: 6.00 Build 0)  -->
<svg version="1.1" id="Layer_1" xmlns="http://www.w3.org/2000/svg" xmlns:xlink="http://www.w3.org/1999/xlink" x="0px" y="0px"
	 viewBox="0 0 24 15.8" style="enable-background:new 0 0 24 15.8;" xml:space="preserve">
<style type="text/css">
	.st0{fill:#006F7F;}
</style>
<g>
	<g>
		<path class="st0" d="M24,14.6l-8-4.3V5.4l8-4.3V14.6z M18,9.1l4,2.1V4.5l-4,2.1V9.1z"/>
	</g>
	<g>
		<path class="st0" d="M15.2,15.8H2.8c-1.6,0-2.8-1.3-2.8-2.8V2.8C0,1.3,1.3,0,2.8,0h12.4C16.8,0,18,1.3,18,2.8v10.1
			C18,14.5,16.8,15.8,15.2,15.8z M2.8,2C2.4,2,2,2.4,2,2.8v10.1c0,0.5,0.4,0.8,0.8,0.8h12.4c0.5,0,0.8-0.4,0.8-0.8V2.8
			C16,2.4,15.7,2,15.2,2H2.8z"/>
	</g>
</g>
</svg>
