<?xml version="1.0" encoding="utf-8"?>
<!-- Generator: Adobe Illustrator 21.0.2, SVG Export Plug-In . SVG Version: 6.00 Build 0)  -->
<svg version="1.1" id="Layer_1" xmlns="http://www.w3.org/2000/svg" xmlns:xlink="http://www.w3.org/1999/xlink" x="0px" y="0px"
	 viewBox="0 0 57.2 63.2" style="enable-background:new 0 0 57.2 63.2;" xml:space="preserve">
<style type="text/css">
	.st0{clip-path:url(#SVGID_2_);fill:#414042;}
	.st1{clip-path:url(#SVGID_4_);fill:#414042;}
	.st2{clip-path:url(#SVGID_6_);fill:#403F41;}
	.st3{clip-path:url(#SVGID_8_);fill:#3F3E40;}
	.st4{clip-path:url(#SVGID_10_);fill:#3E3D3F;}
	.st5{clip-path:url(#SVGID_12_);fill:#3D3C3E;}
	.st6{clip-path:url(#SVGID_14_);fill:#3C3B3D;}
	.st7{clip-path:url(#SVGID_16_);fill:#3B3A3C;}
	.st8{clip-path:url(#SVGID_18_);fill:#3A393B;}
	.st9{clip-path:url(#SVGID_20_);fill:#39383A;}
	.st10{clip-path:url(#SVGID_22_);fill:#383739;}
	.st11{clip-path:url(#SVGID_24_);fill:#373638;}
	.st12{clip-path:url(#SVGID_26_);fill:#363537;}
	.st13{clip-path:url(#SVGID_28_);fill:#353436;}
	.st14{clip-path:url(#SVGID_30_);fill:#343335;}
	.st15{clip-path:url(#SVGID_32_);fill:#333234;}
	.st16{clip-path:url(#SVGID_34_);fill:#323133;}
	.st17{clip-path:url(#SVGID_36_);fill:#313032;}
	.st18{clip-path:url(#SVGID_38_);fill:#302F31;}
	.st19{clip-path:url(#SVGID_40_);fill:#2F2E30;}
	.st20{clip-path:url(#SVGID_42_);fill:#2E2D2F;}
	.st21{clip-path:url(#SVGID_44_);fill:#2D2C2E;}
	.st22{clip-path:url(#SVGID_46_);fill:#2C2B2D;}
	.st23{clip-path:url(#SVGID_48_);fill:#2B2A2C;}
	.st24{clip-path:url(#SVGID_50_);fill:#2A292B;}
	.st25{clip-path:url(#SVGID_52_);fill:#29282A;}
	.st26{clip-path:url(#SVGID_54_);fill:#282729;}
	.st27{clip-path:url(#SVGID_56_);fill:#272628;}
	.st28{clip-path:url(#SVGID_58_);fill:#262527;}
	.st29{clip-path:url(#SVGID_60_);fill:#252426;}
	.st30{clip-path:url(#SVGID_62_);fill:#242325;}
	.st31{clip-path:url(#SVGID_64_);fill:#232224;}
	.st32{clip-path:url(#SVGID_66_);fill:#222123;}
	.st33{clip-path:url(#SVGID_68_);fill:#212022;}
	.st34{clip-path:url(#SVGID_70_);fill:#202020;}
	.st35{clip-path:url(#SVGID_72_);fill:#1F1F1F;}
	.st36{clip-path:url(#SVGID_74_);fill:#1E1E1E;}
	.st37{clip-path:url(#SVGID_76_);fill:#1D1D1D;}
	.st38{clip-path:url(#SVGID_78_);fill:#1C1C1C;}
	.st39{clip-path:url(#SVGID_80_);fill:#1B1B1B;}
	.st40{clip-path:url(#SVGID_82_);fill:#1A1A1A;}
	.st41{clip-path:url(#SVGID_84_);fill:#191919;}
	.st42{clip-path:url(#SVGID_86_);fill:#181818;}
	.st43{clip-path:url(#SVGID_88_);fill:#171717;}
	.st44{clip-path:url(#SVGID_90_);fill:#161616;}
	.st45{clip-path:url(#SVGID_92_);fill:#151515;}
	.st46{clip-path:url(#SVGID_94_);fill:#141414;}
	.st47{clip-path:url(#SVGID_96_);fill:#131313;}
	.st48{clip-path:url(#SVGID_98_);fill:#121212;}
	.st49{clip-path:url(#SVGID_100_);fill:#111111;}
	.st50{clip-path:url(#SVGID_102_);fill:#101010;}
	.st51{clip-path:url(#SVGID_104_);fill:#0F0F0F;}
	.st52{clip-path:url(#SVGID_106_);fill:#0E0E0E;}
	.st53{clip-path:url(#SVGID_108_);fill:#0D0D0D;}
	.st54{clip-path:url(#SVGID_110_);fill:#0C0C0C;}
	.st55{clip-path:url(#SVGID_112_);fill:#0B0B0B;}
	.st56{clip-path:url(#SVGID_114_);fill:#0A0A0A;}
	.st57{clip-path:url(#SVGID_116_);fill:#090909;}
	.st58{clip-path:url(#SVGID_118_);fill:#080808;}
	.st59{clip-path:url(#SVGID_120_);fill:#070707;}
	.st60{clip-path:url(#SVGID_122_);fill:#060606;}
	.st61{clip-path:url(#SVGID_124_);fill:#050505;}
	.st62{clip-path:url(#SVGID_126_);fill:#040404;}
	.st63{clip-path:url(#SVGID_128_);fill:#030303;}
	.st64{clip-path:url(#SVGID_130_);fill:#020202;}
	.st65{clip-path:url(#SVGID_132_);fill:#010101;}
	.st66{clip-path:url(#SVGID_134_);}
	.st67{clip-path:url(#SVGID_136_);}
</style>
<g id="XMLID_376_">
	<g>
		<g>
			<g>
				<defs>
					<polygon id="SVGID_1_" points="1.4,63.2 57.2,62.4 43.3,12 22.5,0 0,32.6 					"/>
				</defs>
				<clipPath id="SVGID_2_">
					<use xlink:href="#SVGID_1_"  style="overflow:visible;"/>
				</clipPath>
				<path class="st0" d="M57.2,63.2v-0.8V63.2z"/>
			</g>
		</g>
		<g>
			<g>
				<defs>
					<polygon id="SVGID_3_" points="1.4,63.2 57.2,62.4 43.3,12 22.5,0 0,32.6 					"/>
				</defs>
				<clipPath id="SVGID_4_">
					<use xlink:href="#SVGID_3_"  style="overflow:visible;"/>
				</clipPath>
				<polygon class="st1" points="56.2,63.2 57.2,53.3 57.2,62.4 57.2,63.2 				"/>
			</g>
		</g>
		<g>
			<g>
				<defs>
					<polygon id="SVGID_5_" points="1.4,63.2 57.2,62.4 43.3,12 22.5,0 0,32.6 					"/>
				</defs>
				<clipPath id="SVGID_6_">
					<use xlink:href="#SVGID_5_"  style="overflow:visible;"/>
				</clipPath>
				<polygon class="st2" points="55.3,63.2 57.2,44.1 57.2,53.3 56.2,63.2 				"/>
			</g>
		</g>
		<g>
			<g>
				<defs>
					<polygon id="SVGID_7_" points="1.4,63.2 57.2,62.4 43.3,12 22.5,0 0,32.6 					"/>
				</defs>
				<clipPath id="SVGID_8_">
					<use xlink:href="#SVGID_7_"  style="overflow:visible;"/>
				</clipPath>
				<polygon class="st3" points="54.4,63.2 57.2,34.9 57.2,44.1 55.3,63.2 				"/>
			</g>
		</g>
		<g>
			<g>
				<defs>
					<polygon id="SVGID_9_" points="1.4,63.2 57.2,62.4 43.3,12 22.5,0 0,32.6 					"/>
				</defs>
				<clipPath id="SVGID_10_">
					<use xlink:href="#SVGID_9_"  style="overflow:visible;"/>
				</clipPath>
				<polygon class="st4" points="53.5,63.2 57.2,25.8 57.2,34.9 54.4,63.2 				"/>
			</g>
		</g>
		<g>
			<g>
				<defs>
					<polygon id="SVGID_11_" points="1.4,63.2 57.2,62.4 43.3,12 22.5,0 0,32.6 					"/>
				</defs>
				<clipPath id="SVGID_12_">
					<use xlink:href="#SVGID_11_"  style="overflow:visible;"/>
				</clipPath>
				<polygon class="st5" points="52.6,63.2 57.2,16.6 57.2,25.8 53.5,63.2 				"/>
			</g>
		</g>
		<g>
			<g>
				<defs>
					<polygon id="SVGID_13_" points="1.4,63.2 57.2,62.4 43.3,12 22.5,0 0,32.6 					"/>
				</defs>
				<clipPath id="SVGID_14_">
					<use xlink:href="#SVGID_13_"  style="overflow:visible;"/>
				</clipPath>
				<polygon class="st6" points="51.7,63.2 57.2,7.4 57.2,16.6 52.6,63.2 				"/>
			</g>
		</g>
		<g>
			<g>
				<defs>
					<polygon id="SVGID_15_" points="1.4,63.2 57.2,62.4 43.3,12 22.5,0 0,32.6 					"/>
				</defs>
				<clipPath id="SVGID_16_">
					<use xlink:href="#SVGID_15_"  style="overflow:visible;"/>
				</clipPath>
				<polygon class="st7" points="50.8,63.2 56.9,1.4 57.2,1.5 57.2,7.4 51.7,63.2 				"/>
			</g>
		</g>
		<g>
			<g>
				<defs>
					<polygon id="SVGID_17_" points="1.4,63.2 57.2,62.4 43.3,12 22.5,0 0,32.6 					"/>
				</defs>
				<clipPath id="SVGID_18_">
					<use xlink:href="#SVGID_17_"  style="overflow:visible;"/>
				</clipPath>
				<polygon class="st8" points="49.9,63.2 56,1.3 56.9,1.4 50.8,63.2 				"/>
			</g>
		</g>
		<g>
			<g>
				<defs>
					<polygon id="SVGID_19_" points="1.4,63.2 57.2,62.4 43.3,12 22.5,0 0,32.6 					"/>
				</defs>
				<clipPath id="SVGID_20_">
					<use xlink:href="#SVGID_19_"  style="overflow:visible;"/>
				</clipPath>
				<polygon class="st9" points="48.9,63.2 55.1,1.3 56,1.3 49.9,63.2 				"/>
			</g>
		</g>
		<g>
			<g>
				<defs>
					<polygon id="SVGID_21_" points="1.4,63.2 57.2,62.4 43.3,12 22.5,0 0,32.6 					"/>
				</defs>
				<clipPath id="SVGID_22_">
					<use xlink:href="#SVGID_21_"  style="overflow:visible;"/>
				</clipPath>
				<polygon class="st10" points="48,63.2 54.2,1.2 55.1,1.3 48.9,63.2 				"/>
			</g>
		</g>
		<g>
			<g>
				<defs>
					<polygon id="SVGID_23_" points="1.4,63.2 57.2,62.4 43.3,12 22.5,0 0,32.6 					"/>
				</defs>
				<clipPath id="SVGID_24_">
					<use xlink:href="#SVGID_23_"  style="overflow:visible;"/>
				</clipPath>
				<polygon class="st11" points="47.1,63.2 53.3,1.1 54.2,1.2 48,63.2 				"/>
			</g>
		</g>
		<g>
			<g>
				<defs>
					<polygon id="SVGID_25_" points="1.4,63.2 57.2,62.4 43.3,12 22.5,0 0,32.6 					"/>
				</defs>
				<clipPath id="SVGID_26_">
					<use xlink:href="#SVGID_25_"  style="overflow:visible;"/>
				</clipPath>
				<polygon class="st12" points="46.2,63.2 52.4,1 53.3,1.1 47.1,63.2 				"/>
			</g>
		</g>
		<g>
			<g>
				<defs>
					<polygon id="SVGID_27_" points="1.4,63.2 57.2,62.4 43.3,12 22.5,0 0,32.6 					"/>
				</defs>
				<clipPath id="SVGID_28_">
					<use xlink:href="#SVGID_27_"  style="overflow:visible;"/>
				</clipPath>
				<polygon class="st13" points="45.3,63.2 51.5,0.9 52.4,1 46.2,63.2 				"/>
			</g>
		</g>
		<g>
			<g>
				<defs>
					<polygon id="SVGID_29_" points="1.4,63.2 57.2,62.4 43.3,12 22.5,0 0,32.6 					"/>
				</defs>
				<clipPath id="SVGID_30_">
					<use xlink:href="#SVGID_29_"  style="overflow:visible;"/>
				</clipPath>
				<polygon class="st14" points="44.4,63.2 50.6,0.8 51.5,0.9 45.3,63.2 				"/>
			</g>
		</g>
		<g>
			<g>
				<defs>
					<polygon id="SVGID_31_" points="1.4,63.2 57.2,62.4 43.3,12 22.5,0 0,32.6 					"/>
				</defs>
				<clipPath id="SVGID_32_">
					<use xlink:href="#SVGID_31_"  style="overflow:visible;"/>
				</clipPath>
				<polygon class="st15" points="43.5,63.2 49.7,0.7 50.6,0.8 44.4,63.2 				"/>
			</g>
		</g>
		<g>
			<g>
				<defs>
					<polygon id="SVGID_33_" points="1.4,63.2 57.2,62.4 43.3,12 22.5,0 0,32.6 					"/>
				</defs>
				<clipPath id="SVGID_34_">
					<use xlink:href="#SVGID_33_"  style="overflow:visible;"/>
				</clipPath>
				<polygon class="st16" points="42.6,63.2 48.8,0.6 49.7,0.7 43.5,63.2 				"/>
			</g>
		</g>
		<g>
			<g>
				<defs>
					<polygon id="SVGID_35_" points="1.4,63.2 57.2,62.4 43.3,12 22.5,0 0,32.6 					"/>
				</defs>
				<clipPath id="SVGID_36_">
					<use xlink:href="#SVGID_35_"  style="overflow:visible;"/>
				</clipPath>
				<polygon class="st17" points="41.6,63.2 47.9,0.5 48.8,0.6 42.6,63.2 				"/>
			</g>
		</g>
		<g>
			<g>
				<defs>
					<polygon id="SVGID_37_" points="1.4,63.2 57.2,62.4 43.3,12 22.5,0 0,32.6 					"/>
				</defs>
				<clipPath id="SVGID_38_">
					<use xlink:href="#SVGID_37_"  style="overflow:visible;"/>
				</clipPath>
				<polygon class="st18" points="40.7,63.2 47,0.4 47.9,0.5 41.6,63.2 				"/>
			</g>
		</g>
		<g>
			<g>
				<defs>
					<polygon id="SVGID_39_" points="1.4,63.2 57.2,62.4 43.3,12 22.5,0 0,32.6 					"/>
				</defs>
				<clipPath id="SVGID_40_">
					<use xlink:href="#SVGID_39_"  style="overflow:visible;"/>
				</clipPath>
				<polygon class="st19" points="39.8,63.2 46.1,0.4 47,0.4 40.7,63.2 				"/>
			</g>
		</g>
		<g>
			<g>
				<defs>
					<polygon id="SVGID_41_" points="1.4,63.2 57.2,62.4 43.3,12 22.5,0 0,32.6 					"/>
				</defs>
				<clipPath id="SVGID_42_">
					<use xlink:href="#SVGID_41_"  style="overflow:visible;"/>
				</clipPath>
				<polygon class="st20" points="38.9,63.2 45.2,0.3 46.1,0.4 39.8,63.2 				"/>
			</g>
		</g>
		<g>
			<g>
				<defs>
					<polygon id="SVGID_43_" points="1.4,63.2 57.2,62.4 43.3,12 22.5,0 0,32.6 					"/>
				</defs>
				<clipPath id="SVGID_44_">
					<use xlink:href="#SVGID_43_"  style="overflow:visible;"/>
				</clipPath>
				<polygon class="st21" points="38,63.2 44.3,0.2 45.2,0.3 38.9,63.2 				"/>
			</g>
		</g>
		<g>
			<g>
				<defs>
					<polygon id="SVGID_45_" points="1.4,63.2 57.2,62.4 43.3,12 22.5,0 0,32.6 					"/>
				</defs>
				<clipPath id="SVGID_46_">
					<use xlink:href="#SVGID_45_"  style="overflow:visible;"/>
				</clipPath>
				<polygon class="st22" points="37.1,63.2 43.4,0.1 44.3,0.2 38,63.2 				"/>
			</g>
		</g>
		<g>
			<g>
				<defs>
					<polygon id="SVGID_47_" points="1.4,63.2 57.2,62.4 43.3,12 22.5,0 0,32.6 					"/>
				</defs>
				<clipPath id="SVGID_48_">
					<use xlink:href="#SVGID_47_"  style="overflow:visible;"/>
				</clipPath>
				<polygon class="st23" points="36.2,63.2 42.5,0 42.7,0 43.4,0.1 37.1,63.2 				"/>
			</g>
		</g>
		<g>
			<g>
				<defs>
					<polygon id="SVGID_49_" points="1.4,63.2 57.2,62.4 43.3,12 22.5,0 0,32.6 					"/>
				</defs>
				<clipPath id="SVGID_50_">
					<use xlink:href="#SVGID_49_"  style="overflow:visible;"/>
				</clipPath>
				<polygon class="st24" points="35.3,63.2 41.5,0 42.5,0 36.2,63.2 				"/>
			</g>
		</g>
		<g>
			<g>
				<defs>
					<polygon id="SVGID_51_" points="1.4,63.2 57.2,62.4 43.3,12 22.5,0 0,32.6 					"/>
				</defs>
				<clipPath id="SVGID_52_">
					<use xlink:href="#SVGID_51_"  style="overflow:visible;"/>
				</clipPath>
				<polygon class="st25" points="34.3,63.2 40.6,0 41.5,0 35.3,63.2 				"/>
			</g>
		</g>
		<g>
			<g>
				<defs>
					<polygon id="SVGID_53_" points="1.4,63.2 57.2,62.4 43.3,12 22.5,0 0,32.6 					"/>
				</defs>
				<clipPath id="SVGID_54_">
					<use xlink:href="#SVGID_53_"  style="overflow:visible;"/>
				</clipPath>
				<polygon class="st26" points="33.4,63.2 39.7,0 40.6,0 34.3,63.2 				"/>
			</g>
		</g>
		<g>
			<g>
				<defs>
					<polygon id="SVGID_55_" points="1.4,63.2 57.2,62.4 43.3,12 22.5,0 0,32.6 					"/>
				</defs>
				<clipPath id="SVGID_56_">
					<use xlink:href="#SVGID_55_"  style="overflow:visible;"/>
				</clipPath>
				<polygon class="st27" points="32.5,63.2 38.8,0 39.7,0 33.4,63.2 				"/>
			</g>
		</g>
		<g>
			<g>
				<defs>
					<polygon id="SVGID_57_" points="1.4,63.2 57.2,62.4 43.3,12 22.5,0 0,32.6 					"/>
				</defs>
				<clipPath id="SVGID_58_">
					<use xlink:href="#SVGID_57_"  style="overflow:visible;"/>
				</clipPath>
				<polygon class="st28" points="31.6,63.2 37.9,0 38.8,0 32.5,63.2 				"/>
			</g>
		</g>
		<g>
			<g>
				<defs>
					<polygon id="SVGID_59_" points="1.4,63.2 57.2,62.4 43.3,12 22.5,0 0,32.6 					"/>
				</defs>
				<clipPath id="SVGID_60_">
					<use xlink:href="#SVGID_59_"  style="overflow:visible;"/>
				</clipPath>
				<polygon class="st29" points="30.7,63.2 37,0 37.9,0 31.6,63.2 				"/>
			</g>
		</g>
		<g>
			<g>
				<defs>
					<polygon id="SVGID_61_" points="1.4,63.2 57.2,62.4 43.3,12 22.5,0 0,32.6 					"/>
				</defs>
				<clipPath id="SVGID_62_">
					<use xlink:href="#SVGID_61_"  style="overflow:visible;"/>
				</clipPath>
				<polygon class="st30" points="29.8,63.2 36.1,0 37,0 30.7,63.2 				"/>
			</g>
		</g>
		<g>
			<g>
				<defs>
					<polygon id="SVGID_63_" points="1.4,63.2 57.2,62.4 43.3,12 22.5,0 0,32.6 					"/>
				</defs>
				<clipPath id="SVGID_64_">
					<use xlink:href="#SVGID_63_"  style="overflow:visible;"/>
				</clipPath>
				<polygon class="st31" points="28.9,63.2 35.2,0 36.1,0 29.8,63.2 				"/>
			</g>
		</g>
		<g>
			<g>
				<defs>
					<polygon id="SVGID_65_" points="1.4,63.2 57.2,62.4 43.3,12 22.5,0 0,32.6 					"/>
				</defs>
				<clipPath id="SVGID_66_">
					<use xlink:href="#SVGID_65_"  style="overflow:visible;"/>
				</clipPath>
				<polygon class="st32" points="28,63.2 34.2,0 35.2,0 28.9,63.2 				"/>
			</g>
		</g>
		<g>
			<g>
				<defs>
					<polygon id="SVGID_67_" points="1.4,63.2 57.2,62.4 43.3,12 22.5,0 0,32.6 					"/>
				</defs>
				<clipPath id="SVGID_68_">
					<use xlink:href="#SVGID_67_"  style="overflow:visible;"/>
				</clipPath>
				<polygon class="st33" points="27,63.2 33.3,0 34.2,0 28,63.2 				"/>
			</g>
		</g>
		<g>
			<g>
				<defs>
					<polygon id="SVGID_69_" points="1.4,63.2 57.2,62.4 43.3,12 22.5,0 0,32.6 					"/>
				</defs>
				<clipPath id="SVGID_70_">
					<use xlink:href="#SVGID_69_"  style="overflow:visible;"/>
				</clipPath>
				<polygon class="st34" points="26.1,63.2 32.4,0 33.3,0 27,63.2 				"/>
			</g>
		</g>
		<g>
			<g>
				<defs>
					<polygon id="SVGID_71_" points="1.4,63.2 57.2,62.4 43.3,12 22.5,0 0,32.6 					"/>
				</defs>
				<clipPath id="SVGID_72_">
					<use xlink:href="#SVGID_71_"  style="overflow:visible;"/>
				</clipPath>
				<polygon class="st35" points="25.2,63.2 31.5,0 32.4,0 26.1,63.2 				"/>
			</g>
		</g>
		<g>
			<g>
				<defs>
					<polygon id="SVGID_73_" points="1.4,63.2 57.2,62.4 43.3,12 22.5,0 0,32.6 					"/>
				</defs>
				<clipPath id="SVGID_74_">
					<use xlink:href="#SVGID_73_"  style="overflow:visible;"/>
				</clipPath>
				<polygon class="st36" points="24.3,63.2 30.6,0 31.5,0 25.2,63.2 				"/>
			</g>
		</g>
		<g>
			<g>
				<defs>
					<polygon id="SVGID_75_" points="1.4,63.2 57.2,62.4 43.3,12 22.5,0 0,32.6 					"/>
				</defs>
				<clipPath id="SVGID_76_">
					<use xlink:href="#SVGID_75_"  style="overflow:visible;"/>
				</clipPath>
				<polygon class="st37" points="23.4,63.2 29.7,0 30.6,0 24.3,63.2 				"/>
			</g>
		</g>
		<g>
			<g>
				<defs>
					<polygon id="SVGID_77_" points="1.4,63.2 57.2,62.4 43.3,12 22.5,0 0,32.6 					"/>
				</defs>
				<clipPath id="SVGID_78_">
					<use xlink:href="#SVGID_77_"  style="overflow:visible;"/>
				</clipPath>
				<polygon class="st38" points="22.5,63.2 28.8,0 29.7,0 23.4,63.2 				"/>
			</g>
		</g>
		<g>
			<g>
				<defs>
					<polygon id="SVGID_79_" points="1.4,63.2 57.2,62.4 43.3,12 22.5,0 0,32.6 					"/>
				</defs>
				<clipPath id="SVGID_80_">
					<use xlink:href="#SVGID_79_"  style="overflow:visible;"/>
				</clipPath>
				<polygon class="st39" points="21.6,63.2 27.9,0 28.8,0 22.5,63.2 				"/>
			</g>
		</g>
		<g>
			<g>
				<defs>
					<polygon id="SVGID_81_" points="1.4,63.2 57.2,62.4 43.3,12 22.5,0 0,32.6 					"/>
				</defs>
				<clipPath id="SVGID_82_">
					<use xlink:href="#SVGID_81_"  style="overflow:visible;"/>
				</clipPath>
				<polygon class="st40" points="20.7,63.2 26.9,0 27.9,0 21.6,63.2 				"/>
			</g>
		</g>
		<g>
			<g>
				<defs>
					<polygon id="SVGID_83_" points="1.4,63.2 57.2,62.4 43.3,12 22.5,0 0,32.6 					"/>
				</defs>
				<clipPath id="SVGID_84_">
					<use xlink:href="#SVGID_83_"  style="overflow:visible;"/>
				</clipPath>
				<polygon class="st41" points="19.7,63.2 26,0 26.9,0 20.7,63.2 				"/>
			</g>
		</g>
		<g>
			<g>
				<defs>
					<polygon id="SVGID_85_" points="1.4,63.2 57.2,62.4 43.3,12 22.5,0 0,32.6 					"/>
				</defs>
				<clipPath id="SVGID_86_">
					<use xlink:href="#SVGID_85_"  style="overflow:visible;"/>
				</clipPath>
				<polygon class="st42" points="18.8,63.2 25.1,0 26,0 19.7,63.2 				"/>
			</g>
		</g>
		<g>
			<g>
				<defs>
					<polygon id="SVGID_87_" points="1.4,63.2 57.2,62.4 43.3,12 22.5,0 0,32.6 					"/>
				</defs>
				<clipPath id="SVGID_88_">
					<use xlink:href="#SVGID_87_"  style="overflow:visible;"/>
				</clipPath>
				<polygon class="st43" points="17.9,63.2 24.2,0 25.1,0 18.8,63.2 				"/>
			</g>
		</g>
		<g>
			<g>
				<defs>
					<polygon id="SVGID_89_" points="1.4,63.2 57.2,62.4 43.3,12 22.5,0 0,32.6 					"/>
				</defs>
				<clipPath id="SVGID_90_">
					<use xlink:href="#SVGID_89_"  style="overflow:visible;"/>
				</clipPath>
				<polygon class="st44" points="17,63.2 23.3,0 24.2,0 17.9,63.2 				"/>
			</g>
		</g>
		<g>
			<g>
				<defs>
					<polygon id="SVGID_91_" points="1.4,63.2 57.2,62.4 43.3,12 22.5,0 0,32.6 					"/>
				</defs>
				<clipPath id="SVGID_92_">
					<use xlink:href="#SVGID_91_"  style="overflow:visible;"/>
				</clipPath>
				<polygon class="st45" points="16.1,63.2 22.4,0 23.3,0 17,63.2 				"/>
			</g>
		</g>
		<g>
			<g>
				<defs>
					<polygon id="SVGID_93_" points="1.4,63.2 57.2,62.4 43.3,12 22.5,0 0,32.6 					"/>
				</defs>
				<clipPath id="SVGID_94_">
					<use xlink:href="#SVGID_93_"  style="overflow:visible;"/>
				</clipPath>
				<polygon class="st46" points="15.2,63.2 21.5,0 22.4,0 16.1,63.2 				"/>
			</g>
		</g>
		<g>
			<g>
				<defs>
					<polygon id="SVGID_95_" points="1.4,63.2 57.2,62.4 43.3,12 22.5,0 0,32.6 					"/>
				</defs>
				<clipPath id="SVGID_96_">
					<use xlink:href="#SVGID_95_"  style="overflow:visible;"/>
				</clipPath>
				<polygon class="st47" points="14.3,63.2 20.6,0 21.5,0 15.2,63.2 				"/>
			</g>
		</g>
		<g>
			<g>
				<defs>
					<polygon id="SVGID_97_" points="1.4,63.2 57.2,62.4 43.3,12 22.5,0 0,32.6 					"/>
				</defs>
				<clipPath id="SVGID_98_">
					<use xlink:href="#SVGID_97_"  style="overflow:visible;"/>
				</clipPath>
				<polygon class="st48" points="13.4,63.2 19.6,0 20.6,0 14.3,63.2 				"/>
			</g>
		</g>
		<g>
			<g>
				<defs>
					<polygon id="SVGID_99_" points="1.4,63.2 57.2,62.4 43.3,12 22.5,0 0,32.6 					"/>
				</defs>
				<clipPath id="SVGID_100_">
					<use xlink:href="#SVGID_99_"  style="overflow:visible;"/>
				</clipPath>
				<polygon class="st49" points="12.4,63.2 18.7,0 19.6,0 13.4,63.2 				"/>
			</g>
		</g>
		<g>
			<g>
				<defs>
					<polygon id="SVGID_101_" points="1.4,63.2 57.2,62.4 43.3,12 22.5,0 0,32.6 					"/>
				</defs>
				<clipPath id="SVGID_102_">
					<use xlink:href="#SVGID_101_"  style="overflow:visible;"/>
				</clipPath>
				<polygon class="st50" points="11.5,63.2 17.8,0 18.7,0 12.4,63.2 				"/>
			</g>
		</g>
		<g>
			<g>
				<defs>
					<polygon id="SVGID_103_" points="1.4,63.2 57.2,62.4 43.3,12 22.5,0 0,32.6 					"/>
				</defs>
				<clipPath id="SVGID_104_">
					<use xlink:href="#SVGID_103_"  style="overflow:visible;"/>
				</clipPath>
				<polygon class="st51" points="10.6,63.2 16.9,0 17.8,0 11.5,63.2 				"/>
			</g>
		</g>
		<g>
			<g>
				<defs>
					<polygon id="SVGID_105_" points="1.4,63.2 57.2,62.4 43.3,12 22.5,0 0,32.6 					"/>
				</defs>
				<clipPath id="SVGID_106_">
					<use xlink:href="#SVGID_105_"  style="overflow:visible;"/>
				</clipPath>
				<polygon class="st52" points="9.7,63.2 16,0 16.9,0 10.6,63.2 				"/>
			</g>
		</g>
		<g>
			<g>
				<defs>
					<polygon id="SVGID_107_" points="1.4,63.2 57.2,62.4 43.3,12 22.5,0 0,32.6 					"/>
				</defs>
				<clipPath id="SVGID_108_">
					<use xlink:href="#SVGID_107_"  style="overflow:visible;"/>
				</clipPath>
				<polygon class="st53" points="8.8,63.2 15.1,0 16,0 9.7,63.2 				"/>
			</g>
		</g>
		<g>
			<g>
				<defs>
					<polygon id="SVGID_109_" points="1.4,63.2 57.2,62.4 43.3,12 22.5,0 0,32.6 					"/>
				</defs>
				<clipPath id="SVGID_110_">
					<use xlink:href="#SVGID_109_"  style="overflow:visible;"/>
				</clipPath>
				<polygon class="st54" points="7.9,63.2 14.2,0 15.1,0 8.8,63.2 				"/>
			</g>
		</g>
		<g>
			<g>
				<defs>
					<polygon id="SVGID_111_" points="1.4,63.2 57.2,62.4 43.3,12 22.5,0 0,32.6 					"/>
				</defs>
				<clipPath id="SVGID_112_">
					<use xlink:href="#SVGID_111_"  style="overflow:visible;"/>
				</clipPath>
				<polygon class="st55" points="7,63.2 13.3,0 14.2,0 7.9,63.2 				"/>
			</g>
		</g>
		<g>
			<g>
				<defs>
					<polygon id="SVGID_113_" points="1.4,63.2 57.2,62.4 43.3,12 22.5,0 0,32.6 					"/>
				</defs>
				<clipPath id="SVGID_114_">
					<use xlink:href="#SVGID_113_"  style="overflow:visible;"/>
				</clipPath>
				<polygon class="st56" points="6.1,63.2 12.3,0 13.3,0 7,63.2 				"/>
			</g>
		</g>
		<g>
			<g>
				<defs>
					<polygon id="SVGID_115_" points="1.4,63.2 57.2,62.4 43.3,12 22.5,0 0,32.6 					"/>
				</defs>
				<clipPath id="SVGID_116_">
					<use xlink:href="#SVGID_115_"  style="overflow:visible;"/>
				</clipPath>
				<polygon class="st57" points="5.1,63.2 11.4,0 12.3,0 6.1,63.2 				"/>
			</g>
		</g>
		<g>
			<g>
				<defs>
					<polygon id="SVGID_117_" points="1.4,63.2 57.2,62.4 43.3,12 22.5,0 0,32.6 					"/>
				</defs>
				<clipPath id="SVGID_118_">
					<use xlink:href="#SVGID_117_"  style="overflow:visible;"/>
				</clipPath>
				<polygon class="st58" points="4.2,63.2 10.5,0 11.4,0 5.1,63.2 				"/>
			</g>
		</g>
		<g>
			<g>
				<defs>
					<polygon id="SVGID_119_" points="1.4,63.2 57.2,62.4 43.3,12 22.5,0 0,32.6 					"/>
				</defs>
				<clipPath id="SVGID_120_">
					<use xlink:href="#SVGID_119_"  style="overflow:visible;"/>
				</clipPath>
				<polygon class="st59" points="3.3,63.2 9.6,0 10.5,0 4.2,63.2 				"/>
			</g>
		</g>
		<g>
			<g>
				<defs>
					<polygon id="SVGID_121_" points="1.4,63.2 57.2,62.4 43.3,12 22.5,0 0,32.6 					"/>
				</defs>
				<clipPath id="SVGID_122_">
					<use xlink:href="#SVGID_121_"  style="overflow:visible;"/>
				</clipPath>
				<polygon class="st60" points="2.4,63.2 8.7,0 9.6,0 3.3,63.2 				"/>
			</g>
		</g>
		<g>
			<g>
				<defs>
					<polygon id="SVGID_123_" points="1.4,63.2 57.2,62.4 43.3,12 22.5,0 0,32.6 					"/>
				</defs>
				<clipPath id="SVGID_124_">
					<use xlink:href="#SVGID_123_"  style="overflow:visible;"/>
				</clipPath>
				<polygon class="st61" points="1.5,63.2 7.8,0 8.7,0 2.4,63.2 				"/>
			</g>
		</g>
		<g>
			<g>
				<defs>
					<polygon id="SVGID_125_" points="1.4,63.2 57.2,62.4 43.3,12 22.5,0 0,32.6 					"/>
				</defs>
				<clipPath id="SVGID_126_">
					<use xlink:href="#SVGID_125_"  style="overflow:visible;"/>
				</clipPath>
				<polygon class="st62" points="0.6,63.2 6.9,0 7.8,0 1.5,63.2 				"/>
			</g>
		</g>
		<g>
			<g>
				<defs>
					<polygon id="SVGID_127_" points="1.4,63.2 57.2,62.4 43.3,12 22.5,0 0,32.6 					"/>
				</defs>
				<clipPath id="SVGID_128_">
					<use xlink:href="#SVGID_127_"  style="overflow:visible;"/>
				</clipPath>
				<polygon class="st63" points="0,60.1 6,0 6.9,0 0.6,63.2 0,63.2 				"/>
			</g>
		</g>
		<g>
			<g>
				<defs>
					<polygon id="SVGID_129_" points="1.4,63.2 57.2,62.4 43.3,12 22.5,0 0,32.6 					"/>
				</defs>
				<clipPath id="SVGID_130_">
					<use xlink:href="#SVGID_129_"  style="overflow:visible;"/>
				</clipPath>
				<polygon class="st64" points="0,51 5,0 6,0 0,60.1 				"/>
			</g>
		</g>
		<g>
			<g>
				<defs>
					<polygon id="SVGID_131_" points="1.4,63.2 57.2,62.4 43.3,12 22.5,0 0,32.6 					"/>
				</defs>
				<clipPath id="SVGID_132_">
					<use xlink:href="#SVGID_131_"  style="overflow:visible;"/>
				</clipPath>
				<polygon class="st65" points="0,41.8 4.1,0 5,0 0,51 				"/>
			</g>
		</g>
		<g>
			<g>
				<defs>
					<polygon id="SVGID_133_" points="1.4,63.2 57.2,62.4 43.3,12 22.5,0 0,32.6 					"/>
				</defs>
				<clipPath id="SVGID_134_">
					<use xlink:href="#SVGID_133_"  style="overflow:visible;"/>
				</clipPath>
				<polygon class="st66" points="0,32.6 3.2,0 4.1,0 0,41.8 				"/>
			</g>
		</g>
		<g>
			<g>
				<defs>
					<polygon id="SVGID_135_" points="1.4,63.2 57.2,62.4 43.3,12 22.5,0 0,32.6 					"/>
				</defs>
				<clipPath id="SVGID_136_">
					<use xlink:href="#SVGID_135_"  style="overflow:visible;"/>
				</clipPath>
				<polygon class="st67" points="3.2,0 0,32.6 0,0 				"/>
			</g>
		</g>
	</g>
</g>
</svg>
