<?xml version="1.0" encoding="utf-8"?>
<!-- Generator: Adobe Illustrator 21.0.2, SVG Export Plug-In . SVG Version: 6.00 Build 0)  -->
<svg version="1.1" id="Layer_1" xmlns="http://www.w3.org/2000/svg" xmlns:xlink="http://www.w3.org/1999/xlink" x="0px" y="0px"
	 viewBox="0 0 75.1 101.2" style="enable-background:new 0 0 75.1 101.2;" xml:space="preserve">
<style type="text/css">
	.st0{clip-path:url(#SVGID_2_);fill:#414042;}
	.st1{clip-path:url(#SVGID_4_);fill:#414042;}
	.st2{clip-path:url(#SVGID_6_);fill:#403F41;}
	.st3{clip-path:url(#SVGID_8_);fill:#3F3E40;}
	.st4{clip-path:url(#SVGID_10_);fill:#3E3D3F;}
	.st5{clip-path:url(#SVGID_12_);fill:#3D3C3E;}
	.st6{clip-path:url(#SVGID_14_);fill:#3C3B3D;}
	.st7{clip-path:url(#SVGID_16_);fill:#3B3A3C;}
	.st8{clip-path:url(#SVGID_18_);fill:#3A393B;}
	.st9{clip-path:url(#SVGID_20_);fill:#39383A;}
	.st10{clip-path:url(#SVGID_22_);fill:#383739;}
	.st11{clip-path:url(#SVGID_24_);fill:#373638;}
	.st12{clip-path:url(#SVGID_26_);fill:#363537;}
	.st13{clip-path:url(#SVGID_28_);fill:#353436;}
	.st14{clip-path:url(#SVGID_30_);fill:#343335;}
	.st15{clip-path:url(#SVGID_32_);fill:#333234;}
	.st16{clip-path:url(#SVGID_34_);fill:#323133;}
	.st17{clip-path:url(#SVGID_36_);fill:#313032;}
	.st18{clip-path:url(#SVGID_38_);fill:#302F31;}
	.st19{clip-path:url(#SVGID_40_);fill:#2F2E30;}
	.st20{clip-path:url(#SVGID_42_);fill:#2E2D2F;}
	.st21{clip-path:url(#SVGID_44_);fill:#2D2C2E;}
	.st22{clip-path:url(#SVGID_46_);fill:#2C2B2D;}
	.st23{clip-path:url(#SVGID_48_);fill:#2B2A2C;}
	.st24{clip-path:url(#SVGID_50_);fill:#2A292B;}
	.st25{clip-path:url(#SVGID_52_);fill:#29282A;}
	.st26{clip-path:url(#SVGID_54_);fill:#282729;}
	.st27{clip-path:url(#SVGID_56_);fill:#272628;}
	.st28{clip-path:url(#SVGID_58_);fill:#262527;}
	.st29{clip-path:url(#SVGID_60_);fill:#252426;}
	.st30{clip-path:url(#SVGID_62_);fill:#242325;}
	.st31{clip-path:url(#SVGID_64_);fill:#232224;}
	.st32{clip-path:url(#SVGID_66_);fill:#222123;}
	.st33{clip-path:url(#SVGID_68_);fill:#212022;}
	.st34{clip-path:url(#SVGID_70_);fill:#202020;}
	.st35{clip-path:url(#SVGID_72_);fill:#1F1F1F;}
	.st36{clip-path:url(#SVGID_74_);fill:#1E1E1E;}
	.st37{clip-path:url(#SVGID_76_);fill:#1D1D1D;}
	.st38{clip-path:url(#SVGID_78_);fill:#1C1C1C;}
	.st39{clip-path:url(#SVGID_80_);fill:#1B1B1B;}
	.st40{clip-path:url(#SVGID_82_);fill:#1A1A1A;}
	.st41{clip-path:url(#SVGID_84_);fill:#191919;}
	.st42{clip-path:url(#SVGID_86_);fill:#181818;}
	.st43{clip-path:url(#SVGID_88_);fill:#171717;}
	.st44{clip-path:url(#SVGID_90_);fill:#161616;}
	.st45{clip-path:url(#SVGID_92_);fill:#151515;}
	.st46{clip-path:url(#SVGID_94_);fill:#141414;}
	.st47{clip-path:url(#SVGID_96_);fill:#131313;}
	.st48{clip-path:url(#SVGID_98_);fill:#121212;}
	.st49{clip-path:url(#SVGID_100_);fill:#111111;}
	.st50{clip-path:url(#SVGID_102_);fill:#101010;}
	.st51{clip-path:url(#SVGID_104_);fill:#0F0F0F;}
	.st52{clip-path:url(#SVGID_106_);fill:#0E0E0E;}
	.st53{clip-path:url(#SVGID_108_);fill:#0D0D0D;}
	.st54{clip-path:url(#SVGID_110_);fill:#0C0C0C;}
	.st55{clip-path:url(#SVGID_112_);fill:#0B0B0B;}
	.st56{clip-path:url(#SVGID_114_);fill:#0A0A0A;}
	.st57{clip-path:url(#SVGID_116_);fill:#090909;}
	.st58{clip-path:url(#SVGID_118_);fill:#080808;}
	.st59{clip-path:url(#SVGID_120_);fill:#070707;}
	.st60{clip-path:url(#SVGID_122_);fill:#060606;}
	.st61{clip-path:url(#SVGID_124_);fill:#050505;}
	.st62{clip-path:url(#SVGID_126_);fill:#040404;}
	.st63{clip-path:url(#SVGID_128_);fill:#030303;}
	.st64{clip-path:url(#SVGID_130_);fill:#020202;}
	.st65{clip-path:url(#SVGID_132_);fill:#010101;}
	.st66{clip-path:url(#SVGID_134_);}
	.st67{clip-path:url(#SVGID_136_);}
</style>
<g id="XMLID_357_">
	<g>
		<g>
			<g>
				<defs>
					<polygon id="SVGID_1_" points="59.5,101.2 75.1,75.4 67.9,1.1 18.9,0 0,9.8 					"/>
				</defs>
				<clipPath id="SVGID_2_">
					<use xlink:href="#SVGID_1_"  style="overflow:visible;"/>
				</clipPath>
				<polygon class="st0" points="0,9.8 44.4,101.2 0,101.2 				"/>
			</g>
		</g>
		<g>
			<g>
				<defs>
					<polygon id="SVGID_3_" points="59.5,101.2 75.1,75.4 67.9,1.1 18.9,0 0,9.8 					"/>
				</defs>
				<clipPath id="SVGID_4_">
					<use xlink:href="#SVGID_3_"  style="overflow:visible;"/>
				</clipPath>
				<polygon class="st1" points="0,7.5 45.5,101.2 44.4,101.2 0,9.8 				"/>
			</g>
		</g>
		<g>
			<g>
				<defs>
					<polygon id="SVGID_5_" points="59.5,101.2 75.1,75.4 67.9,1.1 18.9,0 0,9.8 					"/>
				</defs>
				<clipPath id="SVGID_6_">
					<use xlink:href="#SVGID_5_"  style="overflow:visible;"/>
				</clipPath>
				<polygon class="st2" points="0,7 0.7,6.6 46.6,101.2 45.5,101.2 0,7.5 				"/>
			</g>
		</g>
		<g>
			<g>
				<defs>
					<polygon id="SVGID_7_" points="59.5,101.2 75.1,75.4 67.9,1.1 18.9,0 0,9.8 					"/>
				</defs>
				<clipPath id="SVGID_8_">
					<use xlink:href="#SVGID_7_"  style="overflow:visible;"/>
				</clipPath>
				<polygon class="st3" points="0.7,6.6 1.6,6.2 47.7,101.2 46.6,101.2 				"/>
			</g>
		</g>
		<g>
			<g>
				<defs>
					<polygon id="SVGID_9_" points="59.5,101.2 75.1,75.4 67.9,1.1 18.9,0 0,9.8 					"/>
				</defs>
				<clipPath id="SVGID_10_">
					<use xlink:href="#SVGID_9_"  style="overflow:visible;"/>
				</clipPath>
				<polygon class="st4" points="1.6,6.2 2.4,5.8 48.8,101.2 47.7,101.2 				"/>
			</g>
		</g>
		<g>
			<g>
				<defs>
					<polygon id="SVGID_11_" points="59.5,101.2 75.1,75.4 67.9,1.1 18.9,0 0,9.8 					"/>
				</defs>
				<clipPath id="SVGID_12_">
					<use xlink:href="#SVGID_11_"  style="overflow:visible;"/>
				</clipPath>
				<polygon class="st5" points="2.4,5.8 3.3,5.3 49.9,101.2 48.8,101.2 				"/>
			</g>
		</g>
		<g>
			<g>
				<defs>
					<polygon id="SVGID_13_" points="59.5,101.2 75.1,75.4 67.9,1.1 18.9,0 0,9.8 					"/>
				</defs>
				<clipPath id="SVGID_14_">
					<use xlink:href="#SVGID_13_"  style="overflow:visible;"/>
				</clipPath>
				<polygon class="st6" points="3.3,5.3 4.2,4.9 51,101.2 49.9,101.2 				"/>
			</g>
		</g>
		<g>
			<g>
				<defs>
					<polygon id="SVGID_15_" points="59.5,101.2 75.1,75.4 67.9,1.1 18.9,0 0,9.8 					"/>
				</defs>
				<clipPath id="SVGID_16_">
					<use xlink:href="#SVGID_15_"  style="overflow:visible;"/>
				</clipPath>
				<polygon class="st7" points="4.2,4.9 5.1,4.5 52,101.2 51,101.2 				"/>
			</g>
		</g>
		<g>
			<g>
				<defs>
					<polygon id="SVGID_17_" points="59.5,101.2 75.1,75.4 67.9,1.1 18.9,0 0,9.8 					"/>
				</defs>
				<clipPath id="SVGID_18_">
					<use xlink:href="#SVGID_17_"  style="overflow:visible;"/>
				</clipPath>
				<polygon class="st8" points="5.1,4.5 6,4.1 53.1,101.2 52,101.2 				"/>
			</g>
		</g>
		<g>
			<g>
				<defs>
					<polygon id="SVGID_19_" points="59.5,101.2 75.1,75.4 67.9,1.1 18.9,0 0,9.8 					"/>
				</defs>
				<clipPath id="SVGID_20_">
					<use xlink:href="#SVGID_19_"  style="overflow:visible;"/>
				</clipPath>
				<polygon class="st9" points="6,4.1 6.9,3.6 54.2,101.2 53.1,101.2 				"/>
			</g>
		</g>
		<g>
			<g>
				<defs>
					<polygon id="SVGID_21_" points="59.5,101.2 75.1,75.4 67.9,1.1 18.9,0 0,9.8 					"/>
				</defs>
				<clipPath id="SVGID_22_">
					<use xlink:href="#SVGID_21_"  style="overflow:visible;"/>
				</clipPath>
				<polygon class="st10" points="6.9,3.6 7.8,3.2 55.3,101.2 54.2,101.2 				"/>
			</g>
		</g>
		<g>
			<g>
				<defs>
					<polygon id="SVGID_23_" points="59.5,101.2 75.1,75.4 67.9,1.1 18.9,0 0,9.8 					"/>
				</defs>
				<clipPath id="SVGID_24_">
					<use xlink:href="#SVGID_23_"  style="overflow:visible;"/>
				</clipPath>
				<polygon class="st11" points="7.8,3.2 8.6,2.8 56.4,101.2 55.3,101.2 				"/>
			</g>
		</g>
		<g>
			<g>
				<defs>
					<polygon id="SVGID_25_" points="59.5,101.2 75.1,75.4 67.9,1.1 18.9,0 0,9.8 					"/>
				</defs>
				<clipPath id="SVGID_26_">
					<use xlink:href="#SVGID_25_"  style="overflow:visible;"/>
				</clipPath>
				<polygon class="st12" points="8.6,2.8 9.5,2.3 57.5,101.2 56.4,101.2 				"/>
			</g>
		</g>
		<g>
			<g>
				<defs>
					<polygon id="SVGID_27_" points="59.5,101.2 75.1,75.4 67.9,1.1 18.9,0 0,9.8 					"/>
				</defs>
				<clipPath id="SVGID_28_">
					<use xlink:href="#SVGID_27_"  style="overflow:visible;"/>
				</clipPath>
				<polygon class="st13" points="9.5,2.3 10.4,1.9 58.6,101.2 57.5,101.2 				"/>
			</g>
		</g>
		<g>
			<g>
				<defs>
					<polygon id="SVGID_29_" points="59.5,101.2 75.1,75.4 67.9,1.1 18.9,0 0,9.8 					"/>
				</defs>
				<clipPath id="SVGID_30_">
					<use xlink:href="#SVGID_29_"  style="overflow:visible;"/>
				</clipPath>
				<polygon class="st14" points="10.4,1.9 11.3,1.5 59.7,101.2 58.6,101.2 				"/>
			</g>
		</g>
		<g>
			<g>
				<defs>
					<polygon id="SVGID_31_" points="59.5,101.2 75.1,75.4 67.9,1.1 18.9,0 0,9.8 					"/>
				</defs>
				<clipPath id="SVGID_32_">
					<use xlink:href="#SVGID_31_"  style="overflow:visible;"/>
				</clipPath>
				<polygon class="st15" points="11.3,1.5 12.2,1.1 60.8,101.2 59.7,101.2 				"/>
			</g>
		</g>
		<g>
			<g>
				<defs>
					<polygon id="SVGID_33_" points="59.5,101.2 75.1,75.4 67.9,1.1 18.9,0 0,9.8 					"/>
				</defs>
				<clipPath id="SVGID_34_">
					<use xlink:href="#SVGID_33_"  style="overflow:visible;"/>
				</clipPath>
				<polygon class="st16" points="12.2,1.1 13.1,0.6 61.9,101.2 60.8,101.2 				"/>
			</g>
		</g>
		<g>
			<g>
				<defs>
					<polygon id="SVGID_35_" points="59.5,101.2 75.1,75.4 67.9,1.1 18.9,0 0,9.8 					"/>
				</defs>
				<clipPath id="SVGID_36_">
					<use xlink:href="#SVGID_35_"  style="overflow:visible;"/>
				</clipPath>
				<polygon class="st17" points="13.1,0.6 13.9,0.2 63,101.2 61.9,101.2 				"/>
			</g>
		</g>
		<g>
			<g>
				<defs>
					<polygon id="SVGID_37_" points="59.5,101.2 75.1,75.4 67.9,1.1 18.9,0 0,9.8 					"/>
				</defs>
				<clipPath id="SVGID_38_">
					<use xlink:href="#SVGID_37_"  style="overflow:visible;"/>
				</clipPath>
				<polygon class="st18" points="13.9,0.2 14.3,0 15,0 64.1,101.2 64.1,101.2 63,101.2 				"/>
			</g>
		</g>
		<g>
			<g>
				<defs>
					<polygon id="SVGID_39_" points="59.5,101.2 75.1,75.4 67.9,1.1 18.9,0 0,9.8 					"/>
				</defs>
				<clipPath id="SVGID_40_">
					<use xlink:href="#SVGID_39_"  style="overflow:visible;"/>
				</clipPath>
				<polygon class="st19" points="16.1,0 64.9,100.8 64.1,101.2 15,0 				"/>
			</g>
		</g>
		<g>
			<g>
				<defs>
					<polygon id="SVGID_41_" points="59.5,101.2 75.1,75.4 67.9,1.1 18.9,0 0,9.8 					"/>
				</defs>
				<clipPath id="SVGID_42_">
					<use xlink:href="#SVGID_41_"  style="overflow:visible;"/>
				</clipPath>
				<polygon class="st20" points="17.1,0 65.8,100.3 64.9,100.8 16.1,0 				"/>
			</g>
		</g>
		<g>
			<g>
				<defs>
					<polygon id="SVGID_43_" points="59.5,101.2 75.1,75.4 67.9,1.1 18.9,0 0,9.8 					"/>
				</defs>
				<clipPath id="SVGID_44_">
					<use xlink:href="#SVGID_43_"  style="overflow:visible;"/>
				</clipPath>
				<polygon class="st21" points="18.2,0 66.7,99.9 65.8,100.3 17.1,0 				"/>
			</g>
		</g>
		<g>
			<g>
				<defs>
					<polygon id="SVGID_45_" points="59.5,101.2 75.1,75.4 67.9,1.1 18.9,0 0,9.8 					"/>
				</defs>
				<clipPath id="SVGID_46_">
					<use xlink:href="#SVGID_45_"  style="overflow:visible;"/>
				</clipPath>
				<polygon class="st22" points="19.3,0 67.6,99.5 66.7,99.9 18.2,0 				"/>
			</g>
		</g>
		<g>
			<g>
				<defs>
					<polygon id="SVGID_47_" points="59.5,101.2 75.1,75.4 67.9,1.1 18.9,0 0,9.8 					"/>
				</defs>
				<clipPath id="SVGID_48_">
					<use xlink:href="#SVGID_47_"  style="overflow:visible;"/>
				</clipPath>
				<polygon class="st23" points="20.4,0 68.5,99 67.6,99.5 19.3,0 				"/>
			</g>
		</g>
		<g>
			<g>
				<defs>
					<polygon id="SVGID_49_" points="59.5,101.2 75.1,75.4 67.9,1.1 18.9,0 0,9.8 					"/>
				</defs>
				<clipPath id="SVGID_50_">
					<use xlink:href="#SVGID_49_"  style="overflow:visible;"/>
				</clipPath>
				<polygon class="st24" points="21.5,0 69.4,98.6 68.5,99 20.4,0 				"/>
			</g>
		</g>
		<g>
			<g>
				<defs>
					<polygon id="SVGID_51_" points="59.5,101.2 75.1,75.4 67.9,1.1 18.9,0 0,9.8 					"/>
				</defs>
				<clipPath id="SVGID_52_">
					<use xlink:href="#SVGID_51_"  style="overflow:visible;"/>
				</clipPath>
				<polygon class="st25" points="22.6,0 70.3,98.2 69.4,98.6 21.5,0 				"/>
			</g>
		</g>
		<g>
			<g>
				<defs>
					<polygon id="SVGID_53_" points="59.5,101.2 75.1,75.4 67.9,1.1 18.9,0 0,9.8 					"/>
				</defs>
				<clipPath id="SVGID_54_">
					<use xlink:href="#SVGID_53_"  style="overflow:visible;"/>
				</clipPath>
				<polygon class="st26" points="23.7,0 71.1,97.8 70.3,98.2 22.6,0 				"/>
			</g>
		</g>
		<g>
			<g>
				<defs>
					<polygon id="SVGID_55_" points="59.5,101.2 75.1,75.4 67.9,1.1 18.9,0 0,9.8 					"/>
				</defs>
				<clipPath id="SVGID_56_">
					<use xlink:href="#SVGID_55_"  style="overflow:visible;"/>
				</clipPath>
				<polygon class="st27" points="24.8,0 72,97.3 71.1,97.8 23.7,0 				"/>
			</g>
		</g>
		<g>
			<g>
				<defs>
					<polygon id="SVGID_57_" points="59.5,101.2 75.1,75.4 67.9,1.1 18.9,0 0,9.8 					"/>
				</defs>
				<clipPath id="SVGID_58_">
					<use xlink:href="#SVGID_57_"  style="overflow:visible;"/>
				</clipPath>
				<polygon class="st28" points="25.9,0 72.9,96.9 72,97.3 24.8,0 				"/>
			</g>
		</g>
		<g>
			<g>
				<defs>
					<polygon id="SVGID_59_" points="59.5,101.2 75.1,75.4 67.9,1.1 18.9,0 0,9.8 					"/>
				</defs>
				<clipPath id="SVGID_60_">
					<use xlink:href="#SVGID_59_"  style="overflow:visible;"/>
				</clipPath>
				<polygon class="st29" points="27,0 73.8,96.5 72.9,96.9 25.9,0 				"/>
			</g>
		</g>
		<g>
			<g>
				<defs>
					<polygon id="SVGID_61_" points="59.5,101.2 75.1,75.4 67.9,1.1 18.9,0 0,9.8 					"/>
				</defs>
				<clipPath id="SVGID_62_">
					<use xlink:href="#SVGID_61_"  style="overflow:visible;"/>
				</clipPath>
				<polygon class="st30" points="28.1,0 74.7,96 73.8,96.5 27,0 				"/>
			</g>
		</g>
		<g>
			<g>
				<defs>
					<polygon id="SVGID_63_" points="59.5,101.2 75.1,75.4 67.9,1.1 18.9,0 0,9.8 					"/>
				</defs>
				<clipPath id="SVGID_64_">
					<use xlink:href="#SVGID_63_"  style="overflow:visible;"/>
				</clipPath>
				<polygon class="st31" points="29.2,0 75.1,94.7 75.1,95.8 74.7,96 28.1,0 				"/>
			</g>
		</g>
		<g>
			<g>
				<defs>
					<polygon id="SVGID_65_" points="59.5,101.2 75.1,75.4 67.9,1.1 18.9,0 0,9.8 					"/>
				</defs>
				<clipPath id="SVGID_66_">
					<use xlink:href="#SVGID_65_"  style="overflow:visible;"/>
				</clipPath>
				<polygon class="st32" points="30.3,0 75.1,92.5 75.1,94.7 29.2,0 				"/>
			</g>
		</g>
		<g>
			<g>
				<defs>
					<polygon id="SVGID_67_" points="59.5,101.2 75.1,75.4 67.9,1.1 18.9,0 0,9.8 					"/>
				</defs>
				<clipPath id="SVGID_68_">
					<use xlink:href="#SVGID_67_"  style="overflow:visible;"/>
				</clipPath>
				<polygon class="st33" points="31.3,0 75.1,90.2 75.1,92.5 30.3,0 				"/>
			</g>
		</g>
		<g>
			<g>
				<defs>
					<polygon id="SVGID_69_" points="59.5,101.2 75.1,75.4 67.9,1.1 18.9,0 0,9.8 					"/>
				</defs>
				<clipPath id="SVGID_70_">
					<use xlink:href="#SVGID_69_"  style="overflow:visible;"/>
				</clipPath>
				<polygon class="st34" points="32.4,0 75.1,88 75.1,90.2 31.3,0 				"/>
			</g>
		</g>
		<g>
			<g>
				<defs>
					<polygon id="SVGID_71_" points="59.5,101.2 75.1,75.4 67.9,1.1 18.9,0 0,9.8 					"/>
				</defs>
				<clipPath id="SVGID_72_">
					<use xlink:href="#SVGID_71_"  style="overflow:visible;"/>
				</clipPath>
				<polygon class="st35" points="33.5,0 75.1,85.7 75.1,88 32.4,0 				"/>
			</g>
		</g>
		<g>
			<g>
				<defs>
					<polygon id="SVGID_73_" points="59.5,101.2 75.1,75.4 67.9,1.1 18.9,0 0,9.8 					"/>
				</defs>
				<clipPath id="SVGID_74_">
					<use xlink:href="#SVGID_73_"  style="overflow:visible;"/>
				</clipPath>
				<polygon class="st36" points="34.6,0 75.1,83.5 75.1,85.7 33.5,0 				"/>
			</g>
		</g>
		<g>
			<g>
				<defs>
					<polygon id="SVGID_75_" points="59.5,101.2 75.1,75.4 67.9,1.1 18.9,0 0,9.8 					"/>
				</defs>
				<clipPath id="SVGID_76_">
					<use xlink:href="#SVGID_75_"  style="overflow:visible;"/>
				</clipPath>
				<polygon class="st37" points="35.7,0 75.1,81.2 75.1,83.5 34.6,0 				"/>
			</g>
		</g>
		<g>
			<g>
				<defs>
					<polygon id="SVGID_77_" points="59.5,101.2 75.1,75.4 67.9,1.1 18.9,0 0,9.8 					"/>
				</defs>
				<clipPath id="SVGID_78_">
					<use xlink:href="#SVGID_77_"  style="overflow:visible;"/>
				</clipPath>
				<polygon class="st38" points="36.8,0 75.1,79 75.1,81.2 35.7,0 				"/>
			</g>
		</g>
		<g>
			<g>
				<defs>
					<polygon id="SVGID_79_" points="59.5,101.2 75.1,75.4 67.9,1.1 18.9,0 0,9.8 					"/>
				</defs>
				<clipPath id="SVGID_80_">
					<use xlink:href="#SVGID_79_"  style="overflow:visible;"/>
				</clipPath>
				<polygon class="st39" points="37.9,0 75.1,76.7 75.1,79 36.8,0 				"/>
			</g>
		</g>
		<g>
			<g>
				<defs>
					<polygon id="SVGID_81_" points="59.5,101.2 75.1,75.4 67.9,1.1 18.9,0 0,9.8 					"/>
				</defs>
				<clipPath id="SVGID_82_">
					<use xlink:href="#SVGID_81_"  style="overflow:visible;"/>
				</clipPath>
				<polygon class="st40" points="39,0 75.1,74.5 75.1,76.7 37.9,0 				"/>
			</g>
		</g>
		<g>
			<g>
				<defs>
					<polygon id="SVGID_83_" points="59.5,101.2 75.1,75.4 67.9,1.1 18.9,0 0,9.8 					"/>
				</defs>
				<clipPath id="SVGID_84_">
					<use xlink:href="#SVGID_83_"  style="overflow:visible;"/>
				</clipPath>
				<polygon class="st41" points="40.1,0 75.1,72.2 75.1,74.5 39,0 				"/>
			</g>
		</g>
		<g>
			<g>
				<defs>
					<polygon id="SVGID_85_" points="59.5,101.2 75.1,75.4 67.9,1.1 18.9,0 0,9.8 					"/>
				</defs>
				<clipPath id="SVGID_86_">
					<use xlink:href="#SVGID_85_"  style="overflow:visible;"/>
				</clipPath>
				<polygon class="st42" points="41.2,0 75.1,70 75.1,72.2 40.1,0 				"/>
			</g>
		</g>
		<g>
			<g>
				<defs>
					<polygon id="SVGID_87_" points="59.5,101.2 75.1,75.4 67.9,1.1 18.9,0 0,9.8 					"/>
				</defs>
				<clipPath id="SVGID_88_">
					<use xlink:href="#SVGID_87_"  style="overflow:visible;"/>
				</clipPath>
				<polygon class="st43" points="42.3,0 75.1,67.7 75.1,70 41.2,0 				"/>
			</g>
		</g>
		<g>
			<g>
				<defs>
					<polygon id="SVGID_89_" points="59.5,101.2 75.1,75.4 67.9,1.1 18.9,0 0,9.8 					"/>
				</defs>
				<clipPath id="SVGID_90_">
					<use xlink:href="#SVGID_89_"  style="overflow:visible;"/>
				</clipPath>
				<polygon class="st44" points="43.4,0 75.1,65.5 75.1,67.7 42.3,0 				"/>
			</g>
		</g>
		<g>
			<g>
				<defs>
					<polygon id="SVGID_91_" points="59.5,101.2 75.1,75.4 67.9,1.1 18.9,0 0,9.8 					"/>
				</defs>
				<clipPath id="SVGID_92_">
					<use xlink:href="#SVGID_91_"  style="overflow:visible;"/>
				</clipPath>
				<polygon class="st45" points="44.5,0 75.1,63.2 75.1,65.5 43.4,0 				"/>
			</g>
		</g>
		<g>
			<g>
				<defs>
					<polygon id="SVGID_93_" points="59.5,101.2 75.1,75.4 67.9,1.1 18.9,0 0,9.8 					"/>
				</defs>
				<clipPath id="SVGID_94_">
					<use xlink:href="#SVGID_93_"  style="overflow:visible;"/>
				</clipPath>
				<polygon class="st46" points="45.6,0 75.1,61 75.1,63.2 44.5,0 				"/>
			</g>
		</g>
		<g>
			<g>
				<defs>
					<polygon id="SVGID_95_" points="59.5,101.2 75.1,75.4 67.9,1.1 18.9,0 0,9.8 					"/>
				</defs>
				<clipPath id="SVGID_96_">
					<use xlink:href="#SVGID_95_"  style="overflow:visible;"/>
				</clipPath>
				<polygon class="st47" points="46.6,0 75.1,58.7 75.1,61 45.6,0 				"/>
			</g>
		</g>
		<g>
			<g>
				<defs>
					<polygon id="SVGID_97_" points="59.5,101.2 75.1,75.4 67.9,1.1 18.9,0 0,9.8 					"/>
				</defs>
				<clipPath id="SVGID_98_">
					<use xlink:href="#SVGID_97_"  style="overflow:visible;"/>
				</clipPath>
				<polygon class="st48" points="47.7,0 75.1,56.5 75.1,58.7 46.6,0 				"/>
			</g>
		</g>
		<g>
			<g>
				<defs>
					<polygon id="SVGID_99_" points="59.5,101.2 75.1,75.4 67.9,1.1 18.9,0 0,9.8 					"/>
				</defs>
				<clipPath id="SVGID_100_">
					<use xlink:href="#SVGID_99_"  style="overflow:visible;"/>
				</clipPath>
				<polygon class="st49" points="48.8,0 75.1,54.2 75.1,56.5 47.7,0 				"/>
			</g>
		</g>
		<g>
			<g>
				<defs>
					<polygon id="SVGID_101_" points="59.5,101.2 75.1,75.4 67.9,1.1 18.9,0 0,9.8 					"/>
				</defs>
				<clipPath id="SVGID_102_">
					<use xlink:href="#SVGID_101_"  style="overflow:visible;"/>
				</clipPath>
				<polygon class="st50" points="49.9,0 75.1,52 75.1,54.2 48.8,0 				"/>
			</g>
		</g>
		<g>
			<g>
				<defs>
					<polygon id="SVGID_103_" points="59.5,101.2 75.1,75.4 67.9,1.1 18.9,0 0,9.8 					"/>
				</defs>
				<clipPath id="SVGID_104_">
					<use xlink:href="#SVGID_103_"  style="overflow:visible;"/>
				</clipPath>
				<polygon class="st51" points="51,0 75.1,49.7 75.1,52 49.9,0 				"/>
			</g>
		</g>
		<g>
			<g>
				<defs>
					<polygon id="SVGID_105_" points="59.5,101.2 75.1,75.4 67.9,1.1 18.9,0 0,9.8 					"/>
				</defs>
				<clipPath id="SVGID_106_">
					<use xlink:href="#SVGID_105_"  style="overflow:visible;"/>
				</clipPath>
				<polygon class="st52" points="52.1,0 75.1,47.5 75.1,49.7 51,0 				"/>
			</g>
		</g>
		<g>
			<g>
				<defs>
					<polygon id="SVGID_107_" points="59.5,101.2 75.1,75.4 67.9,1.1 18.9,0 0,9.8 					"/>
				</defs>
				<clipPath id="SVGID_108_">
					<use xlink:href="#SVGID_107_"  style="overflow:visible;"/>
				</clipPath>
				<polygon class="st53" points="53.2,0 75.1,45.2 75.1,47.5 52.1,0 				"/>
			</g>
		</g>
		<g>
			<g>
				<defs>
					<polygon id="SVGID_109_" points="59.5,101.2 75.1,75.4 67.9,1.1 18.9,0 0,9.8 					"/>
				</defs>
				<clipPath id="SVGID_110_">
					<use xlink:href="#SVGID_109_"  style="overflow:visible;"/>
				</clipPath>
				<polygon class="st54" points="54.3,0 75.1,43 75.1,45.2 53.2,0 				"/>
			</g>
		</g>
		<g>
			<g>
				<defs>
					<polygon id="SVGID_111_" points="59.5,101.2 75.1,75.4 67.9,1.1 18.9,0 0,9.8 					"/>
				</defs>
				<clipPath id="SVGID_112_">
					<use xlink:href="#SVGID_111_"  style="overflow:visible;"/>
				</clipPath>
				<polygon class="st55" points="55.4,0 75.1,40.7 75.1,43 54.3,0 				"/>
			</g>
		</g>
		<g>
			<g>
				<defs>
					<polygon id="SVGID_113_" points="59.5,101.2 75.1,75.4 67.9,1.1 18.9,0 0,9.8 					"/>
				</defs>
				<clipPath id="SVGID_114_">
					<use xlink:href="#SVGID_113_"  style="overflow:visible;"/>
				</clipPath>
				<polygon class="st56" points="56.5,0 75.1,38.5 75.1,40.7 55.4,0 				"/>
			</g>
		</g>
		<g>
			<g>
				<defs>
					<polygon id="SVGID_115_" points="59.5,101.2 75.1,75.4 67.9,1.1 18.9,0 0,9.8 					"/>
				</defs>
				<clipPath id="SVGID_116_">
					<use xlink:href="#SVGID_115_"  style="overflow:visible;"/>
				</clipPath>
				<polygon class="st57" points="57.6,0 75.1,36.2 75.1,38.5 56.5,0 				"/>
			</g>
		</g>
		<g>
			<g>
				<defs>
					<polygon id="SVGID_117_" points="59.5,101.2 75.1,75.4 67.9,1.1 18.9,0 0,9.8 					"/>
				</defs>
				<clipPath id="SVGID_118_">
					<use xlink:href="#SVGID_117_"  style="overflow:visible;"/>
				</clipPath>
				<polygon class="st58" points="58.7,0 75.1,33.9 75.1,36.2 57.6,0 				"/>
			</g>
		</g>
		<g>
			<g>
				<defs>
					<polygon id="SVGID_119_" points="59.5,101.2 75.1,75.4 67.9,1.1 18.9,0 0,9.8 					"/>
				</defs>
				<clipPath id="SVGID_120_">
					<use xlink:href="#SVGID_119_"  style="overflow:visible;"/>
				</clipPath>
				<polygon class="st59" points="59.8,0 75.1,31.7 75.1,33.9 58.7,0 				"/>
			</g>
		</g>
		<g>
			<g>
				<defs>
					<polygon id="SVGID_121_" points="59.5,101.2 75.1,75.4 67.9,1.1 18.9,0 0,9.8 					"/>
				</defs>
				<clipPath id="SVGID_122_">
					<use xlink:href="#SVGID_121_"  style="overflow:visible;"/>
				</clipPath>
				<polygon class="st60" points="60.9,0 75.1,29.4 75.1,31.7 59.8,0 				"/>
			</g>
		</g>
		<g>
			<g>
				<defs>
					<polygon id="SVGID_123_" points="59.5,101.2 75.1,75.4 67.9,1.1 18.9,0 0,9.8 					"/>
				</defs>
				<clipPath id="SVGID_124_">
					<use xlink:href="#SVGID_123_"  style="overflow:visible;"/>
				</clipPath>
				<polygon class="st61" points="61.9,0 75.1,27.2 75.1,29.4 60.9,0 				"/>
			</g>
		</g>
		<g>
			<g>
				<defs>
					<polygon id="SVGID_125_" points="59.5,101.2 75.1,75.4 67.9,1.1 18.9,0 0,9.8 					"/>
				</defs>
				<clipPath id="SVGID_126_">
					<use xlink:href="#SVGID_125_"  style="overflow:visible;"/>
				</clipPath>
				<polygon class="st62" points="63,0 75.1,24.9 75.1,27.2 61.9,0 				"/>
			</g>
		</g>
		<g>
			<g>
				<defs>
					<polygon id="SVGID_127_" points="59.5,101.2 75.1,75.4 67.9,1.1 18.9,0 0,9.8 					"/>
				</defs>
				<clipPath id="SVGID_128_">
					<use xlink:href="#SVGID_127_"  style="overflow:visible;"/>
				</clipPath>
				<polygon class="st63" points="64.1,0 75.1,22.7 75.1,24.9 63,0 				"/>
			</g>
		</g>
		<g>
			<g>
				<defs>
					<polygon id="SVGID_129_" points="59.5,101.2 75.1,75.4 67.9,1.1 18.9,0 0,9.8 					"/>
				</defs>
				<clipPath id="SVGID_130_">
					<use xlink:href="#SVGID_129_"  style="overflow:visible;"/>
				</clipPath>
				<polygon class="st64" points="65.2,0 75.1,20.4 75.1,22.7 64.1,0 				"/>
			</g>
		</g>
		<g>
			<g>
				<defs>
					<polygon id="SVGID_131_" points="59.5,101.2 75.1,75.4 67.9,1.1 18.9,0 0,9.8 					"/>
				</defs>
				<clipPath id="SVGID_132_">
					<use xlink:href="#SVGID_131_"  style="overflow:visible;"/>
				</clipPath>
				<polygon class="st65" points="66.3,0 75.1,18.2 75.1,20.4 65.2,0 				"/>
			</g>
		</g>
		<g>
			<g>
				<defs>
					<polygon id="SVGID_133_" points="59.5,101.2 75.1,75.4 67.9,1.1 18.9,0 0,9.8 					"/>
				</defs>
				<clipPath id="SVGID_134_">
					<use xlink:href="#SVGID_133_"  style="overflow:visible;"/>
				</clipPath>
				<polygon class="st66" points="67.4,0 75.1,15.9 75.1,18.2 66.3,0 				"/>
			</g>
		</g>
		<g>
			<g>
				<defs>
					<polygon id="SVGID_135_" points="59.5,101.2 75.1,75.4 67.9,1.1 18.9,0 0,9.8 					"/>
				</defs>
				<clipPath id="SVGID_136_">
					<use xlink:href="#SVGID_135_"  style="overflow:visible;"/>
				</clipPath>
				<polygon class="st67" points="75.1,15.9 67.4,0 75.1,0 				"/>
			</g>
		</g>
	</g>
</g>
</svg>
