<?xml version="1.0" encoding="utf-8"?>
<!-- Generator: Adobe Illustrator 21.0.2, SVG Export Plug-In . SVG Version: 6.00 Build 0)  -->
<svg version="1.1" id="Layer_1" xmlns="http://www.w3.org/2000/svg" xmlns:xlink="http://www.w3.org/1999/xlink" x="0px" y="0px"
	 viewBox="0 0 46.1 54" style="enable-background:new 0 0 46.1 54;" xml:space="preserve">
<style type="text/css">
	.st0{clip-path:url(#SVGID_2_);fill:#545557;}
	.st1{clip-path:url(#SVGID_4_);fill:#545557;}
	.st2{clip-path:url(#SVGID_6_);fill:#535456;}
	.st3{clip-path:url(#SVGID_8_);fill:#525355;}
	.st4{clip-path:url(#SVGID_10_);fill:#515254;}
	.st5{clip-path:url(#SVGID_12_);fill:#505153;}
	.st6{clip-path:url(#SVGID_14_);fill:#4F5052;}
	.st7{clip-path:url(#SVGID_16_);fill:#4E4F51;}
	.st8{clip-path:url(#SVGID_18_);fill:#4D4E50;}
	.st9{clip-path:url(#SVGID_20_);fill:#4C4D4F;}
	.st10{clip-path:url(#SVGID_22_);fill:#4B4C4E;}
	.st11{clip-path:url(#SVGID_24_);fill:#4A4B4D;}
	.st12{clip-path:url(#SVGID_26_);fill:#494A4C;}
	.st13{clip-path:url(#SVGID_28_);fill:#48494B;}
	.st14{clip-path:url(#SVGID_30_);fill:#47484A;}
	.st15{clip-path:url(#SVGID_32_);fill:#464749;}
	.st16{clip-path:url(#SVGID_34_);fill:#454648;}
	.st17{clip-path:url(#SVGID_36_);fill:#444547;}
	.st18{clip-path:url(#SVGID_38_);fill:#434446;}
	.st19{clip-path:url(#SVGID_40_);fill:#424345;}
	.st20{clip-path:url(#SVGID_42_);fill:#414244;}
	.st21{clip-path:url(#SVGID_44_);fill:#404143;}
	.st22{clip-path:url(#SVGID_46_);fill:#3F4042;}
	.st23{clip-path:url(#SVGID_48_);fill:#3F3F41;}
	.st24{clip-path:url(#SVGID_50_);fill:#3E3E40;}
	.st25{clip-path:url(#SVGID_52_);fill:#3D3D3F;}
	.st26{clip-path:url(#SVGID_54_);fill:#3C3C3E;}
	.st27{clip-path:url(#SVGID_56_);fill:#3B3B3D;}
	.st28{clip-path:url(#SVGID_58_);fill:#3A3A3C;}
	.st29{clip-path:url(#SVGID_60_);fill:#39393B;}
	.st30{clip-path:url(#SVGID_62_);fill:#38383A;}
	.st31{clip-path:url(#SVGID_64_);fill:#373739;}
	.st32{clip-path:url(#SVGID_66_);fill:#363638;}
	.st33{clip-path:url(#SVGID_68_);fill:#353537;}
	.st34{clip-path:url(#SVGID_70_);fill:#343436;}
	.st35{clip-path:url(#SVGID_72_);fill:#333335;}
	.st36{clip-path:url(#SVGID_74_);fill:#323234;}
	.st37{clip-path:url(#SVGID_76_);fill:#313133;}
	.st38{clip-path:url(#SVGID_78_);fill:#303032;}
	.st39{clip-path:url(#SVGID_80_);fill:#2F2F31;}
	.st40{clip-path:url(#SVGID_82_);fill:#2E2E30;}
	.st41{clip-path:url(#SVGID_84_);fill:#2D2D2F;}
	.st42{clip-path:url(#SVGID_86_);fill:#2C2C2E;}
	.st43{clip-path:url(#SVGID_88_);fill:#2B2B2D;}
	.st44{clip-path:url(#SVGID_90_);fill:#2A2B2C;}
	.st45{clip-path:url(#SVGID_92_);fill:#292A2A;}
	.st46{clip-path:url(#SVGID_94_);fill:#282929;}
	.st47{clip-path:url(#SVGID_96_);fill:#272828;}
	.st48{clip-path:url(#SVGID_98_);fill:#262727;}
	.st49{clip-path:url(#SVGID_100_);fill:#252626;}
	.st50{clip-path:url(#SVGID_102_);fill:#242525;}
	.st51{clip-path:url(#SVGID_104_);fill:#232424;}
	.st52{clip-path:url(#SVGID_106_);fill:#222323;}
	.st53{clip-path:url(#SVGID_108_);fill:#212222;}
	.st54{clip-path:url(#SVGID_110_);fill:#202121;}
	.st55{clip-path:url(#SVGID_112_);fill:#1F2020;}
	.st56{clip-path:url(#SVGID_114_);fill:#1E1F1F;}
	.st57{clip-path:url(#SVGID_116_);fill:#1D1E1E;}
	.st58{clip-path:url(#SVGID_118_);fill:#1C1D1D;}
	.st59{clip-path:url(#SVGID_120_);fill:#1B1C1C;}
	.st60{clip-path:url(#SVGID_122_);fill:#1A1B1B;}
	.st61{clip-path:url(#SVGID_124_);fill:#191A1A;}
	.st62{clip-path:url(#SVGID_126_);fill:#181919;}
	.st63{clip-path:url(#SVGID_128_);fill:#171818;}
	.st64{clip-path:url(#SVGID_130_);fill:#161717;}
	.st65{clip-path:url(#SVGID_132_);fill:#151616;}
	.st66{clip-path:url(#SVGID_134_);fill:#151515;}
	.st67{clip-path:url(#SVGID_136_);fill:#141414;}
	.st68{clip-path:url(#SVGID_138_);fill:#131313;}
	.st69{clip-path:url(#SVGID_140_);fill:#121212;}
	.st70{clip-path:url(#SVGID_142_);fill:#111111;}
	.st71{clip-path:url(#SVGID_144_);fill:#101010;}
	.st72{clip-path:url(#SVGID_146_);fill:#0F0F0F;}
	.st73{clip-path:url(#SVGID_148_);fill:#0E0E0E;}
	.st74{clip-path:url(#SVGID_150_);fill:#0D0D0D;}
	.st75{clip-path:url(#SVGID_152_);fill:#0C0C0C;}
	.st76{clip-path:url(#SVGID_154_);fill:#0B0B0B;}
	.st77{clip-path:url(#SVGID_156_);fill:#0A0A0A;}
	.st78{clip-path:url(#SVGID_158_);fill:#090909;}
	.st79{clip-path:url(#SVGID_160_);fill:#080808;}
	.st80{clip-path:url(#SVGID_162_);fill:#070707;}
	.st81{clip-path:url(#SVGID_164_);fill:#060606;}
	.st82{clip-path:url(#SVGID_166_);fill:#050505;}
	.st83{clip-path:url(#SVGID_168_);fill:#040404;}
	.st84{clip-path:url(#SVGID_170_);fill:#030303;}
	.st85{clip-path:url(#SVGID_172_);fill:#020202;}
	.st86{clip-path:url(#SVGID_174_);fill:#010101;}
	.st87{clip-path:url(#SVGID_176_);}
</style>
<g id="XMLID_203_">
	<g>
		<g>
			<g>
				<defs>
					<polygon id="SVGID_1_" points="6.2,54 46.1,8.9 0,0 					"/>
				</defs>
				<clipPath id="SVGID_2_">
					<use xlink:href="#SVGID_1_"  style="overflow:visible;"/>
				</clipPath>
				<polygon class="st0" points="6.2,54 46.1,35.1 46.1,54 				"/>
			</g>
		</g>
		<g>
			<g>
				<defs>
					<polygon id="SVGID_3_" points="6.2,54 46.1,8.9 0,0 					"/>
				</defs>
				<clipPath id="SVGID_4_">
					<use xlink:href="#SVGID_3_"  style="overflow:visible;"/>
				</clipPath>
				<polygon class="st1" points="4.9,54 46.1,34.4 46.1,35.1 6.2,54 				"/>
			</g>
		</g>
		<g>
			<g>
				<defs>
					<polygon id="SVGID_5_" points="6.2,54 46.1,8.9 0,0 					"/>
				</defs>
				<clipPath id="SVGID_6_">
					<use xlink:href="#SVGID_5_"  style="overflow:visible;"/>
				</clipPath>
				<polygon class="st2" points="3.5,54 46.1,33.8 46.1,34.4 4.9,54 				"/>
			</g>
		</g>
		<g>
			<g>
				<defs>
					<polygon id="SVGID_7_" points="6.2,54 46.1,8.9 0,0 					"/>
				</defs>
				<clipPath id="SVGID_8_">
					<use xlink:href="#SVGID_7_"  style="overflow:visible;"/>
				</clipPath>
				<polygon class="st3" points="2.1,54 46.1,33.1 46.1,33.8 3.5,54 				"/>
			</g>
		</g>
		<g>
			<g>
				<defs>
					<polygon id="SVGID_9_" points="6.2,54 46.1,8.9 0,0 					"/>
				</defs>
				<clipPath id="SVGID_10_">
					<use xlink:href="#SVGID_9_"  style="overflow:visible;"/>
				</clipPath>
				<polygon class="st4" points="0.7,54 46.1,32.5 46.1,33.1 2.1,54 				"/>
			</g>
		</g>
		<g>
			<g>
				<defs>
					<polygon id="SVGID_11_" points="6.2,54 46.1,8.9 0,0 					"/>
				</defs>
				<clipPath id="SVGID_12_">
					<use xlink:href="#SVGID_11_"  style="overflow:visible;"/>
				</clipPath>
				<polygon class="st5" points="0,53.7 46.1,31.8 46.1,32.5 0.7,54 0,54 				"/>
			</g>
		</g>
		<g>
			<g>
				<defs>
					<polygon id="SVGID_13_" points="6.2,54 46.1,8.9 0,0 					"/>
				</defs>
				<clipPath id="SVGID_14_">
					<use xlink:href="#SVGID_13_"  style="overflow:visible;"/>
				</clipPath>
				<polygon class="st6" points="0,53 46.1,31.2 46.1,31.8 0,53.7 				"/>
			</g>
		</g>
		<g>
			<g>
				<defs>
					<polygon id="SVGID_15_" points="6.2,54 46.1,8.9 0,0 					"/>
				</defs>
				<clipPath id="SVGID_16_">
					<use xlink:href="#SVGID_15_"  style="overflow:visible;"/>
				</clipPath>
				<polygon class="st7" points="0,52.3 46.1,30.5 46.1,31.2 0,53 				"/>
			</g>
		</g>
		<g>
			<g>
				<defs>
					<polygon id="SVGID_17_" points="6.2,54 46.1,8.9 0,0 					"/>
				</defs>
				<clipPath id="SVGID_18_">
					<use xlink:href="#SVGID_17_"  style="overflow:visible;"/>
				</clipPath>
				<polygon class="st8" points="0,51.7 46.1,29.8 46.1,30.5 0,52.3 				"/>
			</g>
		</g>
		<g>
			<g>
				<defs>
					<polygon id="SVGID_19_" points="6.2,54 46.1,8.9 0,0 					"/>
				</defs>
				<clipPath id="SVGID_20_">
					<use xlink:href="#SVGID_19_"  style="overflow:visible;"/>
				</clipPath>
				<polygon class="st9" points="0,51 46.1,29.2 46.1,29.8 0,51.7 				"/>
			</g>
		</g>
		<g>
			<g>
				<defs>
					<polygon id="SVGID_21_" points="6.2,54 46.1,8.9 0,0 					"/>
				</defs>
				<clipPath id="SVGID_22_">
					<use xlink:href="#SVGID_21_"  style="overflow:visible;"/>
				</clipPath>
				<polygon class="st10" points="0,50.4 46.1,28.5 46.1,29.2 0,51 				"/>
			</g>
		</g>
		<g>
			<g>
				<defs>
					<polygon id="SVGID_23_" points="6.2,54 46.1,8.9 0,0 					"/>
				</defs>
				<clipPath id="SVGID_24_">
					<use xlink:href="#SVGID_23_"  style="overflow:visible;"/>
				</clipPath>
				<polygon class="st11" points="0,49.7 46.1,27.9 46.1,28.5 0,50.4 				"/>
			</g>
		</g>
		<g>
			<g>
				<defs>
					<polygon id="SVGID_25_" points="6.2,54 46.1,8.9 0,0 					"/>
				</defs>
				<clipPath id="SVGID_26_">
					<use xlink:href="#SVGID_25_"  style="overflow:visible;"/>
				</clipPath>
				<polygon class="st12" points="0,49.1 46.1,27.2 46.1,27.9 0,49.7 				"/>
			</g>
		</g>
		<g>
			<g>
				<defs>
					<polygon id="SVGID_27_" points="6.2,54 46.1,8.9 0,0 					"/>
				</defs>
				<clipPath id="SVGID_28_">
					<use xlink:href="#SVGID_27_"  style="overflow:visible;"/>
				</clipPath>
				<polygon class="st13" points="0,48.4 46.1,26.6 46.1,27.2 0,49.1 				"/>
			</g>
		</g>
		<g>
			<g>
				<defs>
					<polygon id="SVGID_29_" points="6.2,54 46.1,8.9 0,0 					"/>
				</defs>
				<clipPath id="SVGID_30_">
					<use xlink:href="#SVGID_29_"  style="overflow:visible;"/>
				</clipPath>
				<polygon class="st14" points="0,47.8 46.1,25.9 46.1,26.6 0,48.4 				"/>
			</g>
		</g>
		<g>
			<g>
				<defs>
					<polygon id="SVGID_31_" points="6.2,54 46.1,8.9 0,0 					"/>
				</defs>
				<clipPath id="SVGID_32_">
					<use xlink:href="#SVGID_31_"  style="overflow:visible;"/>
				</clipPath>
				<polygon class="st15" points="0,47.1 46.1,25.3 46.1,25.9 0,47.8 				"/>
			</g>
		</g>
		<g>
			<g>
				<defs>
					<polygon id="SVGID_33_" points="6.2,54 46.1,8.9 0,0 					"/>
				</defs>
				<clipPath id="SVGID_34_">
					<use xlink:href="#SVGID_33_"  style="overflow:visible;"/>
				</clipPath>
				<polygon class="st16" points="0,46.4 46.1,24.6 46.1,25.3 0,47.1 				"/>
			</g>
		</g>
		<g>
			<g>
				<defs>
					<polygon id="SVGID_35_" points="6.2,54 46.1,8.9 0,0 					"/>
				</defs>
				<clipPath id="SVGID_36_">
					<use xlink:href="#SVGID_35_"  style="overflow:visible;"/>
				</clipPath>
				<polygon class="st17" points="0,45.8 46.1,24 46.1,24.6 0,46.4 				"/>
			</g>
		</g>
		<g>
			<g>
				<defs>
					<polygon id="SVGID_37_" points="6.2,54 46.1,8.9 0,0 					"/>
				</defs>
				<clipPath id="SVGID_38_">
					<use xlink:href="#SVGID_37_"  style="overflow:visible;"/>
				</clipPath>
				<polygon class="st18" points="0,45.1 46.1,23.3 46.1,24 0,45.8 				"/>
			</g>
		</g>
		<g>
			<g>
				<defs>
					<polygon id="SVGID_39_" points="6.2,54 46.1,8.9 0,0 					"/>
				</defs>
				<clipPath id="SVGID_40_">
					<use xlink:href="#SVGID_39_"  style="overflow:visible;"/>
				</clipPath>
				<polygon class="st19" points="0,44.5 46.1,22.6 46.1,23.3 0,45.1 				"/>
			</g>
		</g>
		<g>
			<g>
				<defs>
					<polygon id="SVGID_41_" points="6.2,54 46.1,8.9 0,0 					"/>
				</defs>
				<clipPath id="SVGID_42_">
					<use xlink:href="#SVGID_41_"  style="overflow:visible;"/>
				</clipPath>
				<polygon class="st20" points="0,43.8 46.1,22 46.1,22.6 0,44.5 				"/>
			</g>
		</g>
		<g>
			<g>
				<defs>
					<polygon id="SVGID_43_" points="6.2,54 46.1,8.9 0,0 					"/>
				</defs>
				<clipPath id="SVGID_44_">
					<use xlink:href="#SVGID_43_"  style="overflow:visible;"/>
				</clipPath>
				<polygon class="st21" points="0,43.2 46.1,21.3 46.1,22 0,43.8 				"/>
			</g>
		</g>
		<g>
			<g>
				<defs>
					<polygon id="SVGID_45_" points="6.2,54 46.1,8.9 0,0 					"/>
				</defs>
				<clipPath id="SVGID_46_">
					<use xlink:href="#SVGID_45_"  style="overflow:visible;"/>
				</clipPath>
				<polygon class="st22" points="0,42.5 46.1,20.7 46.1,21.3 0,43.2 				"/>
			</g>
		</g>
		<g>
			<g>
				<defs>
					<polygon id="SVGID_47_" points="6.2,54 46.1,8.9 0,0 					"/>
				</defs>
				<clipPath id="SVGID_48_">
					<use xlink:href="#SVGID_47_"  style="overflow:visible;"/>
				</clipPath>
				<polygon class="st23" points="0,41.9 46.1,20 46.1,20.7 0,42.5 				"/>
			</g>
		</g>
		<g>
			<g>
				<defs>
					<polygon id="SVGID_49_" points="6.2,54 46.1,8.9 0,0 					"/>
				</defs>
				<clipPath id="SVGID_50_">
					<use xlink:href="#SVGID_49_"  style="overflow:visible;"/>
				</clipPath>
				<polygon class="st24" points="0,41.2 46.1,19.4 46.1,20 0,41.9 				"/>
			</g>
		</g>
		<g>
			<g>
				<defs>
					<polygon id="SVGID_51_" points="6.2,54 46.1,8.9 0,0 					"/>
				</defs>
				<clipPath id="SVGID_52_">
					<use xlink:href="#SVGID_51_"  style="overflow:visible;"/>
				</clipPath>
				<polygon class="st25" points="0,40.6 46.1,18.7 46.1,19.4 0,41.2 				"/>
			</g>
		</g>
		<g>
			<g>
				<defs>
					<polygon id="SVGID_53_" points="6.2,54 46.1,8.9 0,0 					"/>
				</defs>
				<clipPath id="SVGID_54_">
					<use xlink:href="#SVGID_53_"  style="overflow:visible;"/>
				</clipPath>
				<polygon class="st26" points="0,39.9 46.1,18.1 46.1,18.7 0,40.6 				"/>
			</g>
		</g>
		<g>
			<g>
				<defs>
					<polygon id="SVGID_55_" points="6.2,54 46.1,8.9 0,0 					"/>
				</defs>
				<clipPath id="SVGID_56_">
					<use xlink:href="#SVGID_55_"  style="overflow:visible;"/>
				</clipPath>
				<polygon class="st27" points="0,39.2 46.1,17.4 46.1,18.1 0,39.9 				"/>
			</g>
		</g>
		<g>
			<g>
				<defs>
					<polygon id="SVGID_57_" points="6.2,54 46.1,8.9 0,0 					"/>
				</defs>
				<clipPath id="SVGID_58_">
					<use xlink:href="#SVGID_57_"  style="overflow:visible;"/>
				</clipPath>
				<polygon class="st28" points="0,38.6 46.1,16.8 46.1,17.4 0,39.2 				"/>
			</g>
		</g>
		<g>
			<g>
				<defs>
					<polygon id="SVGID_59_" points="6.2,54 46.1,8.9 0,0 					"/>
				</defs>
				<clipPath id="SVGID_60_">
					<use xlink:href="#SVGID_59_"  style="overflow:visible;"/>
				</clipPath>
				<polygon class="st29" points="0,37.9 46.1,16.1 46.1,16.8 0,38.6 				"/>
			</g>
		</g>
		<g>
			<g>
				<defs>
					<polygon id="SVGID_61_" points="6.2,54 46.1,8.9 0,0 					"/>
				</defs>
				<clipPath id="SVGID_62_">
					<use xlink:href="#SVGID_61_"  style="overflow:visible;"/>
				</clipPath>
				<polygon class="st30" points="0,37.3 46.1,15.4 46.1,16.1 0,37.9 				"/>
			</g>
		</g>
		<g>
			<g>
				<defs>
					<polygon id="SVGID_63_" points="6.2,54 46.1,8.9 0,0 					"/>
				</defs>
				<clipPath id="SVGID_64_">
					<use xlink:href="#SVGID_63_"  style="overflow:visible;"/>
				</clipPath>
				<polygon class="st31" points="0,36.6 46.1,14.8 46.1,15.4 0,37.3 				"/>
			</g>
		</g>
		<g>
			<g>
				<defs>
					<polygon id="SVGID_65_" points="6.2,54 46.1,8.9 0,0 					"/>
				</defs>
				<clipPath id="SVGID_66_">
					<use xlink:href="#SVGID_65_"  style="overflow:visible;"/>
				</clipPath>
				<polygon class="st32" points="0,36 46.1,14.1 46.1,14.8 0,36.6 				"/>
			</g>
		</g>
		<g>
			<g>
				<defs>
					<polygon id="SVGID_67_" points="6.2,54 46.1,8.9 0,0 					"/>
				</defs>
				<clipPath id="SVGID_68_">
					<use xlink:href="#SVGID_67_"  style="overflow:visible;"/>
				</clipPath>
				<polygon class="st33" points="0,35.3 46.1,13.5 46.1,14.1 0,36 				"/>
			</g>
		</g>
		<g>
			<g>
				<defs>
					<polygon id="SVGID_69_" points="6.2,54 46.1,8.9 0,0 					"/>
				</defs>
				<clipPath id="SVGID_70_">
					<use xlink:href="#SVGID_69_"  style="overflow:visible;"/>
				</clipPath>
				<polygon class="st34" points="0,34.7 46.1,12.8 46.1,13.5 0,35.3 				"/>
			</g>
		</g>
		<g>
			<g>
				<defs>
					<polygon id="SVGID_71_" points="6.2,54 46.1,8.9 0,0 					"/>
				</defs>
				<clipPath id="SVGID_72_">
					<use xlink:href="#SVGID_71_"  style="overflow:visible;"/>
				</clipPath>
				<polygon class="st35" points="0,34 46.1,12.2 46.1,12.8 0,34.7 				"/>
			</g>
		</g>
		<g>
			<g>
				<defs>
					<polygon id="SVGID_73_" points="6.2,54 46.1,8.9 0,0 					"/>
				</defs>
				<clipPath id="SVGID_74_">
					<use xlink:href="#SVGID_73_"  style="overflow:visible;"/>
				</clipPath>
				<polygon class="st36" points="0,33.4 46.1,11.5 46.1,12.2 0,34 				"/>
			</g>
		</g>
		<g>
			<g>
				<defs>
					<polygon id="SVGID_75_" points="6.2,54 46.1,8.9 0,0 					"/>
				</defs>
				<clipPath id="SVGID_76_">
					<use xlink:href="#SVGID_75_"  style="overflow:visible;"/>
				</clipPath>
				<polygon class="st37" points="0,32.7 46.1,10.9 46.1,11.5 0,33.4 				"/>
			</g>
		</g>
		<g>
			<g>
				<defs>
					<polygon id="SVGID_77_" points="6.2,54 46.1,8.9 0,0 					"/>
				</defs>
				<clipPath id="SVGID_78_">
					<use xlink:href="#SVGID_77_"  style="overflow:visible;"/>
				</clipPath>
				<polygon class="st38" points="0,32 46.1,10.2 46.1,10.9 0,32.7 				"/>
			</g>
		</g>
		<g>
			<g>
				<defs>
					<polygon id="SVGID_79_" points="6.2,54 46.1,8.9 0,0 					"/>
				</defs>
				<clipPath id="SVGID_80_">
					<use xlink:href="#SVGID_79_"  style="overflow:visible;"/>
				</clipPath>
				<polygon class="st39" points="0,31.4 46.1,9.5 46.1,10.2 0,32 				"/>
			</g>
		</g>
		<g>
			<g>
				<defs>
					<polygon id="SVGID_81_" points="6.2,54 46.1,8.9 0,0 					"/>
				</defs>
				<clipPath id="SVGID_82_">
					<use xlink:href="#SVGID_81_"  style="overflow:visible;"/>
				</clipPath>
				<polygon class="st40" points="0,30.7 46.1,8.9 46.1,9.5 0,31.4 				"/>
			</g>
		</g>
		<g>
			<g>
				<defs>
					<polygon id="SVGID_83_" points="6.2,54 46.1,8.9 0,0 					"/>
				</defs>
				<clipPath id="SVGID_84_">
					<use xlink:href="#SVGID_83_"  style="overflow:visible;"/>
				</clipPath>
				<polygon class="st41" points="0,30.1 46.1,8.2 46.1,8.9 0,30.7 				"/>
			</g>
		</g>
		<g>
			<g>
				<defs>
					<polygon id="SVGID_85_" points="6.2,54 46.1,8.9 0,0 					"/>
				</defs>
				<clipPath id="SVGID_86_">
					<use xlink:href="#SVGID_85_"  style="overflow:visible;"/>
				</clipPath>
				<polygon class="st42" points="0,29.4 46.1,7.6 46.1,8.2 0,30.1 				"/>
			</g>
		</g>
		<g>
			<g>
				<defs>
					<polygon id="SVGID_87_" points="6.2,54 46.1,8.9 0,0 					"/>
				</defs>
				<clipPath id="SVGID_88_">
					<use xlink:href="#SVGID_87_"  style="overflow:visible;"/>
				</clipPath>
				<polygon class="st43" points="0,28.8 46.1,6.9 46.1,7.6 0,29.4 				"/>
			</g>
		</g>
		<g>
			<g>
				<defs>
					<polygon id="SVGID_89_" points="6.2,54 46.1,8.9 0,0 					"/>
				</defs>
				<clipPath id="SVGID_90_">
					<use xlink:href="#SVGID_89_"  style="overflow:visible;"/>
				</clipPath>
				<polygon class="st44" points="0,28.1 46.1,6.3 46.1,6.9 0,28.8 				"/>
			</g>
		</g>
		<g>
			<g>
				<defs>
					<polygon id="SVGID_91_" points="6.2,54 46.1,8.9 0,0 					"/>
				</defs>
				<clipPath id="SVGID_92_">
					<use xlink:href="#SVGID_91_"  style="overflow:visible;"/>
				</clipPath>
				<polygon class="st45" points="0,27.5 46.1,5.6 46.1,6.3 0,28.1 				"/>
			</g>
		</g>
		<g>
			<g>
				<defs>
					<polygon id="SVGID_93_" points="6.2,54 46.1,8.9 0,0 					"/>
				</defs>
				<clipPath id="SVGID_94_">
					<use xlink:href="#SVGID_93_"  style="overflow:visible;"/>
				</clipPath>
				<polygon class="st46" points="0,26.8 46.1,5 46.1,5.6 0,27.5 				"/>
			</g>
		</g>
		<g>
			<g>
				<defs>
					<polygon id="SVGID_95_" points="6.2,54 46.1,8.9 0,0 					"/>
				</defs>
				<clipPath id="SVGID_96_">
					<use xlink:href="#SVGID_95_"  style="overflow:visible;"/>
				</clipPath>
				<polygon class="st47" points="0,26.2 46.1,4.3 46.1,5 0,26.8 				"/>
			</g>
		</g>
		<g>
			<g>
				<defs>
					<polygon id="SVGID_97_" points="6.2,54 46.1,8.9 0,0 					"/>
				</defs>
				<clipPath id="SVGID_98_">
					<use xlink:href="#SVGID_97_"  style="overflow:visible;"/>
				</clipPath>
				<polygon class="st48" points="0,25.5 46.1,3.7 46.1,4.3 0,26.2 				"/>
			</g>
		</g>
		<g>
			<g>
				<defs>
					<polygon id="SVGID_99_" points="6.2,54 46.1,8.9 0,0 					"/>
				</defs>
				<clipPath id="SVGID_100_">
					<use xlink:href="#SVGID_99_"  style="overflow:visible;"/>
				</clipPath>
				<polygon class="st49" points="0,24.8 46.1,3 46.1,3.7 0,25.5 				"/>
			</g>
		</g>
		<g>
			<g>
				<defs>
					<polygon id="SVGID_101_" points="6.2,54 46.1,8.9 0,0 					"/>
				</defs>
				<clipPath id="SVGID_102_">
					<use xlink:href="#SVGID_101_"  style="overflow:visible;"/>
				</clipPath>
				<polygon class="st50" points="0,24.2 46.1,2.3 46.1,3 0,24.8 				"/>
			</g>
		</g>
		<g>
			<g>
				<defs>
					<polygon id="SVGID_103_" points="6.2,54 46.1,8.9 0,0 					"/>
				</defs>
				<clipPath id="SVGID_104_">
					<use xlink:href="#SVGID_103_"  style="overflow:visible;"/>
				</clipPath>
				<polygon class="st51" points="0,23.5 46.1,1.7 46.1,2.3 0,24.2 				"/>
			</g>
		</g>
		<g>
			<g>
				<defs>
					<polygon id="SVGID_105_" points="6.2,54 46.1,8.9 0,0 					"/>
				</defs>
				<clipPath id="SVGID_106_">
					<use xlink:href="#SVGID_105_"  style="overflow:visible;"/>
				</clipPath>
				<polygon class="st52" points="0,22.9 46.1,1 46.1,1.7 0,23.5 				"/>
			</g>
		</g>
		<g>
			<g>
				<defs>
					<polygon id="SVGID_107_" points="6.2,54 46.1,8.9 0,0 					"/>
				</defs>
				<clipPath id="SVGID_108_">
					<use xlink:href="#SVGID_107_"  style="overflow:visible;"/>
				</clipPath>
				<polygon class="st53" points="0,22.2 46.1,0.4 46.1,1 0,22.9 				"/>
			</g>
		</g>
		<g>
			<g>
				<defs>
					<polygon id="SVGID_109_" points="6.2,54 46.1,8.9 0,0 					"/>
				</defs>
				<clipPath id="SVGID_110_">
					<use xlink:href="#SVGID_109_"  style="overflow:visible;"/>
				</clipPath>
				<polygon class="st54" points="0,21.6 45.6,0 46.1,0 46.1,0.4 0,22.2 				"/>
			</g>
		</g>
		<g>
			<g>
				<defs>
					<polygon id="SVGID_111_" points="6.2,54 46.1,8.9 0,0 					"/>
				</defs>
				<clipPath id="SVGID_112_">
					<use xlink:href="#SVGID_111_"  style="overflow:visible;"/>
				</clipPath>
				<polygon class="st55" points="0,20.9 44.2,0 45.6,0 0,21.6 				"/>
			</g>
		</g>
		<g>
			<g>
				<defs>
					<polygon id="SVGID_113_" points="6.2,54 46.1,8.9 0,0 					"/>
				</defs>
				<clipPath id="SVGID_114_">
					<use xlink:href="#SVGID_113_"  style="overflow:visible;"/>
				</clipPath>
				<polygon class="st56" points="0,20.3 42.9,0 44.2,0 0,20.9 				"/>
			</g>
		</g>
		<g>
			<g>
				<defs>
					<polygon id="SVGID_115_" points="6.2,54 46.1,8.9 0,0 					"/>
				</defs>
				<clipPath id="SVGID_116_">
					<use xlink:href="#SVGID_115_"  style="overflow:visible;"/>
				</clipPath>
				<polygon class="st57" points="0,19.6 41.5,0 42.9,0 0,20.3 				"/>
			</g>
		</g>
		<g>
			<g>
				<defs>
					<polygon id="SVGID_117_" points="6.2,54 46.1,8.9 0,0 					"/>
				</defs>
				<clipPath id="SVGID_118_">
					<use xlink:href="#SVGID_117_"  style="overflow:visible;"/>
				</clipPath>
				<polygon class="st58" points="0,19 40.1,0 41.5,0 0,19.6 				"/>
			</g>
		</g>
		<g>
			<g>
				<defs>
					<polygon id="SVGID_119_" points="6.2,54 46.1,8.9 0,0 					"/>
				</defs>
				<clipPath id="SVGID_120_">
					<use xlink:href="#SVGID_119_"  style="overflow:visible;"/>
				</clipPath>
				<polygon class="st59" points="0,18.3 38.7,0 40.1,0 0,19 				"/>
			</g>
		</g>
		<g>
			<g>
				<defs>
					<polygon id="SVGID_121_" points="6.2,54 46.1,8.9 0,0 					"/>
				</defs>
				<clipPath id="SVGID_122_">
					<use xlink:href="#SVGID_121_"  style="overflow:visible;"/>
				</clipPath>
				<polygon class="st60" points="0,17.6 37.3,0 38.7,0 0,18.3 				"/>
			</g>
		</g>
		<g>
			<g>
				<defs>
					<polygon id="SVGID_123_" points="6.2,54 46.1,8.9 0,0 					"/>
				</defs>
				<clipPath id="SVGID_124_">
					<use xlink:href="#SVGID_123_"  style="overflow:visible;"/>
				</clipPath>
				<polygon class="st61" points="0,17 36,0 37.3,0 0,17.6 				"/>
			</g>
		</g>
		<g>
			<g>
				<defs>
					<polygon id="SVGID_125_" points="6.2,54 46.1,8.9 0,0 					"/>
				</defs>
				<clipPath id="SVGID_126_">
					<use xlink:href="#SVGID_125_"  style="overflow:visible;"/>
				</clipPath>
				<polygon class="st62" points="0,16.3 34.6,0 36,0 0,17 				"/>
			</g>
		</g>
		<g>
			<g>
				<defs>
					<polygon id="SVGID_127_" points="6.2,54 46.1,8.9 0,0 					"/>
				</defs>
				<clipPath id="SVGID_128_">
					<use xlink:href="#SVGID_127_"  style="overflow:visible;"/>
				</clipPath>
				<polygon class="st63" points="0,15.7 33.2,0 34.6,0 0,16.3 				"/>
			</g>
		</g>
		<g>
			<g>
				<defs>
					<polygon id="SVGID_129_" points="6.2,54 46.1,8.9 0,0 					"/>
				</defs>
				<clipPath id="SVGID_130_">
					<use xlink:href="#SVGID_129_"  style="overflow:visible;"/>
				</clipPath>
				<polygon class="st64" points="0,15 31.8,0 33.2,0 0,15.7 				"/>
			</g>
		</g>
		<g>
			<g>
				<defs>
					<polygon id="SVGID_131_" points="6.2,54 46.1,8.9 0,0 					"/>
				</defs>
				<clipPath id="SVGID_132_">
					<use xlink:href="#SVGID_131_"  style="overflow:visible;"/>
				</clipPath>
				<polygon class="st65" points="0,14.4 30.4,0 31.8,0 0,15 				"/>
			</g>
		</g>
		<g>
			<g>
				<defs>
					<polygon id="SVGID_133_" points="6.2,54 46.1,8.9 0,0 					"/>
				</defs>
				<clipPath id="SVGID_134_">
					<use xlink:href="#SVGID_133_"  style="overflow:visible;"/>
				</clipPath>
				<polygon class="st66" points="0,13.7 29,0 30.4,0 0,14.4 				"/>
			</g>
		</g>
		<g>
			<g>
				<defs>
					<polygon id="SVGID_135_" points="6.2,54 46.1,8.9 0,0 					"/>
				</defs>
				<clipPath id="SVGID_136_">
					<use xlink:href="#SVGID_135_"  style="overflow:visible;"/>
				</clipPath>
				<polygon class="st67" points="0,13.1 27.7,0 29,0 0,13.7 				"/>
			</g>
		</g>
		<g>
			<g>
				<defs>
					<polygon id="SVGID_137_" points="6.2,54 46.1,8.9 0,0 					"/>
				</defs>
				<clipPath id="SVGID_138_">
					<use xlink:href="#SVGID_137_"  style="overflow:visible;"/>
				</clipPath>
				<polygon class="st68" points="0,12.4 26.3,0 27.7,0 0,13.1 				"/>
			</g>
		</g>
		<g>
			<g>
				<defs>
					<polygon id="SVGID_139_" points="6.2,54 46.1,8.9 0,0 					"/>
				</defs>
				<clipPath id="SVGID_140_">
					<use xlink:href="#SVGID_139_"  style="overflow:visible;"/>
				</clipPath>
				<polygon class="st69" points="0,11.8 24.9,0 26.3,0 0,12.4 				"/>
			</g>
		</g>
		<g>
			<g>
				<defs>
					<polygon id="SVGID_141_" points="6.2,54 46.1,8.9 0,0 					"/>
				</defs>
				<clipPath id="SVGID_142_">
					<use xlink:href="#SVGID_141_"  style="overflow:visible;"/>
				</clipPath>
				<polygon class="st70" points="0,11.1 23.5,0 24.9,0 0,11.8 				"/>
			</g>
		</g>
		<g>
			<g>
				<defs>
					<polygon id="SVGID_143_" points="6.2,54 46.1,8.9 0,0 					"/>
				</defs>
				<clipPath id="SVGID_144_">
					<use xlink:href="#SVGID_143_"  style="overflow:visible;"/>
				</clipPath>
				<polygon class="st71" points="0,10.4 22.1,0 23.5,0 0,11.1 				"/>
			</g>
		</g>
		<g>
			<g>
				<defs>
					<polygon id="SVGID_145_" points="6.2,54 46.1,8.9 0,0 					"/>
				</defs>
				<clipPath id="SVGID_146_">
					<use xlink:href="#SVGID_145_"  style="overflow:visible;"/>
				</clipPath>
				<polygon class="st72" points="0,9.8 20.7,0 22.1,0 0,10.4 				"/>
			</g>
		</g>
		<g>
			<g>
				<defs>
					<polygon id="SVGID_147_" points="6.2,54 46.1,8.9 0,0 					"/>
				</defs>
				<clipPath id="SVGID_148_">
					<use xlink:href="#SVGID_147_"  style="overflow:visible;"/>
				</clipPath>
				<polygon class="st73" points="0,9.1 19.4,0 20.7,0 0,9.8 				"/>
			</g>
		</g>
		<g>
			<g>
				<defs>
					<polygon id="SVGID_149_" points="6.2,54 46.1,8.9 0,0 					"/>
				</defs>
				<clipPath id="SVGID_150_">
					<use xlink:href="#SVGID_149_"  style="overflow:visible;"/>
				</clipPath>
				<polygon class="st74" points="0,8.5 18,0 19.4,0 0,9.1 				"/>
			</g>
		</g>
		<g>
			<g>
				<defs>
					<polygon id="SVGID_151_" points="6.2,54 46.1,8.9 0,0 					"/>
				</defs>
				<clipPath id="SVGID_152_">
					<use xlink:href="#SVGID_151_"  style="overflow:visible;"/>
				</clipPath>
				<polygon class="st75" points="0,7.8 16.6,0 18,0 0,8.5 				"/>
			</g>
		</g>
		<g>
			<g>
				<defs>
					<polygon id="SVGID_153_" points="6.2,54 46.1,8.9 0,0 					"/>
				</defs>
				<clipPath id="SVGID_154_">
					<use xlink:href="#SVGID_153_"  style="overflow:visible;"/>
				</clipPath>
				<polygon class="st76" points="0,7.2 15.2,0 16.6,0 0,7.8 				"/>
			</g>
		</g>
		<g>
			<g>
				<defs>
					<polygon id="SVGID_155_" points="6.2,54 46.1,8.9 0,0 					"/>
				</defs>
				<clipPath id="SVGID_156_">
					<use xlink:href="#SVGID_155_"  style="overflow:visible;"/>
				</clipPath>
				<polygon class="st77" points="0,6.5 13.8,0 15.2,0 0,7.2 				"/>
			</g>
		</g>
		<g>
			<g>
				<defs>
					<polygon id="SVGID_157_" points="6.2,54 46.1,8.9 0,0 					"/>
				</defs>
				<clipPath id="SVGID_158_">
					<use xlink:href="#SVGID_157_"  style="overflow:visible;"/>
				</clipPath>
				<polygon class="st78" points="0,5.9 12.4,0 13.8,0 0,6.5 				"/>
			</g>
		</g>
		<g>
			<g>
				<defs>
					<polygon id="SVGID_159_" points="6.2,54 46.1,8.9 0,0 					"/>
				</defs>
				<clipPath id="SVGID_160_">
					<use xlink:href="#SVGID_159_"  style="overflow:visible;"/>
				</clipPath>
				<polygon class="st79" points="0,5.2 11.1,0 12.4,0 0,5.9 				"/>
			</g>
		</g>
		<g>
			<g>
				<defs>
					<polygon id="SVGID_161_" points="6.2,54 46.1,8.9 0,0 					"/>
				</defs>
				<clipPath id="SVGID_162_">
					<use xlink:href="#SVGID_161_"  style="overflow:visible;"/>
				</clipPath>
				<polygon class="st80" points="0,4.5 9.7,0 11.1,0 0,5.2 				"/>
			</g>
		</g>
		<g>
			<g>
				<defs>
					<polygon id="SVGID_163_" points="6.2,54 46.1,8.9 0,0 					"/>
				</defs>
				<clipPath id="SVGID_164_">
					<use xlink:href="#SVGID_163_"  style="overflow:visible;"/>
				</clipPath>
				<polygon class="st81" points="0,3.9 8.3,0 9.7,0 0,4.5 				"/>
			</g>
		</g>
		<g>
			<g>
				<defs>
					<polygon id="SVGID_165_" points="6.2,54 46.1,8.9 0,0 					"/>
				</defs>
				<clipPath id="SVGID_166_">
					<use xlink:href="#SVGID_165_"  style="overflow:visible;"/>
				</clipPath>
				<polygon class="st82" points="0,3.2 6.9,0 8.3,0 0,3.9 				"/>
			</g>
		</g>
		<g>
			<g>
				<defs>
					<polygon id="SVGID_167_" points="6.2,54 46.1,8.9 0,0 					"/>
				</defs>
				<clipPath id="SVGID_168_">
					<use xlink:href="#SVGID_167_"  style="overflow:visible;"/>
				</clipPath>
				<polygon class="st83" points="0,2.6 5.5,0 6.9,0 0,3.2 				"/>
			</g>
		</g>
		<g>
			<g>
				<defs>
					<polygon id="SVGID_169_" points="6.2,54 46.1,8.9 0,0 					"/>
				</defs>
				<clipPath id="SVGID_170_">
					<use xlink:href="#SVGID_169_"  style="overflow:visible;"/>
				</clipPath>
				<polygon class="st84" points="0,1.9 4.1,0 5.5,0 0,2.6 				"/>
			</g>
		</g>
		<g>
			<g>
				<defs>
					<polygon id="SVGID_171_" points="6.2,54 46.1,8.9 0,0 					"/>
				</defs>
				<clipPath id="SVGID_172_">
					<use xlink:href="#SVGID_171_"  style="overflow:visible;"/>
				</clipPath>
				<polygon class="st85" points="0,1.3 2.8,0 4.1,0 0,1.9 				"/>
			</g>
		</g>
		<g>
			<g>
				<defs>
					<polygon id="SVGID_173_" points="6.2,54 46.1,8.9 0,0 					"/>
				</defs>
				<clipPath id="SVGID_174_">
					<use xlink:href="#SVGID_173_"  style="overflow:visible;"/>
				</clipPath>
				<polygon class="st86" points="0,0.6 1.4,0 2.8,0 0,1.3 				"/>
			</g>
		</g>
		<g>
			<g>
				<defs>
					<polygon id="SVGID_175_" points="6.2,54 46.1,8.9 0,0 					"/>
				</defs>
				<clipPath id="SVGID_176_">
					<use xlink:href="#SVGID_175_"  style="overflow:visible;"/>
				</clipPath>
				<polygon class="st87" points="1.4,0 0,0.6 0,0 				"/>
			</g>
		</g>
	</g>
</g>
</svg>
