<?xml version="1.0" encoding="utf-8"?>
<!-- Generator: Adobe Illustrator 21.0.2, SVG Export Plug-In . SVG Version: 6.00 Build 0)  -->
<svg version="1.1" id="Layer_1" xmlns="http://www.w3.org/2000/svg" xmlns:xlink="http://www.w3.org/1999/xlink" x="0px" y="0px"
	 viewBox="0 0 420.3 523" style="enable-background:new 0 0 420.3 523;" xml:space="preserve">
<style type="text/css">
	.st0{clip-path:url(#SVGID_2_);fill:#424345;}
	.st1{clip-path:url(#SVGID_2_);fill:#414244;}
	.st2{clip-path:url(#SVGID_2_);fill:#404143;}
	.st3{clip-path:url(#SVGID_2_);fill:#3F4042;}
	.st4{clip-path:url(#SVGID_2_);fill:#3F3F41;}
	.st5{clip-path:url(#SVGID_2_);fill:#3E3E40;}
	.st6{clip-path:url(#SVGID_2_);fill:#3D3D3F;}
	.st7{clip-path:url(#SVGID_2_);fill:#3C3C3E;}
	.st8{clip-path:url(#SVGID_2_);fill:#3B3B3D;}
	.st9{clip-path:url(#SVGID_2_);fill:#3A3A3C;}
	.st10{clip-path:url(#SVGID_2_);fill:#39393B;}
	.st11{clip-path:url(#SVGID_2_);fill:#38383A;}
	.st12{clip-path:url(#SVGID_2_);fill:#373739;}
	.st13{clip-path:url(#SVGID_2_);fill:#363638;}
	.st14{clip-path:url(#SVGID_2_);fill:#353537;}
	.st15{clip-path:url(#SVGID_2_);fill:#343436;}
	.st16{clip-path:url(#SVGID_2_);fill:#333335;}
	.st17{clip-path:url(#SVGID_2_);fill:#323234;}
	.st18{clip-path:url(#SVGID_2_);fill:#313133;}
	.st19{clip-path:url(#SVGID_2_);fill:#303032;}
	.st20{clip-path:url(#SVGID_2_);fill:#2F2F31;}
	.st21{clip-path:url(#SVGID_2_);fill:#2E2E30;}
	.st22{clip-path:url(#SVGID_2_);fill:#2D2D2F;}
	.st23{clip-path:url(#SVGID_2_);fill:#2C2C2E;}
	.st24{clip-path:url(#SVGID_2_);fill:#2B2B2D;}
	.st25{clip-path:url(#SVGID_2_);fill:#2A2B2C;}
	.st26{clip-path:url(#SVGID_2_);fill:#292A2A;}
	.st27{clip-path:url(#SVGID_2_);fill:#282929;}
	.st28{clip-path:url(#SVGID_2_);fill:#272828;}
	.st29{clip-path:url(#SVGID_2_);fill:#262727;}
	.st30{clip-path:url(#SVGID_2_);fill:#252626;}
	.st31{clip-path:url(#SVGID_2_);fill:#242525;}
	.st32{clip-path:url(#SVGID_2_);fill:#232424;}
	.st33{clip-path:url(#SVGID_2_);fill:#222323;}
	.st34{clip-path:url(#SVGID_2_);fill:#212222;}
	.st35{clip-path:url(#SVGID_2_);fill:#202121;}
	.st36{clip-path:url(#SVGID_2_);fill:#1F2020;}
	.st37{clip-path:url(#SVGID_2_);fill:#1E1F1F;}
	.st38{clip-path:url(#SVGID_2_);fill:#1D1E1E;}
	.st39{clip-path:url(#SVGID_2_);fill:#1C1D1D;}
	.st40{clip-path:url(#SVGID_2_);fill:#1B1C1C;}
	.st41{clip-path:url(#SVGID_2_);fill:#1A1B1B;}
	.st42{clip-path:url(#SVGID_2_);fill:#191A1A;}
	.st43{clip-path:url(#SVGID_2_);fill:#181919;}
	.st44{clip-path:url(#SVGID_2_);fill:#171818;}
	.st45{clip-path:url(#SVGID_2_);fill:#161717;}
	.st46{clip-path:url(#SVGID_2_);fill:#151616;}
	.st47{clip-path:url(#SVGID_2_);fill:#151515;}
	.st48{clip-path:url(#SVGID_2_);fill:#141414;}
	.st49{clip-path:url(#SVGID_2_);fill:#131313;}
	.st50{clip-path:url(#SVGID_2_);fill:#121212;}
	.st51{clip-path:url(#SVGID_2_);fill:#111111;}
	.st52{clip-path:url(#SVGID_2_);fill:#101010;}
	.st53{clip-path:url(#SVGID_2_);fill:#0F0F0F;}
	.st54{clip-path:url(#SVGID_2_);fill:#0E0E0E;}
	.st55{clip-path:url(#SVGID_2_);fill:#0D0D0D;}
	.st56{clip-path:url(#SVGID_2_);fill:#0C0C0C;}
	.st57{clip-path:url(#SVGID_2_);fill:#0B0B0B;}
	.st58{clip-path:url(#SVGID_2_);fill:#0A0A0A;}
	.st59{clip-path:url(#SVGID_2_);fill:#090909;}
	.st60{clip-path:url(#SVGID_2_);fill:#080808;}
	.st61{clip-path:url(#SVGID_2_);fill:#070707;}
	.st62{clip-path:url(#SVGID_2_);fill:#060606;}
	.st63{clip-path:url(#SVGID_2_);fill:#050505;}
	.st64{clip-path:url(#SVGID_2_);fill:#040404;}
	.st65{clip-path:url(#SVGID_2_);fill:#030303;}
	.st66{clip-path:url(#SVGID_2_);fill:#020202;}
	.st67{clip-path:url(#SVGID_2_);fill:#010101;}
	.st68{clip-path:url(#SVGID_2_);}
</style>
<g id="XMLID_380_">
	<g>
		<defs>
			<polygon id="SVGID_1_" points="354.5,282 403.2,261.5 413.9,241.8 342.3,206.7 391.9,135.4 354.5,117.6 368.2,93.8 365.2,75.2 
				354.5,81.1 363.2,62.8 358.1,31.7 303.5,0 0,0 301.9,523 420.3,317.9 419.4,296.7 			"/>
		</defs>
		<clipPath id="SVGID_2_">
			<use xlink:href="#SVGID_1_"  style="overflow:visible;"/>
		</clipPath>
		<polygon class="st0" points="0.6,0 0,0.6 0,0 		"/>
		<polygon class="st1" points="12.7,0 0,11.8 0,0.6 0.6,0 		"/>
		<polygon class="st2" points="24.8,0 0,23 0,11.8 12.7,0 		"/>
		<polygon class="st3" points="37,0 0,34.3 0,23 24.8,0 		"/>
		<polygon class="st4" points="49.1,0 0,45.5 0,34.3 37,0 		"/>
		<polygon class="st5" points="61.2,0 0,56.7 0,45.5 49.1,0 		"/>
		<polygon class="st6" points="73.3,0 0,68 0,56.7 61.2,0 		"/>
		<polygon class="st7" points="85.4,0 0,79.2 0,68 73.3,0 		"/>
		<polygon class="st8" points="97.5,0 0,90.4 0,79.2 85.4,0 		"/>
		<polygon class="st9" points="109.6,0 0,101.7 0,90.4 97.5,0 		"/>
		<polygon class="st10" points="121.7,0 0,112.9 0,101.7 109.6,0 		"/>
		<polygon class="st11" points="133.8,0 0,124.1 0,112.9 121.7,0 		"/>
		<polygon class="st12" points="145.9,0 0,135.4 0,124.1 133.8,0 		"/>
		<polygon class="st13" points="158.1,0 0,146.6 0,135.4 145.9,0 		"/>
		<polygon class="st14" points="170.2,0 0,157.8 0,146.6 158.1,0 		"/>
		<polygon class="st15" points="182.3,0 0,169.1 0,157.8 170.2,0 		"/>
		<polygon class="st16" points="194.4,0 0,180.3 0,169.1 182.3,0 		"/>
		<polygon class="st17" points="206.5,0 0,191.5 0,180.3 194.4,0 		"/>
		<polygon class="st18" points="218.6,0 1.2,201.7 0,200.4 0,191.5 206.5,0 		"/>
		<polygon class="st19" points="230.7,0 6.8,207.7 1.2,201.7 218.6,0 		"/>
		<polygon class="st20" points="242.8,0 12.4,213.7 6.8,207.7 230.7,0 		"/>
		<polygon class="st21" points="254.9,0 18,219.8 12.4,213.7 242.8,0 		"/>
		<polygon class="st22" points="267,0 23.6,225.8 18,219.8 254.9,0 		"/>
		<polygon class="st23" points="279.2,0 29.2,231.9 23.6,225.8 267,0 		"/>
		<polygon class="st24" points="291.3,0 34.8,237.9 29.2,231.9 279.2,0 		"/>
		<polygon class="st25" points="303.4,0 40.4,243.9 34.8,237.9 291.3,0 		"/>
		<polygon class="st26" points="315.5,0 46,250 40.4,243.9 303.4,0 		"/>
		<polygon class="st27" points="327.6,0 51.6,256 46,250 315.5,0 		"/>
		<polygon class="st28" points="331.4,0 335.2,4.1 57.2,262 51.6,256 327.6,0 		"/>
		<rect x="9.4" y="132" transform="matrix(0.7332 -0.68 0.68 0.7332 -39.4564 171.6574)" class="st29" width="379.2" height="8.2"/>
		<rect x="15" y="138" transform="matrix(0.7332 -0.68 0.68 0.7332 -42.0681 177.077)" class="st30" width="379.2" height="8.2"/>
		
			<rect x="20.6" y="144.1" transform="matrix(0.7332 -0.68 0.68 0.7332 -44.6798 182.4965)" class="st31" width="379.2" height="8.2"/>
		
			<rect x="26.2" y="150.1" transform="matrix(0.7332 -0.68 0.68 0.7332 -47.2914 187.916)" class="st32" width="379.2" height="8.2"/>
		
			<rect x="31.8" y="156.1" transform="matrix(0.7332 -0.68 0.68 0.7332 -49.9031 193.3356)" class="st33" width="379.2" height="8.2"/>
		
			<rect x="37.4" y="162.2" transform="matrix(0.7332 -0.68 0.68 0.7332 -52.5148 198.7551)" class="st34" width="379.2" height="8.2"/>
		
			<rect x="43" y="168.2" transform="matrix(0.7332 -0.68 0.68 0.7332 -55.1265 204.1747)" class="st35" width="379.2" height="8.2"/>
		
			<rect x="48.6" y="174.3" transform="matrix(0.7332 -0.68 0.68 0.7332 -57.7382 209.5942)" class="st36" width="379.2" height="8.2"/>
		
			<rect x="54.2" y="180.3" transform="matrix(0.7332 -0.68 0.68 0.7332 -60.3499 215.0137)" class="st37" width="379.2" height="8.2"/>
		
			<rect x="59.8" y="186.3" transform="matrix(0.7332 -0.68 0.68 0.7332 -62.9616 220.4333)" class="st38" width="379.2" height="8.2"/>
		
			<rect x="65.4" y="192.4" transform="matrix(0.7332 -0.68 0.68 0.7332 -65.5732 225.8528)" class="st39" width="379.2" height="8.2"/>
		
			<rect x="71" y="198.4" transform="matrix(0.7332 -0.68 0.68 0.7332 -68.1849 231.2724)" class="st40" width="379.2" height="8.2"/>
		
			<rect x="76.6" y="204.4" transform="matrix(0.7332 -0.68 0.68 0.7332 -70.7966 236.6919)" class="st41" width="379.2" height="8.2"/>
		
			<rect x="82.2" y="210.5" transform="matrix(0.7332 -0.68 0.68 0.7332 -73.4083 242.1114)" class="st42" width="379.2" height="8.2"/>
		<rect x="87.8" y="216.5" transform="matrix(0.7332 -0.68 0.68 0.7332 -76.02 247.531)" class="st43" width="379.2" height="8.2"/>
		<polygon class="st44" points="419.2,94.7 420.3,95.9 420.3,104.9 146.8,358.6 141.2,352.6 		"/>
		<polygon class="st45" points="420.3,116.2 152.4,364.7 146.8,358.6 420.3,104.9 		"/>
		<polygon class="st46" points="420.3,127.4 158,370.7 152.4,364.7 420.3,116.2 		"/>
		<polygon class="st47" points="420.3,138.6 163.6,376.8 158,370.7 420.3,127.4 		"/>
		<polygon class="st48" points="420.3,149.9 169.2,382.8 163.6,376.8 420.3,138.6 		"/>
		<polygon class="st49" points="420.3,161.1 174.8,388.8 169.2,382.8 420.3,149.9 		"/>
		<polygon class="st50" points="420.3,172.3 180.4,394.9 174.8,388.8 420.3,161.1 		"/>
		<polygon class="st51" points="420.3,183.6 186,400.9 180.4,394.9 420.3,172.3 		"/>
		<polygon class="st52" points="420.3,194.8 191.6,407 186,400.9 420.3,183.6 		"/>
		<polygon class="st53" points="420.3,206 197.2,413 191.6,407 420.3,194.8 		"/>
		<polygon class="st54" points="420.3,217.2 202.8,419 197.2,413 420.3,206 		"/>
		<polygon class="st55" points="420.3,228.5 208.4,425.1 202.8,419 420.3,217.2 		"/>
		<polygon class="st56" points="420.3,239.7 214,431.1 208.4,425.1 420.3,228.5 		"/>
		<polygon class="st57" points="420.3,250.9 219.6,437.1 214,431.1 420.3,239.7 		"/>
		<polygon class="st58" points="420.3,262.2 225.2,443.2 219.6,437.1 420.3,250.9 		"/>
		<polygon class="st59" points="420.3,273.4 230.8,449.2 225.2,443.2 420.3,262.2 		"/>
		<polygon class="st60" points="420.3,284.6 236.4,455.3 230.8,449.2 420.3,273.4 		"/>
		<polygon class="st61" points="420.3,295.9 242,461.3 236.4,455.3 420.3,284.6 		"/>
		<polygon class="st62" points="420.3,307.1 247.6,467.3 242,461.3 420.3,295.9 		"/>
		<polygon class="st63" points="420.3,318.3 253.2,473.4 247.6,467.3 420.3,307.1 		"/>
		<polygon class="st64" points="420.3,329.6 258.8,479.4 253.2,473.4 420.3,318.3 		"/>
		<polygon class="st65" points="420.3,340.8 264.4,485.4 258.8,479.4 420.3,329.6 		"/>
		<polygon class="st66" points="420.3,352 270,491.5 264.4,485.4 420.3,340.8 		"/>
		<polygon class="st67" points="420.3,363.3 275.6,497.5 270,491.5 420.3,352 		"/>
		<polygon class="st68" points="420.3,374.5 281.2,503.6 275.6,497.5 420.3,363.3 		"/>
		<polygon class="st68" points="299.2,523 281.2,503.6 420.3,374.5 420.3,523 		"/>
	</g>
</g>
</svg>
