<?xml version="1.0" encoding="utf-8"?>
<!-- Generator: Adobe Illustrator 21.0.2, SVG Export Plug-In . SVG Version: 6.00 Build 0)  -->
<svg version="1.1" id="Layer_1" xmlns="http://www.w3.org/2000/svg" xmlns:xlink="http://www.w3.org/1999/xlink" x="0px" y="0px"
	 viewBox="0 0 471.1 97.2" style="enable-background:new 0 0 471.1 97.2;" xml:space="preserve">
<style type="text/css">
	.st0{clip-path:url(#SVGID_2_);fill:#FFFFFF;}
	.st1{clip-path:url(#SVGID_2_);fill:#FEFEFE;}
	.st2{clip-path:url(#SVGID_2_);fill:#FDFDFD;}
	.st3{clip-path:url(#SVGID_2_);fill:#FCFCFC;}
	.st4{clip-path:url(#SVGID_2_);fill:#FBFBFC;}
	.st5{clip-path:url(#SVGID_2_);fill:#FBFBFB;}
	.st6{clip-path:url(#SVGID_2_);fill:#FAFBFB;}
	.st7{clip-path:url(#SVGID_2_);fill:#FAFAFA;}
	.st8{clip-path:url(#SVGID_2_);fill:#F9F9F9;}
	.st9{clip-path:url(#SVGID_2_);fill:#F8F9F9;}
	.st10{clip-path:url(#SVGID_2_);fill:#F8F8F8;}
	.st11{clip-path:url(#SVGID_2_);fill:#F7F7F7;}
	.st12{clip-path:url(#SVGID_2_);fill:#F6F6F6;}
	.st13{clip-path:url(#SVGID_2_);fill:#F5F5F5;}
	.st14{clip-path:url(#SVGID_2_);fill:#F4F5F5;}
	.st15{clip-path:url(#SVGID_2_);fill:#F4F4F4;}
	.st16{clip-path:url(#SVGID_2_);fill:#F3F3F4;}
	.st17{clip-path:url(#SVGID_2_);fill:#F3F3F3;}
	.st18{clip-path:url(#SVGID_2_);fill:#F2F2F2;}
	.st19{clip-path:url(#SVGID_2_);fill:#F1F1F2;}
	.st20{clip-path:url(#SVGID_2_);fill:#F1F1F1;}
	.st21{clip-path:url(#SVGID_2_);fill:#F0F0F0;}
	.st22{clip-path:url(#SVGID_2_);fill:#EFEFF0;}
	.st23{clip-path:url(#SVGID_2_);fill:#EEEFEF;}
	.st24{clip-path:url(#SVGID_2_);fill:#EEEEEE;}
	.st25{clip-path:url(#SVGID_2_);fill:#EDEDED;}
	.st26{clip-path:url(#SVGID_2_);fill:#ECECED;}
	.st27{clip-path:url(#SVGID_2_);fill:#EBEBEC;}
	.st28{clip-path:url(#SVGID_2_);fill:#EAEBEB;}
	.st29{clip-path:url(#SVGID_2_);fill:#E9EAEA;}
	.st30{clip-path:url(#SVGID_2_);fill:#E8E9E9;}
	.st31{clip-path:url(#SVGID_2_);fill:#E7E8E8;}
	.st32{clip-path:url(#SVGID_2_);fill:#E6E7E7;}
	.st33{clip-path:url(#SVGID_2_);fill:#E5E6E6;}
	.st34{clip-path:url(#SVGID_2_);fill:#E4E5E5;}
	.st35{clip-path:url(#SVGID_2_);fill:#E3E4E4;}
	.st36{clip-path:url(#SVGID_2_);fill:#E2E3E3;}
	.st37{clip-path:url(#SVGID_2_);fill:#E1E2E2;}
	.st38{clip-path:url(#SVGID_2_);fill:#E0E1E1;}
	.st39{clip-path:url(#SVGID_2_);fill:#DFE0E0;}
	.st40{clip-path:url(#SVGID_2_);fill:#DEDEDF;}
	.st41{clip-path:url(#SVGID_2_);fill:#DDDDDE;}
	.st42{clip-path:url(#SVGID_2_);fill:#DCDCDD;}
	.st43{clip-path:url(#SVGID_2_);fill:#DADBDC;}
	.st44{clip-path:url(#SVGID_2_);fill:#D9DADA;}
	.st45{clip-path:url(#SVGID_2_);fill:#D8D8D9;}
	.st46{clip-path:url(#SVGID_2_);fill:#D6D7D8;}
	.st47{clip-path:url(#SVGID_2_);fill:#D5D6D7;}
	.st48{clip-path:url(#SVGID_2_);fill:#D4D4D5;}
	.st49{clip-path:url(#SVGID_2_);fill:#D2D3D4;}
	.st50{clip-path:url(#SVGID_2_);fill:#D1D2D3;}
	.st51{clip-path:url(#SVGID_2_);fill:#D0D0D1;}
	.st52{clip-path:url(#SVGID_2_);fill:#CECFD0;}
	.st53{clip-path:url(#SVGID_2_);fill:#CDCDCE;}
	.st54{clip-path:url(#SVGID_2_);fill:#CBCCCD;}
	.st55{clip-path:url(#SVGID_2_);fill:#CACACB;}
	.st56{clip-path:url(#SVGID_2_);fill:#C8C9CA;}
	.st57{clip-path:url(#SVGID_2_);fill:#C6C7C8;}
	.st58{clip-path:url(#SVGID_2_);fill:#C5C6C7;}
	.st59{clip-path:url(#SVGID_2_);fill:#C3C4C5;}
	.st60{clip-path:url(#SVGID_2_);fill:#C1C2C3;}
	.st61{clip-path:url(#SVGID_2_);fill:#C0C1C2;}
	.st62{clip-path:url(#SVGID_2_);fill:#BEBFC0;}
	.st63{clip-path:url(#SVGID_2_);fill:#BCBDBE;}
	.st64{clip-path:url(#SVGID_2_);fill:#BABBBD;}
	.st65{clip-path:url(#SVGID_2_);fill:#B9BABB;}
	.st66{clip-path:url(#SVGID_2_);fill:#B7B8B9;}
	.st67{clip-path:url(#SVGID_2_);fill:#B5B6B7;}
	.st68{clip-path:url(#SVGID_2_);fill:#B3B4B5;}
	.st69{clip-path:url(#SVGID_2_);fill:#B1B2B3;}
	.st70{clip-path:url(#SVGID_2_);fill:#AFB0B2;}
	.st71{clip-path:url(#SVGID_2_);fill:#ADAEB0;}
	.st72{clip-path:url(#SVGID_2_);fill:#ABACAE;}
	.st73{clip-path:url(#SVGID_2_);fill:#A9AAAC;}
	.st74{clip-path:url(#SVGID_2_);fill:#A7A8AA;}
	.st75{clip-path:url(#SVGID_2_);fill:#A5A6A8;}
	.st76{clip-path:url(#SVGID_2_);fill:#A2A4A5;}
	.st77{clip-path:url(#SVGID_2_);fill:#A0A2A3;}
	.st78{clip-path:url(#SVGID_2_);fill:#9EA0A1;}
	.st79{clip-path:url(#SVGID_2_);fill:#9C9D9F;}
	.st80{clip-path:url(#SVGID_2_);fill:#999B9D;}
	.st81{clip-path:url(#SVGID_2_);fill:#97999B;}
	.st82{clip-path:url(#SVGID_2_);fill:#959798;}
	.st83{clip-path:url(#SVGID_2_);fill:#929496;}
	.st84{clip-path:url(#SVGID_2_);fill:#909294;}
	.st85{clip-path:url(#SVGID_2_);fill:#8E8F91;}
	.st86{clip-path:url(#SVGID_2_);fill:#8B8D8F;}
	.st87{clip-path:url(#SVGID_2_);fill:#898B8C;}
	.st88{clip-path:url(#SVGID_2_);fill:#86888A;}
</style>
<g id="XMLID_22_">
	<g>
		<defs>
			<ellipse id="SVGID_1_" cx="235.6" cy="48.6" rx="235.6" ry="48.6"/>
		</defs>
		<clipPath id="SVGID_2_">
			<use xlink:href="#SVGID_1_"  style="overflow:visible;"/>
		</clipPath>
		<rect x="0" y="0" class="st0" width="471.1" height="97.2"/>
		<ellipse class="st0" cx="235.6" cy="48.6" rx="212.4" ry="43.8"/>
		<ellipse class="st0" cx="235.6" cy="48.6" rx="210.6" ry="43.4"/>
		<ellipse class="st0" cx="235.6" cy="48.6" rx="208.8" ry="43.1"/>
		<ellipse class="st0" cx="235.6" cy="48.6" rx="207.1" ry="42.7"/>
		<ellipse class="st0" cx="235.6" cy="48.6" rx="205.3" ry="42.4"/>
		<ellipse class="st0" cx="235.6" cy="48.6" rx="203.6" ry="42"/>
		<ellipse class="st0" cx="235.6" cy="48.6" rx="201.8" ry="41.6"/>
		<ellipse class="st0" cx="235.6" cy="48.6" rx="200.1" ry="41.3"/>
		<ellipse class="st0" cx="235.6" cy="48.6" rx="198.3" ry="40.9"/>
		<ellipse class="st0" cx="235.6" cy="48.6" rx="196.6" ry="40.5"/>
		<ellipse class="st0" cx="235.6" cy="48.6" rx="194.8" ry="40.2"/>
		<ellipse class="st0" cx="235.6" cy="48.6" rx="193" ry="39.8"/>
		<ellipse class="st0" cx="235.6" cy="48.6" rx="191.3" ry="39.5"/>
		<ellipse class="st0" cx="235.6" cy="48.6" rx="189.5" ry="39.1"/>
		<ellipse class="st1" cx="235.6" cy="48.6" rx="187.8" ry="38.7"/>
		<ellipse class="st1" cx="235.6" cy="48.6" rx="186" ry="38.4"/>
		<ellipse class="st1" cx="235.6" cy="48.6" rx="184.3" ry="38"/>
		<ellipse class="st1" cx="235.6" cy="48.6" rx="182.5" ry="37.6"/>
		<ellipse class="st1" cx="235.6" cy="48.6" rx="180.8" ry="37.3"/>
		<ellipse class="st1" cx="235.6" cy="48.6" rx="179" ry="36.9"/>
		<ellipse class="st1" cx="235.6" cy="48.6" rx="177.3" ry="36.6"/>
		<ellipse class="st1" cx="235.6" cy="48.6" rx="175.5" ry="36.2"/>
		<ellipse class="st2" cx="235.6" cy="48.6" rx="173.7" ry="35.8"/>
		<ellipse class="st2" cx="235.6" cy="48.6" rx="172" ry="35.5"/>
		<ellipse class="st2" cx="235.6" cy="48.6" rx="170.2" ry="35.1"/>
		<ellipse class="st2" cx="235.6" cy="48.6" rx="168.5" ry="34.8"/>
		<ellipse class="st2" cx="235.6" cy="48.6" rx="166.7" ry="34.4"/>
		<ellipse class="st3" cx="235.6" cy="48.6" rx="165" ry="34"/>
		<ellipse class="st3" cx="235.6" cy="48.6" rx="163.2" ry="33.7"/>
		<ellipse class="st3" cx="235.6" cy="48.6" rx="161.5" ry="33.3"/>
		<ellipse class="st4" cx="235.6" cy="48.6" rx="159.7" ry="32.9"/>
		<ellipse class="st5" cx="235.6" cy="48.6" rx="157.9" ry="32.6"/>
		<ellipse class="st5" cx="235.6" cy="48.6" rx="156.2" ry="32.2"/>
		<ellipse class="st6" cx="235.6" cy="48.6" rx="154.4" ry="31.9"/>
		<ellipse class="st7" cx="235.6" cy="48.6" rx="152.7" ry="31.5"/>
		<ellipse class="st7" cx="235.6" cy="48.6" rx="150.9" ry="31.1"/>
		<ellipse class="st8" cx="235.6" cy="48.6" rx="149.2" ry="30.8"/>
		<ellipse class="st8" cx="235.6" cy="48.6" rx="147.4" ry="30.4"/>
		<ellipse class="st9" cx="235.6" cy="48.6" rx="145.7" ry="30"/>
		<ellipse class="st10" cx="235.6" cy="48.6" rx="143.9" ry="29.7"/>
		<ellipse class="st10" cx="235.6" cy="48.6" rx="142.2" ry="29.3"/>
		<ellipse class="st11" cx="235.6" cy="48.6" rx="140.4" ry="29"/>
		<ellipse class="st11" cx="235.6" cy="48.6" rx="138.6" ry="28.6"/>
		<ellipse class="st12" cx="235.6" cy="48.6" rx="136.9" ry="28.2"/>
		<ellipse class="st12" cx="235.6" cy="48.6" rx="135.1" ry="27.9"/>
		<ellipse class="st13" cx="235.6" cy="48.6" rx="133.4" ry="27.5"/>
		<ellipse class="st14" cx="235.6" cy="48.6" rx="131.6" ry="27.1"/>
		<ellipse class="st15" cx="235.6" cy="48.6" rx="129.9" ry="26.8"/>
		<ellipse class="st16" cx="235.6" cy="48.6" rx="128.1" ry="26.4"/>
		<ellipse class="st17" cx="235.6" cy="48.6" rx="126.4" ry="26.1"/>
		<ellipse class="st18" cx="235.6" cy="48.6" rx="124.6" ry="25.7"/>
		<ellipse class="st19" cx="235.6" cy="48.6" rx="122.8" ry="25.3"/>
		<ellipse class="st20" cx="235.6" cy="48.6" rx="121.1" ry="25"/>
		<ellipse class="st21" cx="235.6" cy="48.6" rx="119.3" ry="24.6"/>
		<ellipse class="st22" cx="235.6" cy="48.6" rx="117.6" ry="24.3"/>
		<ellipse class="st23" cx="235.6" cy="48.6" rx="115.8" ry="23.9"/>
		<ellipse class="st24" cx="235.6" cy="48.6" rx="114.1" ry="23.5"/>
		<ellipse class="st25" cx="235.6" cy="48.6" rx="112.3" ry="23.2"/>
		<ellipse class="st26" cx="235.6" cy="48.6" rx="110.6" ry="22.8"/>
		<ellipse class="st27" cx="235.6" cy="48.6" rx="108.8" ry="22.4"/>
		<ellipse class="st28" cx="235.6" cy="48.6" rx="107.1" ry="22.1"/>
		<ellipse class="st29" cx="235.6" cy="48.6" rx="105.3" ry="21.7"/>
		<ellipse class="st30" cx="235.6" cy="48.6" rx="103.5" ry="21.4"/>
		<ellipse class="st31" cx="235.6" cy="48.6" rx="101.8" ry="21"/>
		<ellipse class="st32" cx="235.6" cy="48.6" rx="100" ry="20.6"/>
		<ellipse class="st33" cx="235.6" cy="48.6" rx="98.3" ry="20.3"/>
		<ellipse class="st34" cx="235.6" cy="48.6" rx="96.5" ry="19.9"/>
		<ellipse class="st35" cx="235.6" cy="48.6" rx="94.8" ry="19.5"/>
		<ellipse class="st36" cx="235.6" cy="48.6" rx="93" ry="19.2"/>
		<ellipse class="st37" cx="235.6" cy="48.6" rx="91.3" ry="18.8"/>
		<ellipse class="st38" cx="235.6" cy="48.6" rx="89.5" ry="18.5"/>
		<ellipse class="st39" cx="235.6" cy="48.6" rx="87.7" ry="18.1"/>
		<ellipse class="st40" cx="235.6" cy="48.6" rx="86" ry="17.7"/>
		<ellipse class="st41" cx="235.6" cy="48.6" rx="84.2" ry="17.4"/>
		<ellipse class="st42" cx="235.6" cy="48.6" rx="82.5" ry="17"/>
		<ellipse class="st43" cx="235.6" cy="48.6" rx="80.7" ry="16.7"/>
		<ellipse class="st44" cx="235.6" cy="48.6" rx="79" ry="16.3"/>
		<ellipse class="st45" cx="235.6" cy="48.6" rx="77.2" ry="15.9"/>
		<ellipse class="st46" cx="235.6" cy="48.6" rx="75.5" ry="15.6"/>
		<ellipse class="st47" cx="235.6" cy="48.6" rx="73.7" ry="15.2"/>
		<ellipse class="st48" cx="235.6" cy="48.6" rx="72" ry="14.8"/>
		<ellipse class="st49" cx="235.6" cy="48.6" rx="70.2" ry="14.5"/>
		<ellipse class="st50" cx="235.6" cy="48.6" rx="68.4" ry="14.1"/>
		<ellipse class="st51" cx="235.6" cy="48.6" rx="66.7" ry="13.8"/>
		<ellipse class="st52" cx="235.6" cy="48.6" rx="64.9" ry="13.4"/>
		<ellipse class="st53" cx="235.6" cy="48.6" rx="63.2" ry="13"/>
		<ellipse class="st54" cx="235.6" cy="48.6" rx="61.4" ry="12.7"/>
		<ellipse class="st55" cx="235.6" cy="48.6" rx="59.7" ry="12.3"/>
		<ellipse class="st56" cx="235.6" cy="48.6" rx="57.9" ry="11.9"/>
		<ellipse class="st57" cx="235.6" cy="48.6" rx="56.2" ry="11.6"/>
		<ellipse class="st58" cx="235.6" cy="48.6" rx="54.4" ry="11.2"/>
		<ellipse class="st59" cx="235.6" cy="48.6" rx="52.6" ry="10.9"/>
		<ellipse class="st60" cx="235.6" cy="48.6" rx="50.9" ry="10.5"/>
		<ellipse class="st61" cx="235.6" cy="48.6" rx="49.1" ry="10.1"/>
		<ellipse class="st62" cx="235.6" cy="48.6" rx="47.4" ry="9.8"/>
		<ellipse class="st63" cx="235.6" cy="48.6" rx="45.6" ry="9.4"/>
		<ellipse class="st64" cx="235.6" cy="48.6" rx="43.9" ry="9"/>
		<ellipse class="st65" cx="235.6" cy="48.6" rx="42.1" ry="8.7"/>
		<ellipse class="st66" cx="235.6" cy="48.6" rx="40.4" ry="8.3"/>
		<ellipse class="st67" cx="235.6" cy="48.6" rx="38.6" ry="8"/>
		<ellipse class="st68" cx="235.6" cy="48.6" rx="36.9" ry="7.6"/>
		<ellipse class="st69" cx="235.6" cy="48.6" rx="35.1" ry="7.2"/>
		<ellipse class="st70" cx="235.6" cy="48.6" rx="33.3" ry="6.9"/>
		<ellipse class="st71" cx="235.6" cy="48.6" rx="31.6" ry="6.5"/>
		<ellipse class="st72" cx="235.6" cy="48.6" rx="29.8" ry="6.2"/>
		<ellipse class="st73" cx="235.6" cy="48.6" rx="28.1" ry="5.8"/>
		<ellipse class="st74" cx="235.6" cy="48.6" rx="26.3" ry="5.4"/>
		<ellipse class="st75" cx="235.6" cy="48.6" rx="24.6" ry="5.1"/>
		<ellipse class="st76" cx="235.6" cy="48.6" rx="22.8" ry="4.7"/>
		<ellipse class="st77" cx="235.6" cy="48.6" rx="21.1" ry="4.3"/>
		<ellipse class="st78" cx="235.6" cy="48.6" rx="19.3" ry="4"/>
		<ellipse class="st79" cx="235.6" cy="48.6" rx="17.5" ry="3.6"/>
		<ellipse class="st80" cx="235.6" cy="48.6" rx="15.8" ry="3.3"/>
		<ellipse class="st81" cx="235.6" cy="48.6" rx="14" ry="2.9"/>
		<ellipse class="st82" cx="235.6" cy="48.6" rx="12.3" ry="2.5"/>
		<ellipse class="st83" cx="235.6" cy="48.6" rx="10.5" ry="2.2"/>
		<ellipse class="st84" cx="235.6" cy="48.6" rx="8.8" ry="1.8"/>
		<ellipse class="st85" cx="235.6" cy="48.6" rx="7" ry="1.4"/>
		<ellipse class="st86" cx="235.6" cy="48.6" rx="5.3" ry="1.1"/>
		<ellipse class="st87" cx="235.6" cy="48.6" rx="3.5" ry="0.7"/>
		<ellipse class="st88" cx="235.6" cy="48.6" rx="1.8" ry="0.4"/>
	</g>
</g>
</svg>
