<?xml version="1.0" encoding="utf-8"?>
<!-- Generator: Adobe Illustrator 21.0.2, SVG Export Plug-In . SVG Version: 6.00 Build 0)  -->
<svg version="1.1" id="Layer_1" xmlns="http://www.w3.org/2000/svg" xmlns:xlink="http://www.w3.org/1999/xlink" x="0px" y="0px"
	 viewBox="0 0 1032 1032" style="enable-background:new 0 0 1032 1032;" xml:space="preserve">
<style type="text/css">
	.st0{clip-path:url(#XMLID_2_);fill:#D0D0D0;}
	.st1{clip-path:url(#XMLID_2_);fill:#D1D1D1;}
	.st2{clip-path:url(#XMLID_2_);fill:#D2D2D2;}
	.st3{clip-path:url(#XMLID_2_);fill:#D3D3D3;}
	.st4{clip-path:url(#XMLID_2_);fill:#D4D4D4;}
	.st5{clip-path:url(#XMLID_2_);fill:#D5D5D5;}
	.st6{clip-path:url(#XMLID_2_);fill:#D6D6D6;}
	.st7{clip-path:url(#XMLID_2_);fill:#D7D7D7;}
	.st8{clip-path:url(#XMLID_2_);fill:#D8D8D8;}
	.st9{clip-path:url(#XMLID_2_);fill:#D9D9D9;}
	.st10{clip-path:url(#XMLID_2_);fill:#DADADA;}
	.st11{clip-path:url(#XMLID_2_);fill:#DBDBDB;}
	.st12{clip-path:url(#XMLID_2_);fill:#DCDCDC;}
	.st13{clip-path:url(#XMLID_2_);fill:#DDDDDD;}
	.st14{clip-path:url(#XMLID_2_);fill:#DEDEDE;}
	.st15{clip-path:url(#XMLID_2_);fill:#DFDFDF;}
	.st16{clip-path:url(#XMLID_2_);fill:#E0E0E0;}
	.st17{clip-path:url(#XMLID_2_);fill:#E1E1E1;}
	.st18{clip-path:url(#XMLID_2_);fill:#E2E2E2;}
	.st19{clip-path:url(#XMLID_2_);fill:#E3E3E3;}
	.st20{clip-path:url(#XMLID_2_);fill:#E5E5E5;}
	.st21{clip-path:url(#XMLID_2_);fill:#E6E6E6;}
	.st22{clip-path:url(#XMLID_2_);fill:#E7E7E7;}
	.st23{clip-path:url(#XMLID_2_);fill:#E8E8E8;}
	.st24{clip-path:url(#XMLID_2_);fill:#E9E9E9;}
	.st25{clip-path:url(#XMLID_2_);fill:#EAEAEA;}
	.st26{clip-path:url(#XMLID_2_);fill:#ECECEC;}
	.st27{clip-path:url(#XMLID_2_);fill:#EDEDED;}
	.st28{clip-path:url(#XMLID_2_);fill:#EEEEEE;}
	.st29{clip-path:url(#XMLID_2_);fill:#EFEFEF;}
	.st30{clip-path:url(#XMLID_2_);fill:#F0F0F0;}
	.st31{clip-path:url(#XMLID_2_);fill:#F2F2F2;}
	.st32{clip-path:url(#XMLID_2_);fill:#F3F3F3;}
	.st33{clip-path:url(#XMLID_2_);fill:#F4F4F4;}
	.st34{clip-path:url(#XMLID_2_);fill:#F6F6F6;}
	.st35{clip-path:url(#XMLID_2_);fill:#F7F7F7;}
	.st36{clip-path:url(#XMLID_2_);fill:#F8F8F8;}
	.st37{clip-path:url(#XMLID_2_);fill:#FAFAFA;}
	.st38{clip-path:url(#XMLID_2_);fill:#FBFBFB;}
	.st39{clip-path:url(#XMLID_2_);fill:#FCFCFC;}
	.st40{clip-path:url(#XMLID_2_);fill:#FEFEFE;}
	.st41{clip-path:url(#XMLID_2_);fill:#FFFFFF;}
</style>
<g id="XMLID_17_">
	<g id="XMLID_21_">
		<defs>
			<rect id="XMLID_28_" width="1032" height="1032"/>
		</defs>
		<clipPath id="XMLID_2_">
			<use xlink:href="#XMLID_28_"  style="overflow:visible;"/>
		</clipPath>
		<rect id="XMLID_35_" class="st0" width="1032" height="1032"/>
		
			<ellipse id="XMLID_50_" transform="matrix(0.7071 -0.7071 0.7071 0.7071 -213.7342 516)" class="st0" cx="516" cy="516" rx="516" ry="330.2"/>
		
			<ellipse id="XMLID_52_" transform="matrix(0.7071 -0.7071 0.7071 0.7071 -213.7342 516)" class="st0" cx="516" cy="516" rx="505" ry="323.2"/>
		
			<ellipse id="XMLID_53_" transform="matrix(0.7071 -0.7071 0.7071 0.7071 -213.7342 516)" class="st1" cx="516" cy="516" rx="494" ry="316.2"/>
		
			<ellipse id="XMLID_54_" transform="matrix(0.7071 -0.7071 0.7071 0.7071 -213.7342 516)" class="st1" cx="516" cy="516" rx="483.1" ry="309.2"/>
		
			<ellipse id="XMLID_58_" transform="matrix(0.7071 -0.7071 0.7071 0.7071 -213.7342 516)" class="st2" cx="516" cy="516" rx="472.1" ry="302.1"/>
		
			<ellipse id="XMLID_59_" transform="matrix(0.7071 -0.7071 0.7071 0.7071 -213.7342 516)" class="st2" cx="516" cy="516" rx="461.1" ry="295.1"/>
		
			<ellipse id="XMLID_60_" transform="matrix(0.7071 -0.7071 0.7071 0.7071 -213.7342 516)" class="st3" cx="516" cy="516" rx="450.1" ry="288.1"/>
		
			<ellipse id="XMLID_62_" transform="matrix(0.7071 -0.7071 0.7071 0.7071 -213.7342 516)" class="st4" cx="516" cy="516" rx="439.1" ry="281.1"/>
		
			<ellipse id="XMLID_63_" transform="matrix(0.7071 -0.7071 0.7071 0.7071 -213.7342 516)" class="st4" cx="516" cy="516" rx="428.2" ry="274"/>
		
			<ellipse id="XMLID_64_" transform="matrix(0.7071 -0.7071 0.7071 0.7071 -213.7342 516)" class="st5" cx="516" cy="516" rx="417.2" ry="267"/>
		
			<ellipse id="XMLID_66_" transform="matrix(0.7071 -0.7071 0.7071 0.7071 -213.7342 516)" class="st6" cx="516" cy="516" rx="406.2" ry="260"/>
		
			<ellipse id="XMLID_67_" transform="matrix(0.7071 -0.7071 0.7071 0.7071 -213.7342 516)" class="st7" cx="516" cy="516" rx="395.2" ry="252.9"/>
		
			<ellipse id="XMLID_68_" transform="matrix(0.7071 -0.7071 0.7071 0.7071 -213.7342 516)" class="st8" cx="516" cy="516" rx="384.3" ry="245.9"/>
		
			<ellipse id="XMLID_69_" transform="matrix(0.7071 -0.7071 0.7071 0.7071 -213.7342 516)" class="st8" cx="516" cy="516" rx="373.3" ry="238.9"/>
		
			<ellipse id="XMLID_70_" transform="matrix(0.7071 -0.7071 0.7071 0.7071 -213.7342 516)" class="st9" cx="516" cy="516" rx="362.3" ry="231.9"/>
		
			<ellipse id="XMLID_71_" transform="matrix(0.7071 -0.7071 0.7071 0.7071 -213.7342 516)" class="st10" cx="516" cy="516" rx="351.3" ry="224.8"/>
		
			<ellipse id="XMLID_72_" transform="matrix(0.7071 -0.7071 0.7071 0.7071 -213.7342 516)" class="st11" cx="516" cy="516" rx="340.3" ry="217.8"/>
		
			<ellipse id="XMLID_74_" transform="matrix(0.7071 -0.7071 0.7071 0.7071 -213.7342 516)" class="st12" cx="516" cy="516" rx="329.4" ry="210.8"/>
		
			<ellipse id="XMLID_75_" transform="matrix(0.7071 -0.7071 0.7071 0.7071 -213.7342 516)" class="st13" cx="516" cy="516" rx="318.4" ry="203.8"/>
		
			<ellipse id="XMLID_76_" transform="matrix(0.7071 -0.7071 0.7071 0.7071 -213.7342 516)" class="st14" cx="516" cy="516" rx="307.4" ry="196.7"/>
		
			<ellipse id="XMLID_78_" transform="matrix(0.7071 -0.7071 0.7071 0.7071 -213.7342 516)" class="st15" cx="516" cy="516" rx="296.4" ry="189.7"/>
		
			<ellipse id="XMLID_79_" transform="matrix(0.7071 -0.7071 0.7071 0.7071 -213.7342 516)" class="st16" cx="516" cy="516" rx="285.4" ry="182.7"/>
		
			<ellipse id="XMLID_81_" transform="matrix(0.7071 -0.7071 0.7071 0.7071 -213.7342 516)" class="st17" cx="516" cy="516" rx="274.5" ry="175.7"/>
		
			<ellipse id="XMLID_83_" transform="matrix(0.7071 -0.7071 0.7071 0.7071 -213.7342 516)" class="st18" cx="516" cy="516" rx="263.5" ry="168.6"/>
		
			<ellipse id="XMLID_84_" transform="matrix(0.7071 -0.7071 0.7071 0.7071 -213.7342 516)" class="st19" cx="516" cy="516" rx="252.5" ry="161.6"/>
		
			<ellipse id="XMLID_86_" transform="matrix(0.7071 -0.7071 0.7071 0.7071 -213.7342 516)" class="st20" cx="516" cy="516" rx="241.5" ry="154.6"/>
		
			<ellipse id="XMLID_87_" transform="matrix(0.7071 -0.7071 0.7071 0.7071 -213.7342 516)" class="st21" cx="516" cy="516" rx="230.6" ry="147.6"/>
		
			<ellipse id="XMLID_89_" transform="matrix(0.7071 -0.7071 0.7071 0.7071 -213.7342 516)" class="st22" cx="516" cy="516" rx="219.6" ry="140.5"/>
		
			<ellipse id="XMLID_90_" transform="matrix(0.7071 -0.7071 0.7071 0.7071 -213.7342 516)" class="st23" cx="516" cy="516" rx="208.6" ry="133.5"/>
		
			<ellipse id="XMLID_91_" transform="matrix(0.7071 -0.7071 0.7071 0.7071 -213.7342 516)" class="st24" cx="516" cy="516" rx="197.6" ry="126.5"/>
		
			<ellipse id="XMLID_94_" transform="matrix(0.7071 -0.7071 0.7071 0.7071 -213.7342 516)" class="st25" cx="516" cy="516" rx="186.6" ry="119.4"/>
		
			<ellipse id="XMLID_95_" transform="matrix(0.7071 -0.7071 0.7071 0.7071 -213.7342 516)" class="st26" cx="516" cy="516" rx="175.7" ry="112.4"/>
		
			<ellipse id="XMLID_96_" transform="matrix(0.7071 -0.7071 0.7071 0.7071 -213.7342 516)" class="st27" cx="516" cy="516" rx="164.7" ry="105.4"/>
		
			<ellipse id="XMLID_97_" transform="matrix(0.7071 -0.7071 0.7071 0.7071 -213.7342 516)" class="st28" cx="516" cy="516" rx="153.7" ry="98.4"/>
		
			<ellipse id="XMLID_98_" transform="matrix(0.7071 -0.7071 0.7071 0.7071 -213.7342 516)" class="st29" cx="516" cy="516" rx="142.7" ry="91.3"/>
		
			<ellipse id="XMLID_99_" transform="matrix(0.7071 -0.7071 0.7071 0.7071 -213.7342 516)" class="st30" cx="516" cy="516" rx="131.7" ry="84.3"/>
		
			<ellipse id="XMLID_101_" transform="matrix(0.7071 -0.7071 0.7071 0.7071 -213.7342 516)" class="st31" cx="516" cy="516" rx="120.8" ry="77.3"/>
		
			<ellipse id="XMLID_102_" transform="matrix(0.7071 -0.7071 0.7071 0.7071 -213.7342 516)" class="st32" cx="516" cy="516" rx="109.8" ry="70.3"/>
		
			<ellipse id="XMLID_103_" transform="matrix(0.7071 -0.7071 0.7071 0.7071 -213.7342 516)" class="st33" cx="516" cy="516" rx="98.8" ry="63.2"/>
		
			<ellipse id="XMLID_104_" transform="matrix(0.7071 -0.7071 0.7071 0.7071 -213.7342 516)" class="st34" cx="516" cy="516" rx="87.8" ry="56.2"/>
		
			<ellipse id="XMLID_105_" transform="matrix(0.7071 -0.7071 0.7071 0.7071 -213.7342 516)" class="st35" cx="516" cy="516" rx="76.9" ry="49.2"/>
		
			<ellipse id="XMLID_106_" transform="matrix(0.7071 -0.7071 0.7071 0.7071 -213.7342 516)" class="st36" cx="516" cy="516" rx="65.9" ry="42.2"/>
		
			<ellipse id="XMLID_219_" transform="matrix(0.7071 -0.7071 0.7071 0.7071 -213.7342 516)" class="st37" cx="516" cy="516" rx="54.9" ry="35.1"/>
		
			<ellipse id="XMLID_230_" transform="matrix(0.7071 -0.7071 0.7071 0.7071 -213.7342 516)" class="st38" cx="516" cy="516" rx="43.9" ry="28.1"/>
		
			<ellipse id="XMLID_231_" transform="matrix(0.7071 -0.7071 0.7071 0.7071 -213.7342 516)" class="st39" cx="516" cy="516" rx="32.9" ry="21.1"/>
		
			<ellipse id="XMLID_232_" transform="matrix(0.7071 -0.7071 0.7071 0.7071 -213.7342 516)" class="st40" cx="516" cy="516" rx="22" ry="14.1"/>
		
			<ellipse id="XMLID_236_" transform="matrix(0.7071 -0.7071 0.7071 0.7071 -213.7342 516)" class="st41" cx="516" cy="516" rx="11" ry="7"/>
	</g>
</g>
</svg>
