<?xml version="1.0" encoding="utf-8"?>
<!-- Generator: Adobe Illustrator 21.0.2, SVG Export Plug-In . SVG Version: 6.00 Build 0)  -->
<svg version="1.1" id="Layer_1" xmlns="http://www.w3.org/2000/svg" xmlns:xlink="http://www.w3.org/1999/xlink" x="0px" y="0px"
	 viewBox="0 0 93 82" style="enable-background:new 0 0 93 82;" xml:space="preserve">
<style type="text/css">
	.st0{fill:#CCEFF0;}
	.st1{fill:#006F7F;}
	.st2{fill:#FFFFFF;}
	.st3{fill:#CCF7F6;}
</style>
<g id="Layer_2">
	<g id="Layer_1-2">
		<g>
			<path class="st0" d="M75.6,21.5v39h5.7c5.1-0.1,9.6,3.6,10.4,8.7c0.8,5.6-3,10.8-8.6,11.7c-0.5,0.1-1,0.1-1.5,0.1H1V21.5H75.6z"
				/>
			<path class="st1" d="M81.7,82C81.7,82,81.7,82,81.7,82H0V20.5h76.6v39h4.7c5.7-0.1,10.5,3.9,11.4,9.6c0.9,6.2-3.3,11.9-9.4,12.8
				C82.8,82,82.3,82,81.7,82z M2,80h79.7c0.5,0,0.9,0,1.4-0.1c5-0.8,8.5-5.5,7.7-10.5c-0.8-4.6-4.7-7.9-9.3-7.9c0,0-0.1,0-0.1,0
				h-6.7v-39H2V80z"/>
		</g>
		<g>
			<path class="st2" d="M85.4,61.5v6.7c0,2.8-2.3,5.1-5.1,5.1H14.8c0-3.4-2.7-6.2-6.1-6.2V35.4c3.4,0,6.1-2.8,6.1-6.2h60.8V60h7.8
				L85.4,61.5z"/>
			<path class="st1" d="M80.2,73.8H14.3v-0.5c0-3.1-2.5-5.7-5.6-5.7H8.2V34.9h0.5c3.1,0,5.6-2.5,5.6-5.7v-0.5h61.8v30.8h7.4l2.3,1.8
				v6.9C85.9,71.3,83.3,73.8,80.2,73.8z M15.3,72.8h65c2.5,0,4.6-2.1,4.6-4.6v-6.4l-1.6-1.3h-8.1V29.7H15.3
				c-0.2,3.3-2.9,5.9-6.1,6.1v30.8C12.4,66.9,15,69.5,15.3,72.8z"/>
		</g>
		<g>
			<path class="st2" d="M92,70.7V11.3C92,5.6,87.4,1,81.8,1h-6.1v59.5h5.7c5.1-0.1,9.6,3.6,10.4,8.7L92,70.7z"/>
			<path class="st1" d="M91,70.9l-0.2-1.5c-0.8-4.6-4.7-7.9-9.3-7.9c0,0-0.1,0-0.1,0h-6.7V0h7.1C88,0,93,5,93,11.3v59.5L91,70.9z
				 M81.5,59.5c3.9,0,7.4,2,9.5,5V11.3C91,6.2,86.9,2,81.8,2h-5.1v57.5h4.7C81.4,59.5,81.5,59.5,81.5,59.5z"/>
		</g>
		<g>
			<ellipse class="st3" cx="46.5" cy="51.8" rx="10.2" ry="10.3"/>
			<path class="st1" d="M46.5,62.5c-5.9,0-10.7-4.8-10.7-10.8c0-5.9,4.8-10.8,10.7-10.8c5.9,0,10.7,4.8,10.7,10.8
				C57.2,57.7,52.4,62.5,46.5,62.5z M46.5,42c-5.4,0-9.7,4.4-9.7,9.8s4.4,9.8,9.7,9.8s9.7-4.4,9.7-9.8S51.9,42,46.5,42z"/>
		</g>
		<g>
			<path class="st1" d="M50.4,39.6c-2.5-0.9-5.3-0.9-7.8,0l-0.3-0.9c2.7-1,5.8-1,8.5,0L50.4,39.6z"/>
		</g>
		<g>
			<ellipse class="st3" cx="46.5" cy="51.8" rx="1" ry="1"/>
			<path class="st1" d="M46.5,53.3c-0.8,0-1.5-0.7-1.5-1.5c0-0.8,0.7-1.5,1.5-1.5c0.8,0,1.5,0.7,1.5,1.5
				C48,52.6,47.3,53.3,46.5,53.3z M46.5,51.2c-0.3,0-0.5,0.2-0.5,0.5s0.2,0.5,0.5,0.5s0.5-0.2,0.5-0.5S46.8,51.2,46.5,51.2z"/>
		</g>
		<g>
			<rect x="46" y="44.1" class="st1" width="1" height="7.2"/>
		</g>
		<g>
			<rect x="47" y="51.3" class="st1" width="6.1" height="1"/>
		</g>
	</g>
</g>
</svg>
