<?xml version="1.0" encoding="utf-8"?>
<!-- Generator: Adobe Illustrator 21.0.2, SVG Export Plug-In . SVG Version: 6.00 Build 0)  -->
<svg version="1.1" id="Layer_1" xmlns="http://www.w3.org/2000/svg" xmlns:xlink="http://www.w3.org/1999/xlink" x="0px" y="0px"
	 viewBox="0 0 88.8 100" style="enable-background:new 0 0 88.8 100;" xml:space="preserve">
<style type="text/css">
	.st0{fill:#006F7F;}
	.st1{fill:#CCEFF0;}
</style>
<g id="Layer_2">
	<g id="Layer_1-2">
		<g>
			<path class="st0" d="M88.8,39.8H10.4V29.6h65.5L88.8,39.8z M12.4,37.8h70.7l-7.8-6.2H12.4V37.8z"/>
		</g>
		<g>
			<rect x="11.4" y="21.4" class="st1" width="64.2" height="9.2"/>
			<path class="st0" d="M76.6,31.6H10.4V20.4h66.2V31.6z M12.4,29.6h62.2v-7.2H12.4V29.6z"/>
		</g>
		<g>
			<path class="st0" d="M6.2,22.4c-3.2,0-5.8-2.3-6.2-5.5c-0.3-2.7,1.2-5.2,3.7-6.2c1.1-0.5,2.4-0.6,3.6-0.4l2.9,0.5
				c5.1,1,15.8,1.3,21.5,1c8.8-0.4,17.2-2.6,25-6.5C61.6,2.9,69.1,0,76.6,0c0,0,0,0,0,0C82.9,0,88,5,88,11.2c0,0.3,0,0.5,0,0.8l0,0
				c-0.5,5.9-5.6,10.4-11.5,10.4c-0.1,0-0.1,0-0.2,0H6.4C6.4,22.4,6.3,22.4,6.2,22.4z M6.1,12.2c-0.6,0-1.1,0.1-1.6,0.3
				c-1.7,0.7-2.7,2.4-2.5,4.2c0.3,2.2,2.1,3.7,4.4,3.7l69.9,0c5,0.1,9.2-3.7,9.7-8.6c0-0.2,0-0.4,0-0.7C86,6.1,81.8,2,76.6,2
				c0,0,0,0,0,0c-7.2,0-14.3,2.8-19,5.1c-8.1,4-16.7,6.3-25.8,6.7c-5.3,0.3-16.2,0-22-1L7,12.3C6.7,12.2,6.4,12.2,6.1,12.2z"/>
		</g>
		<g>
			<path class="st0" d="M75.6,17.8c-3.7,0-6.7-3-6.7-6.6s3-6.6,6.7-6.6s6.7,3,6.7,6.6S79.3,17.8,75.6,17.8z M75.6,5.6
				c-3.2,0-5.7,2.5-5.7,5.6s2.6,5.6,5.7,5.6s5.7-2.5,5.7-5.6S78.7,5.6,75.6,5.6z"/>
		</g>
		<g>
			<path class="st0" d="M75.6,14.3c-1.7,0-3.1-1.4-3.1-3.1c0-1.7,1.4-3.1,3.1-3.1s3.1,1.4,3.1,3.1C78.7,12.9,77.3,14.3,75.6,14.3z
				 M75.6,9.2c-1.2,0-2.1,0.9-2.1,2.1c0,1.1,0.9,2.1,2.1,2.1s2.1-0.9,2.1-2.1C77.7,10.1,76.7,9.2,75.6,9.2z"/>
		</g>
		<g>
			<rect x="75.1" y="3" class="st0" width="1" height="6.1"/>
		</g>
		<g>
			<rect x="75.1" y="13.3" class="st0" width="1" height="6.1"/>
		</g>
		<g>
			<rect x="77.7" y="10.7" class="st0" width="6.2" height="1"/>
		</g>
		<g>
			<rect x="67.3" y="10.7" class="st0" width="6.2" height="1"/>
		</g>
		<g>
			<rect x="78.7" y="12.2" transform="matrix(0.7021 -0.7121 0.7121 0.7021 13.0945 60.7577)" class="st0" width="1" height="5.1"/>
		</g>
		<g>
			<rect x="71.5" y="5.1" transform="matrix(0.702 -0.7122 0.7122 0.702 15.9847 53.5746)" class="st0" width="1" height="5.1"/>
		</g>
		<g>
			<rect x="69.5" y="14.2" transform="matrix(0.7125 -0.7017 0.7017 0.7125 10.3695 54.7662)" class="st0" width="5.1" height="1"/>
		</g>
		<g>
			<rect x="76.6" y="7.2" transform="matrix(0.7125 -0.7017 0.7017 0.7125 17.3666 57.7546)" class="st0" width="5.1" height="1"/>
		</g>
		<g>
			<path class="st1" d="M16.6,49h11.4c3.4,0,6.2,2.7,6.2,6.1v34.7c0,1.7,1.4,3.1,3.1,3.1H59c1.1,0,2.1-0.9,2.1-2v-7.1h15.5v9.2
				c0,3.4-2.8,6.1-6.2,6.1H37.3c-5.1,0-9.3-4.1-9.3-9.2V57.1c0-1.1-0.9-2-2.1-2h-6.2c-1.7,0-3.1-1.4-3.1-3.1V49z"/>
			<path class="st0" d="M70.4,100H37.3c-5.7,0-10.3-4.6-10.3-10.2V57.1c0-0.6-0.5-1-1.1-1h-6.2c-2.3,0-4.1-1.8-4.1-4.1V48h12.4
				c4,0,7.2,3.2,7.2,7.1v34.7c0,1.1,0.9,2.1,2.1,2.1H59c0.6,0,1.1-0.5,1.1-1v-8.1h17.5v10.2C77.6,96.8,74.4,100,70.4,100z M17.6,50
				V52c0,1.1,0.9,2.1,2.1,2.1h6.2c1.7,0,3.1,1.4,3.1,3v32.7c0,4.5,3.7,8.2,8.3,8.2h33.1c2.9,0,5.2-2.3,5.2-5.1v-8.2H62.1v6.1
				c0,1.7-1.4,3-3.1,3H37.3c-2.3,0-4.1-1.8-4.1-4.1V55.1c0-2.8-2.3-5.1-5.2-5.1H17.6z"/>
		</g>
		<g>
			<path class="st0" d="M68.8,70.4h-1v-1c0-2,1.6-3.6,3.6-3.6h2.1c1.4,0,2.6-1.1,2.6-2.6s-1.2-2.6-2.6-2.6h-2.1
				c-2,0-3.6-1.6-3.6-3.6v-3.1h1v3.1c0,1.4,1.2,2.6,2.6,2.6h2.1c2,0,3.6,1.6,3.6,3.6s-1.6,3.6-3.6,3.6h-2.1c-1.4,0-2.6,1.1-2.6,2.6
				V70.4z"/>
		</g>
		<g>
			<path class="st1" d="M62.1,74.5h13.5c1.7,0,3.1,1.4,3.1,3.1v2l0,0H59l0,0v-2C59,75.9,60.4,74.5,62.1,74.5z"/>
			<path class="st0" d="M79.7,80.6H58v-3c0-2.2,1.8-4.1,4.1-4.1h13.5c2.3,0,4.1,1.8,4.1,4.1V80.6z M60,78.6h17.7v-1
				c0-1.1-0.9-2.1-2.1-2.1H62.1c-1.2,0-2.1,0.9-2.1,2.1V78.6z"/>
		</g>
	</g>
</g>
</svg>
