<?xml version="1.0" encoding="utf-8"?>
<!-- Generator: Adobe Illustrator 21.0.2, SVG Export Plug-In . SVG Version: 6.00 Build 0)  -->
<svg version="1.1" id="Layer_1" xmlns="http://www.w3.org/2000/svg" xmlns:xlink="http://www.w3.org/1999/xlink" x="0px" y="0px"
	 viewBox="0 0 94.1 132" style="enable-background:new 0 0 94.1 132;" xml:space="preserve">
<style type="text/css">
	.st0{fill:#CCEFF0;}
	.st1{fill:#006F7F;}
	.st2{enable-background:new    ;}
</style>
<g>
	<g>
		<polyline class="st0" points="25.2,8.6 25.2,2.5 50.1,2.5 50.1,24.7 31.4,24.7 		"/>
		<polygon class="st1" points="50.6,25.2 31.4,25.2 31.4,24.2 49.6,24.2 49.6,3 25.7,3 25.7,8.6 24.7,8.6 24.7,2 50.6,2 		"/>
	</g>
	<g>
		<polygon class="st0" points="31.4,30.7 4.4,30.7 9.6,24.7 4.4,19.6 9.6,13.6 4.4,8.6 31.4,8.6 		"/>
		<path class="st1" d="M31.9,31.2H3.3l5.6-6.5l-5.2-5l5.2-6L3.1,8.1h28.8V31.2z M5.5,30.2h25.5V9.1H5.6l4.7,4.5l-5.2,6l5.2,5
			L5.5,30.2z"/>
	</g>
	<g>
		<polygon class="st1" points="19.6,22.5 16,19.1 17.4,17.6 19.6,19.7 25.5,13.9 26.9,15.3 		"/>
	</g>
	<g>
		<path class="st1" d="M19.7,25.4c-3.4,0-6.1-2.6-6.1-5.9c0-1.6,0.6-3.1,1.8-4.2c1.1-1.1,2.7-1.7,4.3-1.8c0,0,0,0,0,0
			c1.3,0,2.5,0.4,3.5,1.1l-0.6,0.8c-0.9-0.6-1.9-0.9-3-0.9c-1.4,0-2.7,0.5-3.6,1.5c-1,0.9-1.5,2.2-1.5,3.5c0,2.7,2.3,4.9,5.1,4.9
			c0,0,0,0,0,0c1.4,0,2.7-0.5,3.6-1.5c1-0.9,1.5-2.2,1.5-3.5l1,0c0,1.6-0.6,3.1-1.8,4.2C22.8,24.8,21.3,25.4,19.7,25.4
			C19.7,25.4,19.7,25.4,19.7,25.4z"/>
	</g>
	<g>
		<path class="st1" d="M90.4,132H7.7l-2.5-12.1h88.9L90.4,132z M9.3,130h79.6l2.5-8.1H7.7L9.3,130z"/>
	</g>
	<g>
		<path class="st1" d="M50.6,121.9H18.4v-7h32.2V121.9z M19.4,120.9h30.2v-5H19.4V120.9z"/>
	</g>
	<g>
		<rect x="27.8" y="1.2" transform="matrix(0.6959 -0.7181 0.7181 0.6959 4.6227 22.0009)" class="st1" width="1" height="8.7"/>
	</g>
	<g>
		<path class="st1" d="M46.4,106.8H0l46.4-77.2V106.8z M3.5,104.8h40.9v-68L3.5,104.8z"/>
	</g>
	<g>
		<path class="st1" d="M89.6,113.9H53.8V35.7L89.6,113.9z M55.8,111.9h30.7l-30.7-67V111.9z"/>
	</g>
	<g>
		<rect x="49.6" class="st1" width="1" height="120.9"/>
	</g>
	<g class="st2">
		<path class="st1" d="M38.7,20.2v-1.5c-1.1,0-2.2-0.3-2.8-0.7l0.5-1.9c0.7,0.4,1.7,0.7,2.8,0.7c0.9,0,1.6-0.4,1.6-1
			c0-0.6-0.5-1-1.8-1.4c-1.8-0.6-3-1.4-3-3c0-1.4,1-2.5,2.8-2.9V7.1h1.6v1.4c1.1,0,1.9,0.3,2.4,0.5l-0.5,1.8
			c-0.4-0.2-1.2-0.5-2.4-0.5c-1.1,0-1.4,0.5-1.4,0.9c0,0.5,0.6,0.9,2,1.4c2,0.7,2.8,1.6,2.8,3c0,1.4-1,2.7-3,3v1.6H38.7z"/>
	</g>
</g>
</svg>
