<?xml version="1.0" encoding="utf-8"?>
<!-- Generator: Adobe Illustrator 21.0.2, SVG Export Plug-In . SVG Version: 6.00 Build 0)  -->
<svg version="1.1" id="Layer_1" xmlns="http://www.w3.org/2000/svg" xmlns:xlink="http://www.w3.org/1999/xlink" x="0px" y="0px"
	 viewBox="0 0 34 32" style="enable-background:new 0 0 34 32;" xml:space="preserve">
<style type="text/css">
	.st0{fill:#14171C;}
</style>
<g>
	<path class="st0" d="M29,32H5c-2.8,0-5-2.2-5-5V5c0-2.8,2.2-5,5-5h7.3c1.4,0,2.7,0.7,3.4,1.9L17,4c0.4,0.6,1,1,1.7,1H29
		c2.8,0,5,2.2,5,5v17C34,29.8,31.8,32,29,32z M5,2C3.3,2,2,3.3,2,5v22c0,1.7,1.3,3,3,3h24c1.7,0,3-1.3,3-3V10c0-1.7-1.3-3-3-3H18.7
		c-1.4,0-2.7-0.7-3.4-1.9L14,3c-0.4-0.6-1-1-1.7-1H5z"/>
</g>
</svg>
