<?xml version="1.0" encoding="utf-8"?>
<!-- Generator: Adobe Illustrator 21.0.2, SVG Export Plug-In . SVG Version: 6.00 Build 0)  -->
<svg version="1.1" id="Layer_1" xmlns="http://www.w3.org/2000/svg" xmlns:xlink="http://www.w3.org/1999/xlink" x="0px" y="0px"
	 viewBox="0 0 27 27" style="enable-background:new 0 0 27 27;" xml:space="preserve">
<style type="text/css">
	.st0{fill:#F04B4C;}
</style>
<g id="Page-1">
	<g id="Facebook" transform="translate(1.000000, 1.000000)">
		<g id="Stroke-1">
			<path class="st0" d="M17.8,26h-5.7v-9.6H9v-5.7h3.1V8.9c0-3.6,2.2-6,5.6-6c1.3,0,2.5,0.1,2.9,0.2l0.9,0.1v5.2l-2.9,0
				c-0.8,0-0.8,0.1-0.8,0.8v1.4h3.7l-0.7,5.7h-3V26z M14.1,24h1.7v-9.6H19l0.2-1.7h-3.4V9.2c0-1.9,0.9-2.8,2.8-2.8l0.9,0V5
				c-0.5,0-1.1-0.1-1.8-0.1c-2.3,0-3.6,1.4-3.6,4v3.8H11v1.7h3.1V24z"/>
		</g>
		<g id="Stroke-99">
			<path class="st0" d="M23.3,26H1.7C0.2,26-1,24.8-1,23.3V1.7C-1,0.2,0.2-1,1.7-1h21.6C24.8-1,26,0.2,26,1.7v21.6
				C26,24.8,24.8,26,23.3,26z M1.7,1C1.3,1,1,1.3,1,1.7v21.6C1,23.7,1.3,24,1.7,24h21.6c0.4,0,0.7-0.3,0.7-0.7V1.7
				C24,1.3,23.7,1,23.3,1H1.7z"/>
		</g>
	</g>
</g>
</svg>
