<?xml version="1.0" encoding="utf-8"?>
<!-- Generator: Adobe Illustrator 21.0.2, SVG Export Plug-In . SVG Version: 6.00 Build 0)  -->
<svg version="1.1" id="Layer_1" xmlns="http://www.w3.org/2000/svg" xmlns:xlink="http://www.w3.org/1999/xlink" x="0px" y="0px"
	 viewBox="0 0 26.9 26.9" style="enable-background:new 0 0 26.9 26.9;" xml:space="preserve">
<style type="text/css">
	.st0{fill:#F04B4C;}
</style>
<g>
	<path class="st0" d="M26.9,13.5c0,1.9,0,3.8,0,5.7c0,3.2-1.6,5.5-4.4,6.9c-1.1,0.6-2.4,0.9-3.7,0.9c-3.7,0-7.3,0.1-11,0
		C4.9,26.8,2.6,25.5,1,23c-0.7-1.1-1-2.2-1-3.5c0-4,0-8,0-12c0-2.7,1.4-4.8,3.6-6.2C5,0.4,6.5,0,8.1,0c3.6,0,7.1,0,10.7,0
		c2.7,0,5,1.1,6.7,3.3c0.9,1.2,1.4,2.6,1.4,4.2C26.9,9.5,26.9,11.5,26.9,13.5z M24.9,13.5c0-2,0-4,0-6c0-1.1-0.3-2.1-1-2.9
		c-1.2-1.7-3-2.5-5-2.5c-3.6,0-7.2,0-10.8,0C7,2,5.9,2.3,4.9,2.8C3,3.9,2,5.5,2,7.7c0,3.9,0,7.8,0,11.7c0,1.1,0.3,2.1,1,3
		c1.2,1.7,3,2.5,5,2.5c3.6,0,7.3,0,10.9,0c0.8,0,1.6-0.2,2.4-0.5c2-0.8,3.7-2.7,3.6-5.3C24.9,17.2,24.9,15.4,24.9,13.5z"/>
	<path class="st0" d="M13.5,19.2c-3.5,0-6.3-2.8-6.3-6.3c0-3.4,2.9-6.2,6.3-6.2c3.5,0,6.3,2.8,6.3,6.3
		C19.8,16.4,16.9,19.2,13.5,19.2z M13.5,8.7c-2.4,0-4.3,1.9-4.3,4.2c0,2.3,1.9,4.2,4.3,4.2c2.4,0,4.3-1.9,4.3-4.2
		C17.8,10.7,15.9,8.7,13.5,8.7z"/>
	<path class="st0" d="M21.9,6.2c0,0.8-0.6,1.4-1.3,1.4c-0.7,0-1.3-0.6-1.3-1.4c0-0.7,0.6-1.4,1.3-1.4S21.9,5.5,21.9,6.2z"/>
</g>
</svg>
