<?xml version="1.0" encoding="utf-8"?>
<!-- Generator: Adobe Illustrator 21.0.2, SVG Export Plug-In . SVG Version: 6.00 Build 0)  -->
<svg version="1.1" id="Layer_1" xmlns="http://www.w3.org/2000/svg" xmlns:xlink="http://www.w3.org/1999/xlink" x="0px" y="0px"
	 viewBox="0 0 36 36" style="enable-background:new 0 0 36 36;" xml:space="preserve">
<style type="text/css">
	.st0{fill:#F04B4C;}
	.st1{fill:#FFFFFF;}
</style>
<g>
	<path class="st0" d="M31,36H5c-2.8,0-5-2.2-5-5V8c0-2.8,2.2-5,5-5h26c2.8,0,5,2.2,5,5v23C36,33.8,33.8,36,31,36z M5,5
		C3.3,5,2,6.3,2,8v23c0,1.7,1.3,3,3,3h26c1.7,0,3-1.3,3-3V8c0-1.7-1.3-3-3-3H5z"/>
</g>
<g>
	<rect x="2" y="11" class="st0" width="34" height="2"/>
</g>
<g>
	<line class="st1" x1="9" y1="0" x2="9" y2="7"/>
	<rect x="8" class="st0" width="2" height="7"/>
</g>
<g>
	<line class="st1" x1="27" y1="0" x2="27" y2="7"/>
	<rect x="26" class="st0" width="2" height="7"/>
</g>
<g>
	<path class="st0" d="M17,29c-0.3,0-0.5-0.1-0.7-0.3l-5-5l1.4-1.4l4.3,4.3l9.3-9.3l1.4,1.4l-10,10C17.5,28.9,17.3,29,17,29z"/>
</g>
</svg>
