<?xml version="1.0" encoding="utf-8"?>
<!-- Generator: Adobe Illustrator 21.0.2, SVG Export Plug-In . SVG Version: 6.00 Build 0)  -->
<svg version="1.1" id="Layer_1" xmlns="http://www.w3.org/2000/svg" xmlns:xlink="http://www.w3.org/1999/xlink" x="0px" y="0px"
	 viewBox="0 0 38 33" style="enable-background:new 0 0 38 33;" xml:space="preserve">
<style type="text/css">
	.st0{fill:#F04B4C;}
</style>
<g>
	<path class="st0" d="M19,33c-0.2,0-0.4,0-0.5-0.1c-0.4-0.2-0.8-0.5-1.2-0.7C11.3,28.6,0,21.9,0,11C0,4.9,4.9,0,11,0
		c3,0,5.9,1.3,8,3.5C21.1,1.3,24,0,27,0c6.1,0,11,4.9,11,11c0,10.9-11.3,17.6-17.3,21.2c-0.4,0.3-0.8,0.5-1.2,0.7
		C19.4,33,19.2,33,19,33z M11,2c-5,0-9,4-9,9c0,9.8,10.6,16.1,16.3,19.4c0.2,0.1,0.5,0.3,0.7,0.4c0.2-0.1,0.4-0.3,0.7-0.4
		C25.4,27.1,36,20.8,36,11c0-5-4-9-9-9c-2.8,0-5.5,1.3-7.2,3.6c-0.4,0.5-1.2,0.5-1.6,0C16.5,3.3,13.8,2,11,2z"/>
</g>
</svg>
