<?xml version="1.0" encoding="utf-8"?>
<!-- Generator: Adobe Illustrator 21.0.2, SVG Export Plug-In . SVG Version: 6.00 Build 0)  -->
<svg version="1.1" id="Layer_1" xmlns="http://www.w3.org/2000/svg" xmlns:xlink="http://www.w3.org/1999/xlink" x="0px" y="0px"
	 viewBox="0 0 34 35.7" style="enable-background:new 0 0 34 35.7;" xml:space="preserve">
<style type="text/css">
	.st0{fill:#F04B4C;}
</style>
<g>
	<g>
		<path class="st0" d="M6,35.7c-3.3,0-6-2.7-6-6s2.7-6,6-6s6,2.7,6,6S9.3,35.7,6,35.7z M6,25.7c-2.2,0-4,1.8-4,4s1.8,4,4,4
			s4-1.8,4-4S8.2,25.7,6,25.7z"/>
	</g>
	<g>
		<path class="st0" d="M12,29.7h-2V5.5c0-1.5,1.1-2.8,2.6-3l18-2.5c0.9-0.1,1.7,0.1,2.4,0.7c0.7,0.6,1,1.4,1,2.3v23.7h-2V3
			c0-0.3-0.1-0.6-0.3-0.8C31.4,2.1,31.2,2,30.9,2l-18,2.5C12.4,4.5,12,5,12,5.5V29.7z"/>
	</g>
	<g>
		<rect x="10.9" y="8.2" transform="matrix(0.9908 -0.1353 0.1353 0.9908 -1.0435 3.0605)" class="st0" width="22.2" height="2"/>
	</g>
	<g>
		<path class="st0" d="M28,32.7c-3.3,0-6-2.7-6-6s2.7-6,6-6s6,2.7,6,6S31.3,32.7,28,32.7z M28,22.7c-2.2,0-4,1.8-4,4s1.8,4,4,4
			s4-1.8,4-4S30.2,22.7,28,22.7z"/>
	</g>
</g>
</svg>
