<?xml version="1.0" encoding="utf-8"?>
<!-- Generator: Adobe Illustrator 21.0.2, SVG Export Plug-In . SVG Version: 6.00 Build 0)  -->
<svg version="1.1" id="Layer_1" xmlns="http://www.w3.org/2000/svg" xmlns:xlink="http://www.w3.org/1999/xlink" x="0px" y="0px"
	 viewBox="0 0 38 35" style="enable-background:new 0 0 38 35;" xml:space="preserve">
<style type="text/css">
	.st0{fill:#F04B4C;}
</style>
<g>
	<g>
		<path class="st0" d="M33,28H5c-2.8,0-5-2.2-5-5V5c0-2.8,2.2-5,5-5h28c2.8,0,5,2.2,5,5v18C38,25.8,35.8,28,33,28z M5,2
			C3.3,2,2,3.3,2,5v18c0,1.7,1.3,3,3,3h28c1.7,0,3-1.3,3-3V5c0-1.7-1.3-3-3-3H5z"/>
	</g>
	<g>
		<path class="st0" d="M23,35h-8c-0.3,0-0.6-0.1-0.8-0.3c-0.2-0.2-0.3-0.5-0.2-0.8l1-7c0.1-0.5,0.5-0.9,1-0.9h6c0.5,0,0.9,0.4,1,0.9
			l1,7c0,0.3,0,0.6-0.2,0.8C23.6,34.9,23.3,35,23,35z M16.2,33h5.7l-0.7-5h-4.3L16.2,33z"/>
	</g>
	<g>
		<path class="st0" d="M26,35H12c-0.6,0-1-0.4-1-1s0.4-1,1-1h14c0.6,0,1,0.4,1,1S26.6,35,26,35z"/>
	</g>
	<g>
		<rect x="1" y="20" class="st0" width="36" height="2"/>
	</g>
</g>
</svg>
