<?xml version="1.0" encoding="utf-8"?>
<!-- Generator: Adobe Illustrator 21.0.2, SVG Export Plug-In . SVG Version: 6.00 Build 0)  -->
<svg version="1.1" id="Layer_1" xmlns="http://www.w3.org/2000/svg" xmlns:xlink="http://www.w3.org/1999/xlink" x="0px" y="0px"
	 viewBox="0 0 36 37" style="enable-background:new 0 0 36 37;" xml:space="preserve">
<style type="text/css">
	.st0{fill:#F04B4C;}
</style>
<g>
	<g>
		<path class="st0" d="M18,33.4c-0.3,0-0.5-0.1-0.7-0.3l-9.5-9.5c-1.1-1.2-2-2.5-2.6-3.9C4.4,17.9,4,16,4,14C4,6.3,10.3,0,18,0
			s14,6.3,14,14c0,2-0.4,3.9-1.2,5.7c-0.6,1.4-1.5,2.7-2.6,3.9l-9.5,9.5C18.5,33.3,18.3,33.4,18,33.4z M18,2C11.4,2,6,7.4,6,14
			c0,1.7,0.3,3.3,1,4.9c0.5,1.2,1.3,2.3,2.2,3.3L18,31l8.8-8.8c0.9-1,1.6-2.1,2.2-3.3c0.7-1.5,1-3.2,1-4.9C30,7.4,24.6,2,18,2z"/>
	</g>
	<g>
		<path class="st0" d="M35,37H1c-0.3,0-0.6-0.1-0.8-0.4C0,36.3,0,36,0,35.7l3-10L5,26.3L2.3,35h31.3L31,26.3l1.9-0.6l3,10
			c0.1,0.3,0,0.6-0.2,0.9C35.6,36.9,35.3,37,35,37z"/>
	</g>
	<g>
		<path class="st0" d="M18,20c-3.3,0-6-2.7-6-6s2.7-6,6-6s6,2.7,6,6S21.3,20,18,20z M18,10c-2.2,0-4,1.8-4,4s1.8,4,4,4s4-1.8,4-4
			S20.2,10,18,10z"/>
	</g>
</g>
</svg>
