<?xml version="1.0" encoding="utf-8"?>
<!-- Generator: Adobe Illustrator 21.0.2, SVG Export Plug-In . SVG Version: 6.00 Build 0)  -->
<svg version="1.1" id="Layer_1" xmlns="http://www.w3.org/2000/svg" xmlns:xlink="http://www.w3.org/1999/xlink" x="0px" y="0px"
	 viewBox="0 0 32 28" style="enable-background:new 0 0 32 28;" xml:space="preserve">
<style type="text/css">
	.st0{fill:#FFFFFF;}
	.st1{fill:#F04B4C;}
</style>
<g>
	<g>
		<line class="st0" x1="10" y1="4" x2="32" y2="4"/>
		<rect x="10" y="3" class="st1" width="22" height="2"/>
	</g>
	<g>
		<line class="st0" x1="0" y1="4" x2="4" y2="4"/>
		<rect y="3" class="st1" width="4" height="2"/>
	</g>
	<g>
		<line class="st0" x1="28" y1="14" x2="32" y2="14"/>
		<rect x="28" y="13" class="st1" width="4" height="2"/>
	</g>
	<g>
		<line class="st0" x1="0" y1="14" x2="22" y2="14"/>
		<rect y="13" class="st1" width="22" height="2"/>
	</g>
	<g>
		<line class="st0" x1="16" y1="24" x2="32" y2="24"/>
		<rect x="16" y="23" class="st1" width="16" height="2"/>
	</g>
	<g>
		<line class="st0" x1="0" y1="24" x2="10" y2="24"/>
		<rect y="23" class="st1" width="10" height="2"/>
	</g>
	<g>
		<path class="st1" d="M7,8C4.8,8,3,6.2,3,4s1.8-4,4-4s4,1.8,4,4S9.2,8,7,8z M7,2C5.9,2,5,2.9,5,4s0.9,2,2,2s2-0.9,2-2S8.1,2,7,2z"
			/>
	</g>
	<g>
		<path class="st1" d="M25,18c-2.2,0-4-1.8-4-4s1.8-4,4-4s4,1.8,4,4S27.2,18,25,18z M25,12c-1.1,0-2,0.9-2,2s0.9,2,2,2s2-0.9,2-2
			S26.1,12,25,12z"/>
	</g>
	<g>
		<path class="st1" d="M13,28c-2.2,0-4-1.8-4-4s1.8-4,4-4s4,1.8,4,4S15.2,28,13,28z M13,22c-1.1,0-2,0.9-2,2s0.9,2,2,2s2-0.9,2-2
			S14.1,22,13,22z"/>
	</g>
</g>
</svg>
