<?xml version="1.0" encoding="utf-8"?>
<!-- Generator: Adobe Illustrator 21.0.2, SVG Export Plug-In . SVG Version: 6.00 Build 0)  -->
<svg version="1.1" id="Layer_1" xmlns="http://www.w3.org/2000/svg" xmlns:xlink="http://www.w3.org/1999/xlink" x="0px" y="0px"
	 viewBox="0 0 36 36" style="enable-background:new 0 0 36 36;" xml:space="preserve">
<style type="text/css">
	.st0{fill:#F04B4C;}
</style>
<g>
	<g>
		<path class="st0" d="M31,36H5c-2.8,0-5-2.2-5-5V5c0-2.8,2.2-5,5-5h26c2.8,0,5,2.2,5,5v26C36,33.8,33.8,36,31,36z M5,2
			C3.3,2,2,3.3,2,5v26c0,1.7,1.3,3,3,3h26c1.7,0,3-1.3,3-3V5c0-1.7-1.3-3-3-3H5z"/>
	</g>
	<g>
		<rect x="6" y="7" class="st0" width="24" height="2"/>
	</g>
	<g>
		<rect x="6" y="14" class="st0" width="24" height="2"/>
	</g>
	<g>
		<rect x="6" y="20" class="st0" width="24" height="2"/>
	</g>
	<g>
		<rect x="6" y="27" class="st0" width="24" height="2"/>
	</g>
</g>
</svg>
