<?xml version="1.0" encoding="utf-8"?>
<!-- Generator: Adobe Illustrator 21.0.2, SVG Export Plug-In . SVG Version: 6.00 Build 0)  -->
<svg version="1.1" id="Layer_1" xmlns="http://www.w3.org/2000/svg" xmlns:xlink="http://www.w3.org/1999/xlink" x="0px" y="0px"
	 viewBox="0 0 36 34.5" style="enable-background:new 0 0 36 34.5;" xml:space="preserve">
<style type="text/css">
	.st0{fill:#F04B4C;}
</style>
<g>
	<path class="st0" d="M27.3,34.5c-0.5,0-1-0.1-1.5-0.4L18,29.6l-7.9,4.5c-1,0.6-2.2,0.5-3.2-0.2C6,33.3,5.6,32.2,5.8,31l1.9-8.9
		L1,16c-0.9-0.8-1.2-1.9-0.8-3c0.4-1.1,1.3-1.9,2.5-2l9.1-1l3.7-8.3C15.8,0.7,16.8,0,18,0s2.2,0.7,2.6,1.7l3.7,8.3l9.1,1
		c1.2,0.1,2.1,0.9,2.5,2c0.4,1.1,0,2.3-0.8,3l-6.8,6.1l1.9,8.9c0.2,1.1-0.2,2.3-1.1,2.9C28.5,34.3,27.9,34.5,27.3,34.5z M18,27.4
		c0.2,0,0.3,0,0.5,0.1l8.4,4.8c0.5,0.3,0.9,0,1-0.1s0.5-0.4,0.4-0.9l-2-9.5c-0.1-0.3,0-0.7,0.3-1l7.2-6.5c0.4-0.4,0.3-0.8,0.3-0.9
		c0-0.1-0.2-0.6-0.8-0.6l-9.6-1c-0.4,0-0.7-0.3-0.8-0.6l-3.9-8.8l0,0C18.6,2,18.1,2,18,2s-0.6,0-0.8,0.5l-3.9,8.8
		c-0.1,0.3-0.5,0.5-0.8,0.6l-9.6,1C2.3,13,2.1,13.5,2,13.6c0,0.1-0.1,0.6,0.3,0.9L9.5,21c0.3,0.2,0.4,0.6,0.3,1l-2,9.5
		C7.7,32,8,32.3,8.1,32.3c0.1,0.1,0.5,0.3,1,0.1l8.4-4.8C17.7,27.5,17.8,27.4,18,27.4z"/>
</g>
</svg>
