<?xml version="1.0" encoding="utf-8"?>
<!-- Generator: Adobe Illustrator 21.0.2, SVG Export Plug-In . SVG Version: 6.00 Build 0)  -->
<svg version="1.1" id="Layer_1" xmlns="http://www.w3.org/2000/svg" xmlns:xlink="http://www.w3.org/1999/xlink" x="0px" y="0px"
	 viewBox="0 0 23 22" style="enable-background:new 0 0 23 22;" xml:space="preserve">
<style type="text/css">
	.st0{fill:#006F7F;}
</style>
<title>user</title>
<g id="Layer_2">
	<g id="Layer_1-2">
		<g>
			<path class="st0" d="M11.5,12c-3.4,0-6.2-2.7-6.2-6s2.8-6,6.2-6s6.2,2.7,6.2,6S14.9,12,11.5,12z M11.5,2C9.2,2,7.3,3.8,7.3,6
				s1.9,4,4.2,4s4.2-1.8,4.2-4S13.8,2,11.5,2z"/>
		</g>
		<g>
			<path class="st0" d="M23,22H0l0-1c-0.1-2.8,1-5.5,2.9-7.5c2.1-2.2,5-3.4,8.1-3.5c0.2,0,0.3,0,0.5,0c6.1-0.1,11.3,4.6,11.5,10.5
				c0,0.2,0,0.3,0,0.5L23,22z M2,20H21c-0.4-4.6-4.5-8.1-9.4-8c-0.2,0-0.3,0-0.5,0c-2.6,0.1-4.9,1.1-6.7,2.9C3,16.3,2.2,18.1,2,20z"
				/>
		</g>
	</g>
</g>
</svg>
