<?xml version="1.0" encoding="utf-8"?>
<!-- Generator: Adobe Illustrator 21.0.2, SVG Export Plug-In . SVG Version: 6.00 Build 0)  -->
<svg version="1.1" id="Layer_1" xmlns="http://www.w3.org/2000/svg" xmlns:xlink="http://www.w3.org/1999/xlink" x="0px" y="0px"
	 viewBox="0 0 24 24.5" style="enable-background:new 0 0 24 24.5;" xml:space="preserve">
<style type="text/css">
	.st0{fill:#006F7F;}
</style>
<title>wishlist</title>
<g id="Layer_2">
	<g id="Layer_1-2">
		<g>
			<path class="st0" d="M12,24.5L2.3,14.1c-2.8-2.9-3.1-7.7-0.7-11C1.8,2.8,1.9,2.7,2,2.5c1.4-1.6,3.3-2.4,5.3-2.4
				C9.1,0,10.7,0.6,12,1.7c1.5-1.2,3.3-1.8,5.2-1.7c2,0.2,3.9,1.2,5.2,2.9l0,0c2.4,3.3,2.1,8.1-0.7,11L12,24.5z M7.4,2.1
				C7.4,2.1,7.4,2.1,7.4,2.1c-1.5,0-2.9,0.6-3.9,1.8C3.4,4,3.3,4.1,3.2,4.2c-1.8,2.5-1.6,6.2,0.5,8.5l8.2,8.8l8.2-9
				c2.1-2.3,2.4-5.9,0.5-8.5c-1-1.2-2.3-2-3.8-2.1c-1.4-0.1-2.8,0.4-3.9,1.4c-0.1,0.1-0.2,0.2-0.3,0.3L12,4.6l-0.7-0.8
				C10.2,2.7,8.9,2.1,7.4,2.1z"/>
		</g>
	</g>
</g>
</svg>
