<?xml version="1.0" encoding="utf-8"?>
<!-- Generator: Adobe Illustrator 21.0.2, SVG Export Plug-In . SVG Version: 6.00 Build 0)  -->
<svg version="1.1" id="Layer_1" xmlns="http://www.w3.org/2000/svg" xmlns:xlink="http://www.w3.org/1999/xlink" x="0px" y="0px"
	 viewBox="0 0 19.4 21.1" style="enable-background:new 0 0 19.4 21.1;" xml:space="preserve">
<style type="text/css">
	.st0{fill:#006F7F;}
</style>
<g id="Layer_2">
	<g id="Layer_1-2">
		<g>
			<path class="st0" d="M9.7,21.1c-3.5,0-7-1.3-9.7-3.9l1.4-1.4c4.6,4.4,12,4.4,16.6,0l1.4,1.4C16.7,19.8,13.2,21.1,9.7,21.1z"/>
		</g>
		<g>
			<rect x="8.7" y="7.7" class="st0" width="2" height="13.3"/>
		</g>
		<g>
			<rect x="5.1" y="11.1" class="st0" width="9.1" height="2"/>
		</g>
		<g>
			<path class="st0" d="M9.7,8.7c-2.4,0-4.4-1.9-4.4-4.3c0-2.4,2-4.3,4.4-4.3s4.4,1.9,4.4,4.3C14.1,6.7,12.1,8.7,9.7,8.7z M9.7,2
				C8.4,2,7.3,3,7.3,4.3s1.1,2.3,2.4,2.3c1.3,0,2.4-1,2.4-2.3S11,2,9.7,2z"/>
		</g>
	</g>
</g>
</svg>
