<?xml version="1.0" encoding="utf-8"?>
<!-- Generator: Adobe Illustrator 21.0.2, SVG Export Plug-In . SVG Version: 6.00 Build 0)  -->
<svg version="1.1" id="Layer_1" xmlns="http://www.w3.org/2000/svg" xmlns:xlink="http://www.w3.org/1999/xlink" x="0px" y="0px"
	 viewBox="0 0 18 18" style="enable-background:new 0 0 18 18;" xml:space="preserve">
<style type="text/css">
	.st0{fill:#006F7F;}
</style>
<g>
	<path class="st0" d="M9,10c-2.9,0-5.2-2.2-5.2-5S6.1,0,9,0s5.2,2.2,5.2,5S11.9,10,9,10z M9,2C7.2,2,5.8,3.3,5.8,5S7.2,8,9,8
		s3.2-1.3,3.2-3S10.8,2,9,2z"/>
</g>
<g>
	<path class="st0" d="M18,18H0v-1c0-4.9,3.9-8.6,9-8.6s9,3.7,9,8.6V18z M2.1,16H16c-0.5-3.3-3.3-5.6-6.9-5.6S2.5,12.7,2.1,16z"/>
</g>
</svg>
