<?xml version="1.0" encoding="utf-8"?>
<!-- Generator: Adobe Illustrator 21.0.2, SVG Export Plug-In . SVG Version: 6.00 Build 0)  -->
<svg version="1.1" id="Layer_1" xmlns="http://www.w3.org/2000/svg" xmlns:xlink="http://www.w3.org/1999/xlink" x="0px" y="0px"
	 viewBox="0 0 30 30" style="enable-background:new 0 0 30 30;" xml:space="preserve">
<style type="text/css">
	.st0{fill:#FFFFFF;}
	.st1{fill:#006F7F;}
</style>
<g>
	<circle class="st0" cx="15" cy="15" r="15"/>
	<g>
		<circle class="st1" cx="14.9" cy="15.1" r="2.7"/>
		<path class="st1" d="M18.2,8.5h-6.7c-1,0-1.8,0.3-2.4,0.9s-0.9,1.4-0.9,2.4v6.7c0,1,0.3,1.8,0.9,2.4c0.6,0.5,1.4,0.9,2.4,0.9h6.6
			c1,0,1.8-0.3,2.4-0.9c0.6-0.5,0.9-1.4,0.9-2.4v-6.7c0-1-0.3-1.8-0.9-2.4C20.1,8.8,19.3,8.5,18.2,8.5z M14.9,19.3
			c-2.3,0-4.1-1.9-4.1-4.1c0-2.3,1.9-4.1,4.1-4.1s4.2,1.8,4.2,4.1S17.2,19.3,14.9,19.3z M19.2,11.8c-0.5,0-1-0.4-1-1s0.4-1,1-1
			c0.5,0,1,0.4,1,1S19.8,11.8,19.2,11.8z"/>
		<path class="st1" d="M15,0C6.7,0,0,6.7,0,15s6.7,15,15,15s15-6.7,15-15C30.1,6.7,23.3,0,15,0z M23,18.5c0,1.4-0.5,2.6-1.3,3.5
			c-0.9,0.9-2.1,1.3-3.4,1.3h-6.6c-1.3,0-2.6-0.4-3.4-1.3C7.4,21.1,7,19.9,7,18.5v-6.7C7,9,8.9,7,11.8,7h6.7c1.4,0,2.6,0.5,3.4,1.3
			c0.9,0.9,1.3,2,1.3,3.4C23,11.8,23,18.5,23,18.5z"/>
	</g>
</g>
</svg>
