<?xml version="1.0" encoding="utf-8"?>
<!-- Generator: Adobe Illustrator 21.0.2, SVG Export Plug-In . SVG Version: 6.00 Build 0)  -->
<svg version="1.1" id="Layer_1" xmlns="http://www.w3.org/2000/svg" xmlns:xlink="http://www.w3.org/1999/xlink" x="0px" y="0px"
	 viewBox="0 0 20 20" style="enable-background:new 0 0 20 20;" xml:space="preserve">
<style type="text/css">
	.st0{fill:#00ADB5;}
</style>
<g id="Layer_2">
	<g id="Layer_1-2">
		<g>
			<path class="st0" d="M10,19c-5,0-9-4-9-9c0-5,4-9,9-9c5,0,9,4,9,9C19,15,15,19,10,19z M10,3c-3.9,0-7,3.1-7,7c0,3.9,3.1,7,7,7
				c3.9,0,7-3.1,7-7C17,6.1,13.9,3,10,3z"/>
		</g>
		<g>
			<path class="st0" d="M10,14c-2.2,0-4-1.8-4-4c0-2.2,1.8-4,4-4c2.2,0,4,1.8,4,4C14,12.2,12.2,14,10,14z M10,8c-1.1,0-2,0.9-2,2
				c0,1.1,0.9,2,2,2c1.1,0,2-0.9,2-2C12,8.9,11.1,8,10,8z"/>
		</g>
		<g>
			<rect x="9" class="st0" width="2" height="3"/>
		</g>
		<g>
			<rect x="9" y="17" class="st0" width="2" height="3"/>
		</g>
		<g>
			<rect x="17" y="9" class="st0" width="3" height="2"/>
		</g>
		<g>
			<rect y="9" class="st0" width="3" height="2"/>
		</g>
		<g>
			<rect x="4.1" y="0.7" transform="matrix(0.7071 -0.7071 0.7071 0.7071 -2.1125 5.1001)" class="st0" width="2" height="8.8"/>
		</g>
		<g>
			<rect x="13.9" y="10.5" transform="matrix(0.7071 -0.7071 0.7071 0.7071 -6.1717 14.8999)" class="st0" width="2" height="8.8"/>
		</g>
		<g>
			<rect x="10.5" y="4.1" transform="matrix(0.7071 -0.7071 0.7071 0.7071 0.7578 12.0296)" class="st0" width="8.8" height="2"/>
		</g>
		<g>
			<rect x="0.7" y="13.9" transform="matrix(0.7071 -0.7071 0.7071 0.7071 -9.042 7.9704)" class="st0" width="8.8" height="2"/>
		</g>
	</g>
</g>
</svg>
