<?xml version="1.0" encoding="utf-8"?>
<!-- Generator: Adobe Illustrator 21.0.2, SVG Export Plug-In . SVG Version: 6.00 Build 0)  -->
<svg version="1.1" id="Layer_1" xmlns="http://www.w3.org/2000/svg" xmlns:xlink="http://www.w3.org/1999/xlink" x="0px" y="0px"
	 viewBox="0 0 24 24" style="enable-background:new 0 0 24 24;" xml:space="preserve">
<style type="text/css">
	.st0{fill:#006F7F;}
</style>
<g>
	<path class="st0" d="M18.6,24H3.2C1.4,24,0,22.6,0,20.8V5.4c0-1.8,1.4-3.2,3.2-3.2H9c0.6,0,1,0.4,1,1s-0.4,1-1,1H3.2
		C2.5,4.2,2,4.7,2,5.4v15.4C2,21.5,2.5,22,3.2,22h15.4c0.7,0,1.2-0.5,1.2-1.2V15c0-0.6,0.4-1,1-1s1,0.4,1,1v5.8
		C21.8,22.6,20.4,24,18.6,24z"/>
</g>
<g>
	<path class="st0" d="M12,17.4H7.6c-0.6,0-1-0.4-1-1V12c0-0.3,0.1-0.5,0.3-0.7l11-11c0.4-0.4,1-0.4,1.4,0l4.4,4.4
		C23.9,4.9,24,5.1,24,5.4s-0.1,0.5-0.3,0.7l-11,11C12.5,17.3,12.3,17.4,12,17.4z M8.6,15.4h3l10-10l-3-3l-10,10V15.4z"/>
</g>
</svg>
