<svg xmlns="http://www.w3.org/2000/svg" xmlns:xlink="http://www.w3.org/1999/xlink" viewBox="0 0 433.7 375.6"><defs>
	<linearGradient id="triangle_378" x1="-500" y1="64.9" x2="-66.29" y2="64.9" gradientTransform="translate(-66.3 195.9) rotate(180)" gradientUnits="userSpaceOnUse"><stop offset="0" stop-color="#2e2e2e"/><stop offset="1"/></linearGradient>
	<linearGradient id="triangle_379" x1="-360.84" y1="154.37" x2="-360.84" y2="-176.26" gradientTransform="translate(-66.3 195.9) rotate(180)" gradientUnits="userSpaceOnUse"><stop offset="0" stop-color="#1a1a1a"/><stop offset="1"/></linearGradient>
	<linearGradient id="triangle_379-2" x1="-241.8" y1="156.93" x2="-608.35" y2="23.52" xlink:href="#triangle_379"/>
	<linearGradient id="triangle_379-3" x1="-500" y1="92.87" x2="-66.29" y2="92.87" xlink:href="#triangle_379"/>
	<linearGradient id="triangle_379-4" x1="-424.93" y1="152.32" x2="-138.89" y2="-343.12" xlink:href="#triangle_379"/>
	<linearGradient id="triangle_379-5" x1="-500" y1="-2.78" x2="-66.29" y2="-2.78" xlink:href="#triangle_379"/>
	<linearGradient id="triangle_378-2" x1="-83.48" y1="341.74" x2="-381.87" y2="-13.87" xlink:href="#triangle_378"/>
	<linearGradient id="linear-gradient" x1="-309.49" y1="259.81" x2="-150.87" y2="-14.93" gradientTransform="translate(-66.3 195.9) rotate(180)" gradientUnits="userSpaceOnUse"><stop offset="0"/><stop offset="1" stop-color="#1a1a1a"/></linearGradient>
	<linearGradient id="triangle_378-3" x1="-500" y1="-26.63" x2="-66.29" y2="-26.63" xlink:href="#triangle_378"/>
	<linearGradient id="linear-gradient-2" x1="125.64" y1="111.3" x2="46.03" y2="-26.58" gradientTransform="matrix(1, 0, 0, 1, 0, 0)" xlink:href="#linear-gradient"/>
	<linearGradient id="triangle_378-4" x1="-500" y1="-102.1" x2="-66.29" y2="-102.1" xlink:href="#triangle_378"/>
	<linearGradient id="triangle_379-6" x1="90.41" y1="39.95" x2="623.11" y2="39.95" gradientTransform="matrix(1, 0, 0, 1, 0, 0)" xlink:href="#triangle_379"/></defs><title>triangle whole</title><g id="Layer_2" data-name="Layer 2"><g id="triangle_1" data-name="triangle 1">
	<polygon class="part_tringle" points="265.9 79.9 158 92.6 190.1 177 237.1 182.1 299.3 103.8 265.9 79.9" fill="url(#triangle_378)"/>
	<polygon class="part_tringle" points="237.1 182.1 323.2 191.4 352 141.5 299.3 103.8 237.1 182.1" fill="url(#triangle_379)"/>
	<polygon class="part_tringle" points="323.7 73.1 265.9 79.9 299.3 103.8 323.7 73.1" fill="url(#triangle_379-2)"/>
	<polygon class="part_tringle" points="299.3 103.8 352 141.5 396.5 64.5 323.7 73.1 299.3 103.8" fill="url(#triangle_379-3)"/>
	<polygon class="part_tringle" points="237.1 182.1 206.7 220.3 246.3 324.5 323.2 191.4 237.1 182.1" fill="url(#triangle_379-4)"/>
	<polygon class="part_tringle" points="206.7 220.3 237.1 182.1 190.1 177 206.7 220.3" fill="url(#triangle_379-5)"/>
	<polygon class="part_tringle" points="265.9 79.9 154.2 0 122.8 0 158 92.6 265.9 79.9" fill="url(#triangle_378-2)"/>
	<polygon class="part_tringle" points="158 92.6 60.1 104.1 96.3 166.8 190.1 177 158 92.6" fill="url(#linear-gradient)"/>
	<polygon class="part_tringle" points="190.1 177 96.3 166.8 160.6 278.2 206.7 220.3 190.1 177" fill="url(#triangle_378-3)"/>
	<polygon class="part_tringle" points="122.8 0 0 0 60.1 104.1 158 92.6 122.8 0" fill="url(#linear-gradient-2)"/>
	<polygon class="part_tringle" points="160.6 278.2 216.9 375.6 246.3 324.5 206.7 220.3 160.6 278.2" fill="url(#triangle_378-4)"/>
	<polygon class="part_tringle" points="154.2 0 265.9 79.9 396.5 64.5 433.7 0 154.2 0" fill="url(#triangle_379-6)"/>
</g></g></svg>